<svg width="742" height="716" xmlns="http://www.w3.org/2000/svg">
 <g id="Layer_1">
  <title>Layer 1</title>
  <g>
   <g id="svg_16">
    <path fill="#FFFFFF" d="m619.8,214.1l0,-140.4l-127.4,-73.6l-121.6,70.2l-121.6,-70.3l-127.5,73.7l0,140.4l-121.7,70.2l0,147.2l115.1,66.5l6.4,3.7l0,140.4l127.5,73.6l105.5,-60.9l16.2,-9.4l121.7,70.2l127.5,-73.6l0,-140.3l121.7,-70.2l0,-147.2l-121.8,-70.2zm-364.7,210.6l0,-133.5l115.7,-66.8l115.7,66.8l0,133.6l-98.5,57l-17.1,10l-115.8,-67.1z" class="st0"/>
    <path fill="#FFFFFF" d="m475.7,419l0,-121.4l-105.4,-60.9l-105.4,60.9l0,121.6l105.4,60.9l105.4,-61.1z" class="st0"/>
   </g>
   <g id="svg_6">
    <g>
     <g>
      <polygon points="370.5,248.8000030517578 280,301 370.5,353.3999938964844 460.8000183105469,301 " fill="#E61432" class="st1" id="svg_15"/>
     </g>
     <g enable-background="new" class="st2">
      <path fill="#FFFFFF" d="m318.3,298.7c-0.7,-0.7 -1.2,-1.8 -1.2,-3.1l0,-5.3l1.8,0l0,5.3c0,1.9 0.8,2.8 2.4,2.8s2.4,-0.9 2.4,-2.8l0,-5.3l1.8,0l0,5.3c0,1.4 -0.3,2.4 -1,3.1s-1.8,1.2 -3,1.2c-1.4,0 -2.4,-0.4 -3.2,-1.2z" class="st0"/>
      <path fill="#FFFFFF" d="m336.7,290.2l0,9.5l-1.5,0l-5.2,-6.5l0,6.5l-1.8,0l0,-9.5l1.5,0l5.2,6.5l0,-6.5l1.8,0z" class="st0"/>
      <path fill="#FFFFFF" d="m341.3,291.7l-3.1,0l0,-1.5l8.1,0l0,1.5l-3.1,0l0,8.1l-1.8,0l0,-8.1l-0.1,0z" class="st0"/>
      <path fill="#FFFFFF" d="m354.9,298.3l0,1.5l-7.1,0l0,-9.5l6.9,0l0,1.5l-5.2,0l0,2.5l4.6,0l0,1.5l-4.6,0l0,2.6l5.4,-0.1l0,0z" class="st0"/>
      <path fill="#FFFFFF" d="m363.2,299.7l-2,-2.8c-0.1,0 -0.2,0 -0.4,0l-2.2,0l0,2.8l-1.8,0l0,-9.5l3.9,0c0.8,0 1.6,0.1 2.2,0.4s1,0.6 1.4,1.2c0.3,0.5 0.5,1.2 0.5,1.8c0,0.7 -0.2,1.4 -0.5,1.9c-0.3,0.5 -0.8,0.9 -1.5,1.2l2.2,3.1l-1.8,0l0,-0.1zm-0.6,-7.5c-0.4,-0.3 -0.9,-0.5 -1.8,-0.5l-2.1,0l0,3.8l2.1,0c0.7,0 1.4,-0.2 1.8,-0.5c0.4,-0.3 0.6,-0.8 0.6,-1.4s-0.2,-1.1 -0.6,-1.4z" class="st0"/>
      <path fill="#FFFFFF" d="m373.4,299.7l-2,-2.8c-0.1,0 -0.2,0 -0.4,0l-2.2,0l0,2.8l-1.8,0l0,-9.5l3.9,0c0.8,0 1.6,0.1 2.2,0.4c0.6,0.3 1,0.6 1.4,1.2c0.3,0.5 0.5,1.2 0.5,1.8c0,0.7 -0.2,1.4 -0.5,1.9c-0.3,0.5 -0.8,0.9 -1.5,1.2l2.2,3.1l-1.8,0l0,-0.1zm-0.6,-7.5c-0.4,-0.3 -0.9,-0.5 -1.8,-0.5l-2.1,0l0,3.8l2.1,0c0.7,0 1.4,-0.2 1.8,-0.5c0.4,-0.3 0.6,-0.8 0.6,-1.4s-0.3,-1.1 -0.6,-1.4z" class="st0"/>
      <path fill="#FFFFFF" d="m377.3,290.2l1.8,0l0,9.5l-1.8,0l0,-9.5z" class="st0"/>
      <path fill="#FFFFFF" d="m383.6,299.2c-0.7,-0.4 -1.4,-1 -1.8,-1.8s-0.6,-1.6 -0.6,-2.5s0.2,-1.8 0.6,-2.5c0.4,-0.7 1,-1.4 1.8,-1.8c0.7,-0.4 1.7,-0.6 2.6,-0.6c0.7,0 1.5,0.1 2.1,0.4s1.2,0.6 1.7,1.2l-1.2,1c-0.7,-0.7 -1.6,-1.2 -2.5,-1.2c-0.6,0 -1.3,0.1 -1.8,0.4c-0.5,0.3 -0.9,0.7 -1.3,1.2c-0.3,0.5 -0.4,1 -0.4,1.8s0.1,1.3 0.4,1.8c0.3,0.5 0.7,0.9 1.3,1.2c0.5,0.3 1.2,0.4 1.8,0.4c1,0 1.9,-0.4 2.5,-1.2l1.2,1c-0.4,0.5 -0.9,0.9 -1.7,1.2c-0.6,0.3 -1.4,0.4 -2.1,0.4c-1,0.3 -1.9,0 -2.6,-0.4z" class="st0"/>
      <path fill="#FFFFFF" d="m400.3,290.2l0,9.5l-1.8,0l0,-4.1l-4.9,0l0,4.1l-1.8,0l0,-9.5l1.8,0l0,4l4.9,0l0,-4l1.8,0z" class="st0"/>
      <path fill="#FFFFFF" d="m404.9,291.7l-3.2,0l0,-1.5l8.1,0l0,1.5l-3.1,0l0,8.1l-1.8,0l0,-8.1z" class="st0"/>
      <path fill="#FFFFFF" d="m412,299.5c-0.7,-0.2 -1.3,-0.5 -1.7,-0.8l0.6,-1.4c0.4,0.3 0.8,0.5 1.5,0.7c0.5,0.2 1.2,0.3 1.7,0.3c0.7,0 1.3,-0.1 1.6,-0.3c0.3,-0.2 0.5,-0.5 0.5,-0.9c0,-0.3 -0.1,-0.5 -0.3,-0.6c-0.2,-0.1 -0.4,-0.3 -0.7,-0.4s-0.7,-0.2 -1.3,-0.3c-0.7,-0.2 -1.4,-0.3 -1.8,-0.5c-0.4,-0.2 -0.8,-0.4 -1.2,-0.8c-0.3,-0.4 -0.5,-0.8 -0.5,-1.5c0,-0.5 0.1,-1 0.4,-1.5s0.7,-0.7 1.3,-1c0.6,-0.2 1.3,-0.4 2.1,-0.4c0.6,0 1.2,0.1 1.7,0.2c0.5,0.1 1,0.3 1.5,0.6l-0.5,1.4c-0.4,-0.2 -0.8,-0.4 -1.3,-0.5c-0.4,-0.1 -0.9,-0.2 -1.4,-0.2c-0.7,0 -1.3,0.1 -1.6,0.3s-0.5,0.5 -0.5,0.9c0,0.3 0.1,0.5 0.3,0.6c0.2,0.2 0.4,0.3 0.7,0.4c0.3,0.1 0.7,0.2 1.3,0.3c0.7,0.2 1.3,0.3 1.8,0.5c0.4,0.2 0.8,0.4 1.2,0.8c0.3,0.3 0.5,0.8 0.5,1.5c0,0.5 -0.1,1 -0.4,1.5s-0.7,0.7 -1.3,1c-0.6,0.2 -1.3,0.4 -2.1,0.4c-0.6,0.1 -1.4,-0.1 -2.1,-0.3z" class="st0"/>
      <path fill="#FFFFFF" d="m419.6,294.2l3.8,0l0,1.5l-3.8,0l0,-1.5z" class="st0"/>
      <path fill="#FFFFFF" d="m338.6,310.2c0.3,0.4 0.4,0.9 0.4,1.5c0,0.8 -0.3,1.4 -0.9,1.8c-0.6,0.4 -1.5,0.7 -2.7,0.7l-4.7,0l0,-9.2l4.3,0c1.1,0 1.9,0.2 2.5,0.7c0.6,0.4 0.9,1 0.9,1.8c0,0.4 -0.1,0.9 -0.3,1.2c-0.2,0.4 -0.5,0.7 -0.9,0.8c0.7,0.1 1.1,0.3 1.4,0.7zm-6,-3.9l0,2.6l2.4,0c0.6,0 1,-0.1 1.4,-0.3c0.3,-0.2 0.5,-0.5 0.5,-0.9c0,-0.4 -0.1,-0.7 -0.5,-0.9c-0.3,-0.2 -0.8,-0.3 -1.4,-0.3l-2.4,-0.2l0,0zm4.7,5.2c0,-0.9 -0.7,-1.3 -2,-1.3l-2.8,0l0,2.6l2.8,0c1.4,0 2,-0.4 2,-1.3z" class="st0"/>
      <path fill="#FFFFFF" d="m347,312.1l-4.6,0l-0.9,2.1l-1.8,0l4.2,-9.2l1.7,0l4.2,9.2l-1.8,0l-1,-2.1zm-0.6,-1.4l-1.8,-4l-1.8,4l3.6,0z" class="st0"/>
      <path fill="#FFFFFF" d="m351.8,313.2c-0.7,-0.7 -1.1,-1.8 -1.1,-3.1l0,-5.1l1.7,0l0,5.1c0,1.8 0.8,2.7 2.3,2.7c1.5,0 2.3,-0.9 2.3,-2.7l0,-5.1l1.7,0l0,5.2c0,1.3 -0.4,2.3 -1,3.1c-0.7,0.7 -1.7,1.1 -3,1.1c-1.3,-0.1 -2.2,-0.4 -2.9,-1.2z" class="st0"/>
      <path fill="#FFFFFF" d="m362.1,314c-0.7,-0.2 -1.2,-0.4 -1.6,-0.8l0.6,-1.3c0.4,0.3 0.8,0.5 1.4,0.7s1.1,0.3 1.7,0.3c0.7,0 1.2,-0.1 1.5,-0.3c0.4,-0.2 0.5,-0.5 0.5,-0.9c0,-0.3 -0.1,-0.5 -0.3,-0.7c-0.2,-0.1 -0.4,-0.3 -0.7,-0.4s-0.7,-0.2 -1.2,-0.4c-0.7,-0.1 -1.2,-0.4 -1.7,-0.5c-0.4,-0.1 -0.8,-0.4 -1.1,-0.8s-0.4,-0.8 -0.4,-1.5c0,-0.5 0.1,-0.9 0.4,-1.4c0.3,-0.4 0.7,-0.7 1.2,-1c0.6,-0.2 1.2,-0.4 2,-0.4c0.6,0 1.1,0.1 1.7,0.2c0.5,0.1 1,0.4 1.4,0.6l-0.5,1.3c-0.4,-0.2 -0.8,-0.4 -1.2,-0.5c-0.4,-0.1 -0.9,-0.2 -1.2,-0.2c-0.7,0 -1.2,0.1 -1.5,0.4c-0.4,0.2 -0.5,0.5 -0.5,0.9c0,0.3 0.1,0.5 0.3,0.7c0.2,0.1 0.4,0.3 0.7,0.4c0.3,0.1 0.7,0.2 1.2,0.4c0.7,0.1 1.2,0.3 1.7,0.5c0.4,0.1 0.8,0.4 1.1,0.8s0.4,0.8 0.4,1.4c0,0.5 -0.1,0.9 -0.4,1.4c-0.3,0.4 -0.7,0.7 -1.2,0.9c-0.6,0.2 -1.2,0.4 -2,0.4c-1,0.1 -1.6,0 -2.3,-0.2z" class="st0"/>
      <path fill="#FFFFFF" d="m371.5,306.4l-3.1,0l0,-1.4l7.8,0l0,1.5l-3.1,0l0,7.7l-1.7,0l0,-7.8l0.1,0z" class="st0"/>
      <path fill="#FFFFFF" d="m384.5,312.7l0,1.5l-6.9,0l0,-9.2l6.7,0l0,1.5l-5,0l0,2.4l4.5,0l0,1.4l-4.5,0l0,2.6l5.2,-0.2l0,0z" class="st0"/>
      <path fill="#FFFFFF" d="m386.6,305l1.7,0l0,9.2l-1.7,0l0,-9.2z" class="st0"/>
      <path fill="#FFFFFF" d="m399.1,305l0,9.2l-1.4,0l-5,-6.2l0,6.2l-1.8,0l0,-9.2l1.4,0l5,6.2l0,-6.2l1.8,0z" class="st0"/>
      <path fill="#FFFFFF" d="m408.6,312.7l0,1.5l-6.9,0l0,-9.2l6.7,0l0,1.5l-5,0l0,2.4l4.5,0l0,1.4l-4.5,0l0,2.6l5.2,-0.2l0,0z" class="st0"/>
     </g>
    </g>
    <g>
     <g>
      <polygon points="274.70001220703125,414.5 365,466.70001220703125 365,362.6000061035156 274.70001220703125,310.20001220703125 " fill="#3278C8" class="st1" id="svg_14"/>
     </g>
     <g enable-background="new" class="st2">
      <path fill="#FFFFFF" d="m292.2,378.7l-3.1,0l0,-1.5l8.1,0l0,1.5l-3.1,0l0,8l-1.8,0l-0.1,-8l0,0z" class="st0"/>
      <path fill="#FFFFFF" d="m300.3,386.3c-0.8,-0.4 -1.4,-1 -1.9,-1.8s-0.6,-1.6 -0.6,-2.5c0,-0.9 0.2,-1.8 0.6,-2.5c0.5,-0.7 1,-1.4 1.9,-1.8s1.7,-0.6 2.7,-0.6s1.9,0.2 2.7,0.6s1.4,1 1.9,1.8c0.5,0.7 0.6,1.6 0.6,2.5c0,1 -0.2,1.8 -0.6,2.5c-0.5,0.7 -1,1.4 -1.9,1.8c-0.8,0.4 -1.7,0.6 -2.7,0.6s-1.8,-0.2 -2.7,-0.6zm4.4,-1.4c0.5,-0.3 0.9,-0.7 1.2,-1.2s0.4,-1.1 0.4,-1.8c0,-0.6 -0.2,-1.2 -0.4,-1.8c-0.3,-0.5 -0.7,-0.9 -1.2,-1.2c-0.5,-0.3 -1,-0.4 -1.7,-0.4c-0.6,0 -1.2,0.2 -1.7,0.4c-0.5,0.3 -0.9,0.7 -1.2,1.2c-0.3,0.5 -0.4,1.1 -0.4,1.8c0,0.6 0.2,1.2 0.4,1.8c0.3,0.5 0.7,0.9 1.2,1.2c0.5,0.3 1,0.4 1.7,0.4c0.6,0.1 1.2,0 1.7,-0.4z" class="st0"/>
      <path fill="#FFFFFF" d="m312,386.3c-0.8,-0.4 -1.4,-1 -1.9,-1.8s-0.6,-1.6 -0.6,-2.5c0,-0.9 0.2,-1.8 0.6,-2.5c0.5,-0.7 1,-1.4 1.9,-1.8s1.7,-0.6 2.7,-0.6s1.9,0.2 2.7,0.6s1.4,1 1.9,1.8c0.5,0.7 0.6,1.6 0.6,2.5c0,1 -0.2,1.8 -0.6,2.5c-0.5,0.7 -1,1.4 -1.9,1.8c-0.8,0.4 -1.7,0.6 -2.7,0.6s-1.9,-0.2 -2.7,-0.6zm4.4,-1.4c0.5,-0.3 0.9,-0.7 1.2,-1.2s0.4,-1.1 0.4,-1.8c0,-0.6 -0.2,-1.2 -0.4,-1.8c-0.3,-0.5 -0.7,-0.9 -1.2,-1.2c-0.5,-0.3 -1,-0.4 -1.7,-0.4c-0.6,0 -1.2,0.2 -1.7,0.4c-0.5,0.3 -0.9,0.7 -1.2,1.2c-0.3,0.5 -0.4,1.1 -0.4,1.8c0,0.6 0.2,1.2 0.4,1.8c0.3,0.5 0.7,0.9 1.2,1.2c0.5,0.3 1,0.4 1.7,0.4c0.6,0.1 1.2,0 1.7,-0.4z" class="st0"/>
      <path fill="#FFFFFF" d="m321.8,377.2l1.8,0l0,8l5,0l0,1.5l-6.8,0l0,-9.5l0,0z" class="st0"/>
      <path fill="#FFFFFF" d="m330.9,386.6c-0.7,-0.2 -1.2,-0.5 -1.6,-0.8l0.6,-1.4c0.4,0.3 0.9,0.6 1.4,0.7c0.6,0.2 1.1,0.3 1.7,0.3c0.7,0 1.2,-0.1 1.6,-0.3c0.3,-0.2 0.6,-0.6 0.6,-0.9c0,-0.2 -0.1,-0.5 -0.3,-0.6c-0.2,-0.2 -0.5,-0.3 -0.7,-0.4c-0.3,-0.1 -0.7,-0.2 -1.2,-0.3c-0.7,-0.2 -1.3,-0.3 -1.8,-0.5c-0.5,-0.2 -0.8,-0.5 -1.1,-0.8c-0.3,-0.4 -0.5,-0.9 -0.5,-1.5c0,-0.6 0.2,-1 0.4,-1.4c0.3,-0.4 0.7,-0.8 1.3,-1c0.6,-0.2 1.3,-0.4 2.1,-0.4c0.6,0 1.1,0.1 1.7,0.2c0.6,0.2 1,0.3 1.4,0.6l-0.6,1.4c-0.4,-0.2 -0.9,-0.4 -1.3,-0.6c-0.5,-0.2 -0.9,-0.2 -1.3,-0.2c-0.7,0 -1.2,0.1 -1.5,0.3c-0.3,0.2 -0.5,0.6 -0.5,1c0,0.2 0.1,0.5 0.3,0.6c0.2,0.2 0.5,0.3 0.7,0.4c0.3,0.1 0.7,0.2 1.2,0.3c0.7,0.2 1.3,0.3 1.8,0.5c0.5,0.2 0.9,0.5 1.2,0.8c0.3,0.4 0.5,0.9 0.5,1.4s-0.2,1 -0.4,1.4c-0.3,0.4 -0.7,0.8 -1.3,1c-0.6,0.2 -1.3,0.4 -2.2,0.4c-0.8,0.2 -1.5,0.1 -2.2,-0.2z" class="st0"/>
      <path fill="#FFFFFF" d="m283.3,393.6l-3.3,0l0,-1.6l8.3,0l0,1.5l-3.3,0l0,8.3l-1.8,0l0,-8.2l0.1,0z" class="st0"/>
      <path fill="#FFFFFF" d="m290.5,400.8c-0.8,-0.8 -1.1,-1.9 -1.1,-3.3l0,-5.5l1.8,0l0,5.5c0,1.9 0.8,2.9 2.5,2.9c1.7,0 2.5,-1 2.5,-2.9l0,-5.5l1.8,0l0,5.5c0,1.4 -0.4,2.5 -1.1,3.3c-0.8,0.8 -1.8,1.1 -3.2,1.1s-2.4,-0.3 -3.2,-1.1z" class="st0"/>
      <path fill="#FFFFFF" d="m302.2,393.6l-3.3,0l0,-1.6l8.3,0l0,1.5l-3.3,0l0,8.3l-1.8,0l0,-8.2l0.1,0z" class="st0"/>
      <path fill="#FFFFFF" d="m310.3,401.3c-0.8,-0.4 -1.4,-1 -1.9,-1.8c-0.5,-0.8 -0.7,-1.6 -0.7,-2.6s0.2,-1.8 0.7,-2.6c0.5,-0.8 1.1,-1.4 1.9,-1.8s1.7,-0.7 2.7,-0.7s1.9,0.2 2.7,0.7c0.8,0.4 1.4,1 1.9,1.8c0.5,0.8 0.7,1.6 0.7,2.6c0,1 -0.2,1.8 -0.7,2.6c-0.5,0.8 -1.1,1.4 -1.9,1.8c-0.8,0.4 -1.7,0.7 -2.7,0.7s-1.9,-0.2 -2.7,-0.7zm4.5,-1.4c0.5,-0.3 0.9,-0.7 1.2,-1.2c0.3,-0.5 0.4,-1.1 0.4,-1.8c0,-0.7 -0.1,-1.2 -0.4,-1.8c-0.3,-0.5 -0.7,-0.9 -1.2,-1.2c-0.5,-0.3 -1.1,-0.4 -1.8,-0.4c-0.7,0 -1.2,0.1 -1.8,0.4c-0.5,0.3 -0.9,0.7 -1.2,1.2c-0.3,0.5 -0.4,1.1 -0.4,1.8c0,0.7 0.1,1.2 0.4,1.8c0.3,0.5 0.7,0.9 1.2,1.2c0.5,0.3 1.1,0.4 1.8,0.4c0.7,0.1 1.3,-0.1 1.8,-0.4z" class="st0"/>
      <path fill="#FFFFFF" d="m325.9,401.8l-2,-2.9c-0.1,0 -0.2,0 -0.4,0l-2.2,0l0,2.9l-1.8,0l0,-9.8l4,0c0.9,0 1.6,0.1 2.2,0.4c0.6,0.3 1.1,0.7 1.5,1.2s0.5,1.1 0.5,1.9c0,0.7 -0.2,1.4 -0.5,1.9c-0.4,0.5 -0.9,0.9 -1.5,1.2l2.3,3.2l-2.1,0zm-0.6,-7.7c-0.4,-0.3 -1,-0.5 -1.8,-0.5l-2.1,0l0,3.9l2.1,0c0.8,0 1.4,-0.2 1.8,-0.5c0.4,-0.3 0.6,-0.8 0.6,-1.5s-0.2,-1.1 -0.6,-1.4z" class="st0"/>
      <path fill="#FFFFFF" d="m329.7,392l1.8,0l0,9.8l-1.8,0l0,-9.8z" class="st0"/>
      <path fill="#FFFFFF" d="m340.4,399.6l-4.9,0l-1,2.3l-1.8,0l4.4,-9.8l1.8,0l4.4,9.8l-1.9,0l-1,-2.3zm-0.6,-1.5l-1.9,-4.3l-1.8,4.3l3.7,0z" class="st0"/>
      <path fill="#FFFFFF" d="m344.5,392l1.8,0l0,8.3l5.1,0l0,1.5l-7,0l0,-9.8l0.1,0z" class="st0"/>
      <path fill="#FFFFFF" d="m353.6,401.6c-0.7,-0.2 -1.3,-0.5 -1.7,-0.9l0.6,-1.4c0.4,0.3 0.9,0.6 1.5,0.8s1.2,0.3 1.8,0.3c0.7,0 1.3,-0.1 1.6,-0.3c0.4,-0.2 0.5,-0.5 0.5,-0.9c0,-0.3 -0.1,-0.5 -0.3,-0.7c-0.2,-0.2 -0.5,-0.3 -0.8,-0.4c-0.3,-0.1 -0.7,-0.2 -1.3,-0.4c-0.7,-0.2 -1.4,-0.4 -1.8,-0.5c-0.5,-0.2 -0.9,-0.5 -1.2,-0.8c-0.3,-0.4 -0.5,-0.9 -0.5,-1.5c0,-0.5 0.1,-1 0.4,-1.5c0.3,-0.4 0.7,-0.8 1.3,-1.1c0.6,-0.3 1.3,-0.4 2.2,-0.4c0.6,0 1.2,0.1 1.8,0.2c0.6,0.1 1.1,0.4 1.5,0.6l-0.6,1.4c-0.4,-0.3 -0.9,-0.4 -1.3,-0.6s-0.9,-0.2 -1.4,-0.2c-0.7,0 -1.3,0.1 -1.6,0.4s-0.5,0.6 -0.5,1c0,0.3 0.1,0.5 0.3,0.7c0.2,0.2 0.5,0.3 0.8,0.4c0.3,0.1 0.7,0.2 1.3,0.4c0.7,0.2 1.3,0.3 1.8,0.5s0.9,0.5 1.2,0.8c0.3,0.4 0.5,0.9 0.5,1.5c0,0.5 -0.1,1 -0.4,1.5c-0.3,0.4 -0.7,0.8 -1.3,1.1c-0.6,0.3 -1.3,0.4 -2.2,0.4c-0.8,0 -1.5,-0.1 -2.2,-0.4z" class="st0"/>
      <path fill="#FFFFFF" d="m349.4,387.2l-1.2,-1.2c-0.9,0.8 -2,1.2 -3.3,1.2c-0.7,0 -1.3,-0.1 -1.8,-0.3c-0.5,-0.2 -1,-0.5 -1.3,-0.9c-0.3,-0.4 -0.5,-0.8 -0.5,-1.4c0,-0.6 0.2,-1.1 0.5,-1.6c0.4,-0.5 0.9,-0.9 1.7,-1.4c-0.4,-0.4 -0.7,-0.8 -0.8,-1.1c-0.2,-0.3 -0.3,-0.7 -0.3,-1.1c0,-0.7 0.3,-1.2 0.8,-1.7c0.5,-0.4 1.2,-0.6 2.1,-0.6c0.8,0 1.4,0.2 1.9,0.6c0.5,0.4 0.7,0.9 0.7,1.6c0,0.5 -0.2,1 -0.5,1.3c-0.3,0.4 -0.8,0.8 -1.5,1.2l2.1,2c0.2,-0.5 0.4,-1 0.5,-1.7l1.4,0.5c-0.2,0.9 -0.5,1.6 -0.9,2.2l1.2,1.2l-0.8,1.2zm-2.3,-2.2l-2.6,-2.5c-0.6,0.3 -1,0.6 -1.2,0.9c-0.2,0.3 -0.3,0.6 -0.3,1c0,0.4 0.2,0.7 0.5,1c0.4,0.3 0.8,0.4 1.4,0.4c0.9,-0.1 1.6,-0.3 2.2,-0.8zm-2.7,-6.4c-0.2,0.2 -0.3,0.4 -0.3,0.8c0,0.2 0.1,0.4 0.2,0.6c0.1,0.2 0.4,0.5 0.7,0.8c0.6,-0.3 1,-0.6 1.2,-0.8c0.2,-0.2 0.3,-0.5 0.3,-0.7c0,-0.3 -0.1,-0.5 -0.3,-0.7s-0.5,-0.3 -0.8,-0.3c-0.5,0.1 -0.8,0.2 -1,0.3z" class="st0"/>
     </g>
    </g>
    <g>
     <g>
      <polygon points="375.8000183105469,466.70001220703125 466.20001220703125,414.5 466.20001220703125,310.20001220703125 375.8000183105469,362.6000061035156 " fill="#D2AA6E" class="st1" id="svg_13"/>
     </g>
     <g enable-background="new" class="st2">
      <path fill="#FFFFFF" d="m392.3,385.2l-3.2,0l0,-1.6l8.4,0l0,1.6l-3.2,0l0,8.3l-1.8,0l-0.2,-8.3l0,0z" class="st0"/>
      <path fill="#FFFFFF" d="m405.3,393.5l-2,-2.9c-0.1,0 -0.2,0 -0.4,0l-2.2,0l0,2.9l-1.8,0l0,-9.8l4.1,0c0.8,0 1.6,0.2 2.2,0.4c0.7,0.2 1.2,0.7 1.5,1.2c0.3,0.5 0.5,1.2 0.5,1.9c0,0.7 -0.2,1.4 -0.6,1.9c-0.3,0.5 -0.9,0.9 -1.6,1.2l2.2,3.2l-1.9,0l0,0zm-0.6,-7.8c-0.4,-0.3 -1,-0.5 -1.8,-0.5l-2.2,0l0,3.9l2.1,0c0.8,0 1.4,-0.2 1.8,-0.5c0.4,-0.3 0.6,-0.8 0.6,-1.5c0.1,-0.6 -0.1,-1.1 -0.5,-1.4z" class="st0"/>
      <path fill="#FFFFFF" d="m416.7,392l0,1.6l-7.4,0l0,-9.8l7.2,0l0,1.6l-5.4,0l0,2.6l4.7,0l0,1.5l-4.7,0l0,2.7l5.6,-0.2l0,0z" class="st0"/>
      <path fill="#FFFFFF" d="m427.6,383.6l0,9.8l-1.5,0l-5.5,-6.7l0,6.7l-1.8,0l0,-9.8l1.5,0l5.5,6.7l0,-6.7l1.8,0z" class="st0"/>
      <path fill="#FFFFFF" d="m430.5,383.6l4.3,0c1.1,0 2,0.2 2.8,0.6c0.8,0.4 1.5,1 1.9,1.7c0.4,0.7 0.7,1.6 0.7,2.6s-0.2,1.8 -0.7,2.6c-0.4,0.7 -1.1,1.3 -1.9,1.7c-0.8,0.4 -1.7,0.6 -2.8,0.6l-4.3,0l0,-9.8zm4.2,8.3c0.7,0 1.3,-0.2 1.9,-0.4c0.6,-0.2 1,-0.7 1.2,-1.2c0.3,-0.5 0.4,-1.1 0.4,-1.8c0,-0.7 -0.2,-1.2 -0.4,-1.8c-0.3,-0.5 -0.7,-0.9 -1.2,-1.2c-0.6,-0.2 -1.2,-0.4 -1.9,-0.4l-2.4,0l0,6.8l2.4,0l0,0z" class="st0"/>
      <path fill="#FFFFFF" d="m443,393.3c-0.7,-0.2 -1.2,-0.5 -1.7,-0.8l0.7,-1.4c0.4,0.3 0.9,0.6 1.5,0.7c0.6,0.2 1.2,0.3 1.7,0.3c0.7,0 1.2,-0.1 1.7,-0.3c0.4,-0.2 0.6,-0.6 0.6,-0.9c0,-0.2 -0.1,-0.5 -0.3,-0.7c-0.2,-0.2 -0.5,-0.3 -0.7,-0.4c-0.3,-0.1 -0.7,-0.2 -1.2,-0.3c-0.7,-0.2 -1.3,-0.3 -1.8,-0.5c-0.5,-0.2 -0.8,-0.5 -1.2,-0.8s-0.5,-0.9 -0.5,-1.6c0,-0.6 0.2,-1.1 0.4,-1.5c0.3,-0.4 0.7,-0.8 1.3,-1.1c0.6,-0.2 1.3,-0.4 2.1,-0.4c0.6,0 1.2,0.1 1.7,0.2c0.6,0.2 1.1,0.3 1.5,0.7l-0.6,1.4c-0.4,-0.2 -0.9,-0.4 -1.3,-0.6c-0.5,-0.2 -0.9,-0.2 -1.3,-0.2c-0.7,0 -1.2,0.1 -1.6,0.3c-0.3,0.2 -0.5,0.6 -0.5,1c0,0.2 0.1,0.5 0.3,0.7c0.2,0.2 0.5,0.3 0.7,0.4c0.3,0.1 0.7,0.2 1.2,0.3c0.7,0.2 1.3,0.3 1.8,0.5s0.9,0.5 1.2,0.8s0.5,0.9 0.5,1.5c0,0.6 -0.2,1.1 -0.4,1.5c-0.3,0.4 -0.7,0.8 -1.3,1.1c-0.6,0.2 -1.3,0.4 -2.2,0.4c-0.9,0 -1.6,-0.1 -2.3,-0.3z" class="st0"/>
     </g>
    </g>
    <g>
     <g>
      <polygon points="376.9000244140625,635.2999572753906 399.1000061035156,648.1000061035156 492.3999938964844,701.9000549316406 607.8999938964844,635.2999572753906 607.8999938964844,501.8999938964844 492.3999938964844,435.20001220703125 394,492.1000061035156 376.9000244140625,501.8999938964844 " class="st5" fill="#00232D" id="svg_12"/>
      <path fill="#FFFFFF" d="m511.2,497.5l0,-8c0,-8.6 -7,-15.4 -15.4,-15.4l-6.6,0c-8.6,0 -15.4,7 -15.4,15.4l0,8c-2,1 -3.3,2.9 -3.3,5.2l0,24.4c0,3.1 2.5,5.7 5.7,5.7l32.8,0c3.1,0 5.7,-2.5 5.7,-5.7l0,-24.4c-0.1,-2.3 -1.6,-4.2 -3.5,-5.2zm-16.7,19.3l0,4.8l-4.1,0l0,-4.8c-2,-0.8 -3.4,-2.8 -3.4,-5.1c0,-3 2.4,-5.5 5.5,-5.5s5.5,2.4 5.5,5.5c0,2.4 -1.5,4.4 -3.5,5.1zm10.8,-19.9l-25.7,0l0,-6.2c0,-5.5 4.5,-10 10,-10l5.6,0c5.5,0 10,4.5 10,10l0,6.2l0.1,0z" class="st0"/>
      <g enable-background="new" class="st2">
       <path fill="#FFFFFF" d="m427.4,577.2c-1.1,-0.3 -2,-0.8 -2.5,-1.3l1,-2.1c0.6,0.5 1.4,0.9 2.2,1.2c0.9,0.3 1.8,0.5 2.7,0.5c1.1,0 2,-0.2 2.5,-0.5c0.6,-0.4 0.8,-0.9 0.8,-1.5c0,-0.4 -0.2,-0.8 -0.5,-1.1c-0.3,-0.3 -0.7,-0.5 -1.2,-0.7c-0.5,-0.2 -1.1,-0.3 -2,-0.5c-1.2,-0.3 -2,-0.6 -2.7,-0.8s-1.3,-0.7 -1.9,-1.3c-0.5,-0.6 -0.8,-1.4 -0.8,-2.3c0,-0.8 0.2,-1.6 0.7,-2.2s1.2,-1.2 2,-1.7c0.9,-0.4 2,-0.6 3.3,-0.6c0.9,0 1.9,0.1 2.7,0.4c0.9,0.2 1.7,0.6 2.3,1l-0.9,2.1c-0.7,-0.4 -1.4,-0.7 -2,-0.9c-0.7,-0.2 -1.4,-0.3 -2,-0.3c-1.1,0 -2,0.2 -2.4,0.6c-0.5,0.4 -0.8,0.9 -0.8,1.5c0,0.4 0.2,0.8 0.5,1.1c0.3,0.3 0.7,0.5 1.2,0.7c0.5,0.2 1.1,0.3 2,0.5c1.1,0.3 2,0.5 2.7,0.8s1.4,0.7 1.9,1.3c0.5,0.6 0.8,1.4 0.8,2.3c0,0.9 -0.2,1.6 -0.7,2.2s-1.2,1.2 -2,1.6c-0.9,0.4 -2,0.6 -3.3,0.6c-1.4,-0.1 -2.5,-0.3 -3.6,-0.6z" class="st0"/>
       <path fill="#FFFFFF" d="m442,576.9c-1,-0.5 -1.7,-1.2 -2.2,-2c-0.5,-0.9 -0.8,-2 -0.8,-3c0,-1.2 0.3,-2.1 0.8,-3c0.5,-0.9 1.3,-1.6 2.2,-2c1,-0.5 2,-0.8 3.2,-0.8s2.1,0.2 2.9,0.7c0.9,0.5 1.5,1.1 2,2l-2,1.2c-0.3,-0.5 -0.8,-0.9 -1.3,-1.2c-0.5,-0.3 -1.1,-0.4 -1.7,-0.4c-1,0 -1.9,0.3 -2.5,1c-0.7,0.7 -1,1.6 -1,2.6c0,1.1 0.3,2 1,2.6c0.7,0.7 1.5,1 2.5,1c0.6,0 1.2,-0.1 1.7,-0.4c0.5,-0.3 0.9,-0.7 1.3,-1.2l2,1.2c-0.5,0.9 -1.1,1.6 -2,2c-0.9,0.5 -1.9,0.7 -2.9,0.7c-1.3,-0.3 -2.3,-0.5 -3.2,-1z" class="st0"/>
       <path fill="#FFFFFF" d="m462.8,567.2c0.9,0.9 1.3,2 1.3,3.7l0,6.5l-2.7,0l0,-6.2c0,-1 -0.2,-1.8 -0.7,-2.2c-0.5,-0.5 -1.2,-0.8 -2,-0.8c-1,0 -1.8,0.3 -2.3,0.9c-0.6,0.6 -0.9,1.5 -0.9,2.5l0,5.8l-2.7,0l0,-15.9l2.7,0l0,5.8c0.5,-0.5 1,-0.9 1.7,-1.1c0.7,-0.3 1.4,-0.4 2.1,-0.4c1.4,0.1 2.6,0.5 3.5,1.4z" class="st0"/>
       <path fill="#FFFFFF" d="m479.1,566l0,11.4l-2.5,0l0,-1.4c-0.4,0.5 -1,0.9 -1.7,1.2c-0.7,0.3 -1.4,0.4 -2,0.4c-1.6,0 -2.7,-0.4 -3.6,-1.3c-0.9,-0.9 -1.4,-2.1 -1.4,-3.8l0,-6.5l2.7,0l0,6.1c0,1.1 0.2,1.8 0.7,2.3c0.5,0.5 1.2,0.8 2,0.8c1,0 1.8,-0.3 2.2,-0.9c0.6,-0.6 0.9,-1.5 0.9,-2.5l0,-5.8l2.7,0zm-8.5,-2.1c-0.2,-0.2 -0.4,-0.6 -0.4,-0.9c0,-0.4 0.1,-0.7 0.4,-1c0.2,-0.2 0.6,-0.4 0.9,-0.4c0.4,0 0.7,0.1 0.9,0.4c0.2,0.3 0.4,0.6 0.4,1c0,0.4 -0.1,0.7 -0.4,0.9s-0.6,0.4 -0.9,0.4c-0.5,0 -0.7,-0.1 -0.9,-0.4zm4.1,0c-0.2,-0.2 -0.4,-0.6 -0.4,-0.9c0,-0.4 0.1,-0.7 0.4,-1c0.3,-0.3 0.6,-0.4 0.9,-0.4c0.4,0 0.7,0.1 0.9,0.4c0.2,0.2 0.4,0.6 0.4,1c0,0.4 -0.1,0.7 -0.4,0.9c-0.2,0.2 -0.6,0.4 -0.9,0.4s-0.6,-0.1 -0.9,-0.4z" class="st0"/>
       <path fill="#FFFFFF" d="m490.1,576.9c-0.3,0.3 -0.7,0.5 -1.2,0.6c-0.5,0.1 -1,0.2 -1.5,0.2c-1.3,0 -2.2,-0.3 -2.9,-1c-0.7,-0.7 -1.1,-1.7 -1.1,-2.8l0,-5.6l-1.9,0l0,-2.1l1.9,0l0,-2.6l2.7,0l0,2.6l3,0l0,2.1l-3,0l0,5.5c0,0.6 0.1,1 0.4,1.3s0.7,0.5 1.2,0.5c0.6,0 1.1,-0.2 1.5,-0.5l0.9,1.8z" class="st0"/>
       <path fill="#FFFFFF" d="m501.8,575.4l0,2.1l-9.9,0l0,-1.7l6.2,-7.6l-6.1,0l0,-2.1l9.6,0l0,1.7l-6.3,7.6l6.5,0z" class="st0"/>
       <path fill="#FFFFFF" d="m515.3,572.6l-9,0c0.2,0.9 0.6,1.6 1.3,2c0.7,0.5 1.5,0.8 2.4,0.8c1.3,0 2.3,-0.4 3.1,-1.3l1.5,1.7c-0.5,0.6 -1.2,1.1 -2,1.4c-0.8,0.3 -1.7,0.5 -2.6,0.5c-1.3,0 -2.3,-0.3 -3.3,-0.8c-1,-0.5 -1.7,-1.2 -2.2,-2c-0.6,-0.9 -0.8,-2 -0.8,-3c0,-1.1 0.3,-2.1 0.8,-3c0.5,-0.9 1.2,-1.6 2.1,-2c0.9,-0.5 2,-0.8 3,-0.8c1.1,0 2.1,0.3 3,0.8s1.6,1.2 2,2s0.8,2 0.8,3.1c-0.1,0.1 -0.1,0.3 -0.1,0.6zm-7.9,-3.8c-0.6,0.5 -1,1.2 -1.1,2l6.5,0c-0.1,-0.9 -0.5,-1.5 -1.1,-2c-0.6,-0.5 -1.3,-0.8 -2.1,-0.8c-0.9,0.1 -1.6,0.3 -2.2,0.8z" class="st0"/>
       <path fill="#FFFFFF" d="m528.5,567.2c0.9,0.9 1.3,2 1.3,3.7l0,6.5l-2.7,0l0,-6.2c0,-1 -0.2,-1.8 -0.7,-2.2c-0.5,-0.5 -1.2,-0.8 -2,-0.8c-1,0 -1.8,0.3 -2.3,0.9c-0.6,0.6 -0.9,1.5 -0.9,2.5l0,5.8l-2.7,0l0,-11.4l2.5,0l0,1.5c0.5,-0.5 1,-1 1.7,-1.2c0.7,-0.3 1.5,-0.4 2.2,-0.4c1.6,0 2.7,0.4 3.6,1.3z" class="st0"/>
       <path fill="#FFFFFF" d="m551.7,577.7l-1.9,-1.9c-1.4,1.2 -3.1,1.8 -5.1,1.8c-1.1,0 -2,-0.2 -2.8,-0.5c-0.9,-0.4 -1.5,-0.8 -2,-1.5c-0.5,-0.6 -0.7,-1.3 -0.7,-2c0,-1 0.3,-1.8 0.8,-2.4c0.6,-0.7 1.5,-1.4 2.6,-2c-0.6,-0.6 -1.1,-1.2 -1.3,-1.7c-0.3,-0.5 -0.4,-1.1 -0.4,-1.7c0,-1.1 0.4,-2 1.2,-2.5c0.8,-0.7 1.9,-1 3.1,-1c1.2,0 2.1,0.3 2.9,0.9s1.1,1.4 1.1,2.4c0,0.8 -0.2,1.5 -0.7,2s-1.3,1.2 -2.3,1.9l3.2,3.1c0.4,-0.7 0.7,-1.6 0.9,-2.5l2.1,0.7c-0.3,1.4 -0.8,2.4 -1.4,3.4l1.9,1.8l-1.2,1.7zm-3.5,-3.3l-4,-3.8c-0.9,0.5 -1.5,1 -1.9,1.4c-0.4,0.4 -0.5,0.9 -0.5,1.5s0.3,1.2 0.9,1.6c0.6,0.4 1.3,0.6 2.2,0.6c1.3,-0.1 2.4,-0.5 3.3,-1.3zm-4.2,-9.8c-0.4,0.3 -0.5,0.7 -0.5,1.2c0,0.4 0.1,0.7 0.3,1c0.2,0.3 0.6,0.7 1.1,1.3c0.9,-0.5 1.5,-0.9 1.8,-1.3c0.3,-0.4 0.5,-0.8 0.5,-1.2c0,-0.5 -0.2,-0.8 -0.5,-1.1c-0.3,-0.3 -0.8,-0.4 -1.3,-0.4c-0.5,0.2 -1,0.2 -1.4,0.5z" class="st0"/>
       <path fill="#FFFFFF" d="m411.1,603.7c-0.9,-0.2 -1.6,-0.6 -2.1,-0.9l1.1,-2c0.5,0.4 1.2,0.6 1.9,0.8s1.5,0.3 2.1,0.3c1.6,0 2.4,-0.4 2.4,-1.3c0,-0.4 -0.2,-0.7 -0.6,-0.9c-0.4,-0.2 -1.1,-0.3 -2,-0.5c-1,-0.1 -1.8,-0.3 -2.3,-0.5c-0.6,-0.2 -1.1,-0.5 -1.6,-1s-0.7,-1.1 -0.7,-2c0,-1.1 0.5,-2 1.4,-2.6s2.1,-1 3.7,-1c0.8,0 1.6,0.1 2.3,0.3s1.5,0.4 2,0.7l-1.1,2c-1,-0.6 -2,-0.9 -3.3,-0.9c-0.8,0 -1.4,0.1 -1.8,0.4s-0.6,0.6 -0.6,1c0,0.4 0.2,0.8 0.7,0.9c0.4,0.2 1.1,0.4 2,0.5c0.9,0.1 1.7,0.3 2.2,0.5c0.6,0.2 1.1,0.5 1.6,1c0.4,0.5 0.6,1.1 0.6,1.9c0,1.1 -0.5,2 -1.4,2.5c-1,0.7 -2.2,1 -3.8,1c-0.8,0.1 -1.8,0 -2.7,-0.2z" class="st0"/>
       <path fill="#FFFFFF" d="m422.1,590c-0.3,-0.3 -0.5,-0.7 -0.5,-1.2c0,-0.5 0.2,-0.9 0.5,-1.2c0.3,-0.3 0.8,-0.5 1.3,-0.5c0.5,0 0.9,0.2 1.3,0.5c0.3,0.3 0.5,0.7 0.5,1.1c0,0.5 -0.2,0.9 -0.5,1.2c-0.3,0.3 -0.8,0.5 -1.3,0.5c-0.6,0.1 -1,-0.1 -1.3,-0.4zm-0.1,2.4l2.7,0l0,11.4l-2.7,0l0,-11.4z" class="st0"/>
       <path fill="#FFFFFF" d="m430.8,603.3c-1,-0.5 -1.7,-1.2 -2.2,-2c-0.5,-0.9 -0.8,-2 -0.8,-3c0,-1.2 0.3,-2.1 0.8,-3c0.5,-0.9 1.3,-1.6 2.2,-2s2,-0.8 3.2,-0.8c1.2,0 2.1,0.2 2.9,0.7c0.9,0.5 1.5,1.1 2,2l-2,1.2c-0.3,-0.5 -0.8,-0.9 -1.3,-1.2c-0.5,-0.3 -1.1,-0.4 -1.7,-0.4c-1,0 -1.9,0.3 -2.5,1c-0.7,0.7 -1,1.6 -1,2.6c0,1.1 0.3,2 1,2.6c0.7,0.7 1.5,1 2.5,1c0.6,0 1.2,-0.1 1.7,-0.4c0.5,-0.3 0.9,-0.7 1.3,-1.2l2,1.2c-0.5,0.9 -1.1,1.6 -2,2c-0.9,0.5 -1.9,0.7 -2.9,0.7c-1.3,-0.3 -2.4,-0.5 -3.2,-1z" class="st0"/>
       <path fill="#FFFFFF" d="m451.5,593.5c0.9,0.9 1.3,2 1.3,3.7l0,6.5l-2.7,0l0,-6.2c0,-1 -0.2,-1.8 -0.7,-2.2c-0.5,-0.5 -1.2,-0.8 -2,-0.8c-1,0 -1.8,0.3 -2.3,0.9c-0.6,0.6 -0.9,1.5 -0.9,2.5l0,5.8l-2.7,0l0,-15.9l2.7,0l0,5.8c0.5,-0.5 1,-0.9 1.7,-1.1c0.7,-0.3 1.4,-0.4 2.1,-0.4c1.5,0.2 2.7,0.5 3.5,1.4z" class="st0"/>
       <path fill="#FFFFFF" d="m467.6,599l-9,0c0.2,0.9 0.6,1.6 1.3,2c0.7,0.5 1.5,0.8 2.4,0.8c1.3,0 2.3,-0.4 3.1,-1.3l1.5,1.7c-0.5,0.6 -1.2,1.1 -2,1.4c-0.8,0.3 -1.7,0.5 -2.6,0.5c-1.3,0 -2.3,-0.3 -3.3,-0.8c-1,-0.5 -1.7,-1.2 -2.2,-2c-0.6,-0.9 -0.8,-2 -0.8,-3c0,-1.1 0.3,-2.1 0.8,-3c0.5,-0.9 1.2,-1.6 2.1,-2c0.9,-0.5 2,-0.8 3,-0.8s2.1,0.3 3,0.8s1.6,1.2 2,2c0.5,0.9 0.8,2 0.8,3.1c0,0 -0.1,0.2 -0.1,0.6zm-7.9,-3.8c-0.6,0.5 -1,1.2 -1.1,2l6.5,0c-0.1,-0.9 -0.5,-1.5 -1.1,-2c-0.6,-0.5 -1.3,-0.8 -2.1,-0.8c-0.9,0 -1.6,0.3 -2.2,0.8z" class="st0"/>
       <path fill="#FFFFFF" d="m477.4,592.3l0,2.5c-0.2,0 -0.4,-0.1 -0.6,-0.1c-1.1,0 -1.9,0.3 -2.4,0.9c-0.6,0.6 -0.9,1.5 -0.9,2.6l0,5.6l-2.7,0l0,-11.4l2.5,0l0,1.7c0.9,-1.3 2.2,-1.8 4.1,-1.8z" class="st0"/>
       <path fill="#FFFFFF" d="m496.8,600.4l-7.5,0l-1.5,3.5l-2.8,0l6.7,-15l2.7,0l6.8,15l-2.9,0l-1.5,-3.5zm-0.9,-2.2l-2.8,-6.5l-2.8,6.5l5.6,0z" class="st0"/>
       <path fill="#FFFFFF" d="m514.7,592.4l0,9.8c0,4 -2,6 -6.1,6c-1.1,0 -2.1,-0.1 -3.1,-0.4c-1,-0.3 -1.8,-0.7 -2.4,-1.2l1.2,-2c0.5,0.4 1.2,0.8 1.9,1c0.8,0.3 1.6,0.4 2.3,0.4c1.3,0 2.1,-0.3 2.7,-0.9s0.9,-1.5 0.9,-2.6l0,-0.6c-0.5,0.5 -1,0.9 -1.7,1.2s-1.4,0.4 -2.1,0.4c-1.1,0 -2,-0.2 -2.9,-0.7c-0.9,-0.5 -1.6,-1.1 -2,-2c-0.5,-0.9 -0.8,-1.9 -0.8,-2.9c0,-1.1 0.3,-2 0.8,-2.9c0.5,-0.9 1.2,-1.5 2,-2c0.9,-0.5 1.9,-0.7 2.9,-0.7c0.9,0 1.6,0.1 2.2,0.4s1.3,0.7 1.7,1.3l0,-1.6l2.5,0l0,0zm-3.6,7.8c0.7,-0.6 1,-1.4 1,-2.3s-0.3,-1.8 -1,-2.3c-0.7,-0.6 -1.5,-0.9 -2.5,-0.9c-1.1,0 -1.9,0.3 -2.5,0.9c-0.7,0.6 -1,1.4 -1,2.3s0.3,1.8 1,2.3c0.7,0.6 1.5,0.9 2.5,0.9c1,-0.1 1.9,-0.4 2.5,-0.9z" class="st0"/>
       <path fill="#FFFFFF" d="m518.9,590c-0.3,-0.3 -0.5,-0.7 -0.5,-1.2c0,-0.5 0.2,-0.9 0.5,-1.2c0.3,-0.3 0.8,-0.5 1.3,-0.5s0.9,0.2 1.3,0.5c0.3,0.3 0.5,0.7 0.5,1.1c0,0.5 -0.2,0.9 -0.5,1.2c-0.3,0.3 -0.8,0.5 -1.3,0.5c-0.6,0.1 -1,-0.1 -1.3,-0.4zm-0.1,2.4l2.7,0l0,11.4l-2.7,0l0,-11.4z" class="st0"/>
       <path fill="#FFFFFF" d="m536.2,599l-9,0c0.2,0.9 0.6,1.6 1.3,2c0.7,0.5 1.5,0.8 2.4,0.8c1.3,0 2.3,-0.4 3.1,-1.3l1.5,1.7c-0.5,0.6 -1.2,1.1 -2,1.4c-0.8,0.3 -1.7,0.5 -2.6,0.5c-1.3,0 -2.3,-0.3 -3.3,-0.8c-1,-0.5 -1.7,-1.2 -2.2,-2c-0.6,-0.9 -0.8,-2 -0.8,-3c0,-1.1 0.3,-2.1 0.8,-3c0.5,-0.9 1.2,-1.6 2.1,-2c0.9,-0.5 2,-0.8 3,-0.8c1.1,0 2.1,0.3 3,0.8s1.6,1.2 2,2c0.5,0.9 0.8,2 0.8,3.1c-0.1,0 -0.1,0.2 -0.1,0.6zm-7.9,-3.8c-0.6,0.5 -1,1.2 -1.1,2l6.5,0c-0.1,-0.9 -0.5,-1.5 -1.1,-2c-0.6,-0.5 -1.3,-0.8 -2.1,-0.8c-0.9,0 -1.6,0.3 -2.2,0.8z" class="st0"/>
       <path fill="#FFFFFF" d="m546,592.3l0,2.5c-0.2,0 -0.4,-0.1 -0.6,-0.1c-1.1,0 -1.9,0.3 -2.4,0.9c-0.6,0.6 -0.9,1.5 -0.9,2.6l0,5.6l-2.7,0l0,-11.4l2.5,0l0,1.7c0.8,-1.3 2.1,-1.8 4.1,-1.8z" class="st0"/>
       <path fill="#FFFFFF" d="m559.4,599l-9,0c0.2,0.9 0.6,1.6 1.3,2c0.7,0.5 1.5,0.8 2.4,0.8c1.3,0 2.3,-0.4 3.1,-1.3l1.5,1.7c-0.5,0.6 -1.2,1.1 -2,1.4c-0.8,0.3 -1.7,0.5 -2.6,0.5c-1.3,0 -2.3,-0.3 -3.3,-0.8c-1,-0.5 -1.7,-1.2 -2.2,-2c-0.5,-0.9 -0.8,-2 -0.8,-3c0,-1.1 0.3,-2.1 0.8,-3c0.5,-0.9 1.2,-1.6 2.1,-2c0.9,-0.5 2,-0.8 3,-0.8c1.1,0 2.1,0.3 3,0.8s1.6,1.2 2,2c0.5,0.9 0.8,2 0.8,3.1c0,0 -0.1,0.2 -0.1,0.6zm-7.9,-3.8c-0.6,0.5 -1,1.2 -1.1,2l6.5,0c-0.1,-0.9 -0.5,-1.5 -1.1,-2c-0.6,-0.5 -1.3,-0.8 -2.1,-0.8c-0.9,0 -1.6,0.3 -2.2,0.8z" class="st0"/>
       <path fill="#FFFFFF" d="m572.6,593.5c0.9,0.9 1.3,2 1.3,3.7l0,6.5l-2.7,0l0,-6.2c0,-1 -0.2,-1.8 -0.7,-2.2c-0.5,-0.5 -1.2,-0.8 -2,-0.8c-1,0 -1.8,0.3 -2.3,0.9c-0.6,0.6 -0.9,1.5 -0.9,2.5l0,5.8l-2.7,0l0,-11.4l2.5,0l0,1.5c0.5,-0.5 1,-1 1.7,-1.2s1.5,-0.4 2.2,-0.4c1.6,0.1 2.7,0.4 3.6,1.3z" class="st0"/>
      </g>
     </g>
     <g>
      <polygon points="364.70001220703125,80.5999984741211 249.20001220703125,13.89999771118164 133.6999969482422,80.5999984741211 133.6999969482422,214 249.20001220703125,280.70001220703125 348.6000061035156,223.3000030517578 364.70001220703125,214 " fill="#00232D" class="st5" id="svg_11"/>
      <g>
       <path fill="#FFFFFF" d="m268.6,64.1l-23.4,0l-2.6,-3.1l-17.2,0l0,5.2l-2,0l0,8.8l0.1,0c0,0.3 -0.1,0.6 -0.1,0.8l0,24.9c0,3.6 2.8,6.4 6.4,6.4l32,0l-3.2,-3.3l-1.2,-1.2c-3.4,1.6 -7.4,1.3 -10.5,-0.8c-0.8,-0.5 -1.4,-1 -2,-1.7c-2,-2.1 -3.1,-4.9 -3.1,-7.9c0.1,-2.9 1.3,-5.8 3.3,-7.8c4.4,-4.3 11.5,-4.2 15.7,0.3c3.3,3.3 4,8.5 1.9,12.7l4.3,4.4l1.8,1.9l1.4,1.5c0.7,-0.7 1.1,-1.3 1.5,-2.1c2.6,-1.2 4.4,-3.8 4.4,-6.7l0,-25c-0.1,-4.1 -3.3,-7.3 -7.5,-7.3zm5.6,32.4c0,1.8 -0.8,3.2 -2,4.3l0,-25c0,-3.6 -2.8,-6.4 -6.4,-6.4l-23.8,0l-2.6,-3.1l-12,0l0,-3.3l14.3,0l2.6,3.1l24.3,0c3,0 5.5,2.5 5.5,5.5l0.1,24.9l0,0z" class="st0"/>
       <path fill="#FFFFFF" d="m266.2,103.9l-1.8,-1.9l-3.9,-4.1l0.4,-0.7c2.1,-3.5 1.6,-8.1 -1.3,-11c-3.5,-3.6 -9.4,-3.8 -13.1,-0.3c-1.8,1.8 -2.8,4 -2.8,6.4c-0.1,2.4 0.9,4.8 2.6,6.5c2.8,2.9 7.4,3.6 11,1.7l0.7,-0.3l1.6,1.7l1.8,1.9l3.2,3.3l5.9,6l2.5,-2.4l-4.3,-4.4l-2.5,-2.4zm-9.3,-6.9c-2.3,2.3 -6.2,2.3 -8.5,-0.2c-2.3,-2.4 -2.3,-6.2 0.2,-8.5c2.3,-2.3 6.2,-2.3 8.5,0.2c2.3,2.4 2.2,6.2 -0.2,8.5z" class="st0"/>
      </g>
      <g enable-background="new" class="st2">
       <path fill="#FFFFFF" d="m203.9,147.1c-1.1,-0.3 -2,-0.8 -2.5,-1.3l1,-2.1c0.6,0.5 1.4,0.9 2.2,1.2c0.9,0.3 1.8,0.5 2.7,0.5c1.1,0 2,-0.2 2.5,-0.5c0.6,-0.4 0.8,-0.9 0.8,-1.5c0,-0.4 -0.2,-0.8 -0.5,-1.1c-0.3,-0.3 -0.7,-0.5 -1.2,-0.7c-0.5,-0.2 -1.1,-0.3 -2,-0.5c-1.2,-0.3 -2,-0.6 -2.7,-0.8c-0.7,-0.2 -1.3,-0.7 -1.9,-1.3c-0.5,-0.6 -0.8,-1.4 -0.8,-2.3c0,-0.8 0.2,-1.6 0.7,-2.2c0.5,-0.7 1.2,-1.2 2,-1.7c0.9,-0.4 2,-0.6 3.3,-0.6c0.9,0 1.9,0.1 2.7,0.4c0.9,0.2 1.7,0.6 2.3,1l-0.9,2.1c-0.7,-0.4 -1.4,-0.7 -2,-0.9c-0.7,-0.2 -1.4,-0.3 -2,-0.3c-1.1,0 -2,0.2 -2.4,0.6c-0.6,0.4 -0.8,0.9 -0.8,1.5c0,0.4 0.2,0.8 0.5,1.1c0.3,0.3 0.7,0.5 1.2,0.7c0.5,0.2 1.1,0.3 2,0.5c1.1,0.3 2,0.5 2.7,0.8c0.7,0.3 1.4,0.7 1.9,1.3c0.5,0.6 0.8,1.4 0.8,2.3c0,0.9 -0.2,1.6 -0.7,2.2c-0.5,0.7 -1.2,1.2 -2,1.6c-0.9,0.4 -2,0.6 -3.3,0.6c-1.4,-0.2 -2.5,-0.3 -3.6,-0.6z" class="st0"/>
       <path fill="#FFFFFF" d="m227.5,135.9l0,11.4l-2.5,0l0,-1.5c-0.4,0.5 -1,0.9 -1.6,1.2c-0.7,0.3 -1.4,0.4 -2,0.4c-1.6,0 -2.7,-0.4 -3.6,-1.3c-0.9,-0.9 -1.4,-2.1 -1.4,-3.8l0,-6.5l2.7,0l0,6.1c0,1.1 0.2,1.8 0.7,2.3c0.5,0.5 1.2,0.8 2,0.8c1,0 1.8,-0.3 2.2,-0.9c0.6,-0.6 0.9,-1.5 0.9,-2.5l0,-5.8l2.6,0l0,0.1z" class="st0"/>
       <path fill="#FFFFFF" d="m233.6,146.8c-1,-0.5 -1.7,-1.2 -2.2,-2c-0.6,-0.9 -0.8,-2 -0.8,-3c0,-1.2 0.3,-2.1 0.8,-3c0.5,-0.9 1.3,-1.6 2.2,-2c1,-0.5 2,-0.8 3.2,-0.8s2.1,0.2 2.9,0.7c0.9,0.5 1.5,1.1 2,2l-2,1.2c-0.3,-0.5 -0.8,-0.9 -1.3,-1.2c-0.5,-0.3 -1.1,-0.4 -1.7,-0.4c-1,0 -1.9,0.3 -2.5,1c-0.7,0.7 -1,1.6 -1,2.6s0.3,2 1,2.6c0.7,0.7 1.5,1 2.5,1c0.6,0 1.2,-0.1 1.7,-0.4c0.5,-0.3 0.9,-0.7 1.3,-1.2l2,1.2c-0.5,0.9 -1.1,1.6 -2,2c-0.9,0.5 -1.9,0.7 -2.9,0.7c-1.2,-0.3 -2.3,-0.5 -3.2,-1z" class="st0"/>
       <path fill="#FFFFFF" d="m254.5,137c0.9,0.9 1.3,2 1.3,3.7l0,6.5l-2.7,0l0,-6.2c0,-1 -0.2,-1.8 -0.7,-2.2c-0.5,-0.5 -1.2,-0.8 -2,-0.8c-1,0 -1.8,0.3 -2.3,0.9c-0.6,0.6 -0.9,1.5 -0.9,2.5l0,5.8l-2.7,0l0,-15.9l2.7,0l0,5.8c0.5,-0.5 1,-0.9 1.7,-1.1c0.7,-0.3 1.4,-0.4 2.1,-0.4c1.4,0.1 2.6,0.6 3.5,1.4z" class="st0"/>
       <path fill="#FFFFFF" d="m270.6,142.5l-9,0c0.2,0.9 0.6,1.6 1.3,2c0.7,0.5 1.5,0.8 2.4,0.8c1.3,0 2.3,-0.4 3.1,-1.3l1.5,1.7c-0.5,0.6 -1.2,1.1 -2,1.4c-0.8,0.3 -1.7,0.5 -2.6,0.5c-1.3,0 -2.3,-0.3 -3.3,-0.8c-1,-0.5 -1.7,-1.2 -2.2,-2c-0.5,-0.9 -0.8,-2 -0.8,-3s0.3,-2.1 0.8,-3c0.5,-0.9 1.2,-1.6 2.1,-2c0.9,-0.5 2,-0.8 3,-0.8s2.1,0.3 3,0.8s1.6,1.2 2,2c0.5,0.9 0.8,2 0.8,3.1c-0.1,0 -0.1,0.3 -0.1,0.6zm-8,-3.8c-0.6,0.5 -1,1.2 -1.1,2l6.5,0c-0.1,-0.9 -0.5,-1.5 -1.1,-2c-0.6,-0.5 -1.3,-0.8 -2.1,-0.8s-1.7,0.3 -2.2,0.8z" class="st0"/>
       <path fill="#FFFFFF" d="m283.6,137c0.9,0.9 1.3,2 1.3,3.7l0,6.5l-2.7,0l0,-6.2c0,-1 -0.2,-1.8 -0.7,-2.2c-0.5,-0.5 -1.2,-0.8 -2,-0.8c-1,0 -1.8,0.3 -2.3,0.9c-0.6,0.6 -0.9,1.5 -0.9,2.5l0,5.8l-2.7,0l0,-11.4l2.5,0l0,1.5c0.5,-0.5 1,-1 1.7,-1.2c0.7,-0.3 1.5,-0.4 2.2,-0.4c1.7,0 2.7,0.5 3.6,1.3z" class="st0"/>
       <path fill="#FFFFFF" d="m291,144.4c0.3,0.3 0.5,0.8 0.5,1.3c0,0.2 0,0.5 -0.1,0.7c-0.1,0.2 -0.2,0.6 -0.4,1.2l-1.1,3l-1.8,0l0.9,-3.3c-0.3,-0.1 -0.6,-0.3 -0.8,-0.6c-0.2,-0.3 -0.3,-0.6 -0.3,-1c0,-0.5 0.2,-1 0.5,-1.3c0.3,-0.3 0.8,-0.5 1.3,-0.5s1,0.2 1.3,0.5z" class="st0"/>
       <path fill="#FFFFFF" d="m183.6,158.7l-6.5,15l-2.7,0l-6.5,-15l3,0l5,11.6l5.1,-11.6l2.6,0z" class="st0"/>
       <path fill="#FFFFFF" d="m195.4,168.8l-9,0c0.2,0.9 0.6,1.6 1.3,2c0.7,0.5 1.5,0.8 2.4,0.8c1.3,0 2.3,-0.4 3.1,-1.3l1.5,1.7c-0.5,0.6 -1.2,1.1 -2,1.4s-1.7,0.5 -2.6,0.5c-1.3,0 -2.3,-0.3 -3.3,-0.8c-1,-0.5 -1.7,-1.2 -2.2,-2c-0.5,-0.9 -0.8,-2 -0.8,-3c0,-1.1 0.3,-2.1 0.8,-3c0.5,-0.9 1.2,-1.6 2.1,-2c0.9,-0.5 2,-0.8 3,-0.8c1.1,0 2.1,0.3 3,0.8c0.9,0.5 1.6,1.2 2,2c0.5,0.9 0.8,2 0.8,3.1c-0.1,0 -0.1,0.3 -0.1,0.6zm-7.9,-3.8c-0.6,0.5 -1,1.2 -1.1,2l6.5,0c-0.1,-0.9 -0.5,-1.5 -1.1,-2c-0.6,-0.5 -1.3,-0.8 -2.1,-0.8c-0.9,0 -1.6,0.3 -2.2,0.8z" class="st0"/>
       <path fill="#FFFFFF" d="m205.2,162.1l0,2.5c-0.2,0 -0.4,-0.1 -0.6,-0.1c-1.1,0 -1.9,0.3 -2.4,0.9c-0.6,0.6 -0.9,1.5 -0.9,2.6l0,5.6l-2.7,0l0,-11.4l2.5,0l0,1.7c0.8,-1.2 2.1,-1.8 4.1,-1.8z" class="st0"/>
       <path fill="#FFFFFF" d="m216.2,163.4c0.9,0.8 1.4,2 1.4,3.7l0,6.7l-2.5,0l0,-1.4c-0.3,0.5 -0.8,0.9 -1.4,1.2s-1.4,0.4 -2.2,0.4s-1.7,-0.2 -2.2,-0.5c-0.7,-0.3 -1.2,-0.7 -1.5,-1.3c-0.3,-0.6 -0.5,-1.1 -0.5,-1.8c0,-1.1 0.4,-1.9 1.2,-2.4c0.8,-0.6 2,-1 3.6,-1l2.9,0l0,-0.2c0,-0.8 -0.2,-1.5 -0.7,-1.9c-0.5,-0.4 -1.2,-0.7 -2.1,-0.7c-0.7,0 -1.3,0.1 -1.9,0.3c-0.6,0.2 -1.2,0.5 -1.6,0.9l-1.1,-2c0.6,-0.5 1.4,-0.8 2.1,-1.1c0.9,-0.2 1.8,-0.4 2.7,-0.4c1.6,0.2 2.9,0.6 3.8,1.5zm-2.4,8c0.5,-0.3 0.9,-0.8 1.1,-1.4l0,-1.4l-2.7,0c-1.6,0 -2.3,0.5 -2.3,1.6c0,0.5 0.2,0.9 0.6,1.2c0.4,0.3 0.9,0.4 1.6,0.4c0.5,0.1 1.1,-0.1 1.7,-0.4z" class="st0"/>
       <path fill="#FFFFFF" d="m228.1,162.1l0,2.5c-0.2,0 -0.4,-0.1 -0.6,-0.1c-1.1,0 -1.9,0.3 -2.4,0.9c-0.6,0.6 -0.9,1.5 -0.9,2.6l0,5.6l-2.7,0l0,-11.4l2.5,0l0,1.7c0.8,-1.2 2.2,-1.8 4.1,-1.8z" class="st0"/>
       <path fill="#FFFFFF" d="m240.3,162.9c0.9,0.5 1.6,1.2 2,2c0.5,0.9 0.8,2 0.8,3c0,1.2 -0.3,2.1 -0.8,3.1c-0.5,1 -1.2,1.6 -2,2c-0.9,0.5 -1.9,0.7 -3,0.7c-0.8,0 -1.5,-0.1 -2.1,-0.4c-0.7,-0.3 -1.2,-0.7 -1.7,-1.3l0,1.5l-2.5,0l0,-15.9l2.7,0l0,5.9c0.5,-0.5 1,-0.9 1.7,-1.2c0.6,-0.3 1.3,-0.4 2,-0.4c1.1,0.2 2,0.5 2.9,1zm-0.9,7.7c0.7,-0.7 1,-1.6 1,-2.6s-0.3,-2 -1,-2.6s-1.5,-1 -2.4,-1c-0.7,0 -1.3,0.2 -1.8,0.5c-0.5,0.3 -0.9,0.7 -1.3,1.3c-0.3,0.6 -0.5,1.2 -0.5,1.9s0.2,1.4 0.5,1.9c0.3,0.6 0.7,1 1.3,1.3c0.5,0.3 1.1,0.5 1.8,0.5c1,-0.3 1.8,-0.5 2.4,-1.2z" class="st0"/>
       <path fill="#FFFFFF" d="m257,168.8l-9,0c0.2,0.9 0.6,1.6 1.3,2c0.7,0.5 1.5,0.8 2.4,0.8c1.3,0 2.3,-0.4 3.1,-1.3l1.5,1.7c-0.5,0.6 -1.2,1.1 -2,1.4s-1.7,0.5 -2.6,0.5c-1.3,0 -2.3,-0.3 -3.3,-0.8c-1,-0.5 -1.7,-1.2 -2.2,-2c-0.5,-0.9 -0.8,-2 -0.8,-3c0,-1.1 0.3,-2.1 0.8,-3c0.5,-0.9 1.2,-1.6 2.1,-2c0.9,-0.5 2,-0.8 3,-0.8s2.1,0.3 3,0.8c0.9,0.5 1.6,1.2 2,2c0.5,0.9 0.8,2 0.8,3.1c-0.1,0 -0.1,0.3 -0.1,0.6zm-8,-3.8c-0.6,0.5 -1,1.2 -1.1,2l6.5,0c-0.1,-0.9 -0.5,-1.5 -1.1,-2c-0.6,-0.5 -1.3,-0.8 -2.1,-0.8c-0.8,0 -1.6,0.3 -2.2,0.8z" class="st0"/>
       <path fill="#FFFFFF" d="m260.2,159.8c-0.3,-0.3 -0.5,-0.7 -0.5,-1.2c0,-0.5 0.2,-0.9 0.5,-1.2c0.3,-0.3 0.8,-0.5 1.3,-0.5s0.9,0.2 1.3,0.5c0.3,0.3 0.5,0.7 0.5,1.1c0,0.5 -0.2,0.9 -0.5,1.2c-0.3,0.3 -0.8,0.5 -1.3,0.5c-0.5,0.1 -0.9,0 -1.3,-0.4zm-0.1,2.5l2.7,0l0,11.4l-2.7,0l0,-11.4z" class="st0"/>
       <path fill="#FFFFFF" d="m273.8,173.1c-0.3,0.3 -0.7,0.5 -1.2,0.6c-0.5,0.1 -0.9,0.2 -1.5,0.2c-1.3,0 -2.2,-0.3 -2.9,-1c-0.7,-0.7 -1.1,-1.7 -1.1,-2.8l0,-5.6l-1.9,0l0,-2.1l1.9,0l0,-2.6l2.7,0l0,2.6l3,0l0,2.1l-3,0l0,5.5c0,0.6 0.1,1 0.4,1.3c0.3,0.3 0.7,0.5 1.2,0.5c0.6,0 1.1,-0.2 1.5,-0.5l0.9,1.8z" class="st0"/>
       <path fill="#FFFFFF" d="m286.8,168.8l-9,0c0.2,0.9 0.6,1.6 1.3,2c0.7,0.5 1.5,0.8 2.4,0.8c1.3,0 2.3,-0.4 3.1,-1.3l1.5,1.7c-0.5,0.6 -1.2,1.1 -2,1.4s-1.7,0.5 -2.6,0.5c-1.3,0 -2.3,-0.3 -3.3,-0.8c-1,-0.5 -1.7,-1.2 -2.2,-2c-0.5,-0.9 -0.8,-2 -0.8,-3c0,-1.1 0.3,-2.1 0.8,-3c0.5,-0.9 1.2,-1.6 2.1,-2c0.9,-0.5 2,-0.8 3,-0.8s2.1,0.3 3,0.8c0.9,0.5 1.6,1.2 2,2c0.5,0.9 0.8,2 0.8,3.1c-0.1,0 -0.1,0.3 -0.1,0.6zm-8,-3.8c-0.6,0.5 -1,1.2 -1.1,2l6.5,0c-0.1,-0.9 -0.5,-1.5 -1.1,-2c-0.6,-0.5 -1.3,-0.8 -2.1,-0.8s-1.5,0.3 -2.2,0.8z" class="st0"/>
       <path fill="#FFFFFF" d="m299.9,163.4c0.9,0.9 1.3,2 1.3,3.7l0,6.5l-2.6,0l0,-6.2c0,-1 -0.2,-1.8 -0.7,-2.2c-0.5,-0.5 -1.2,-0.8 -2,-0.8c-1,0 -1.8,0.3 -2.3,0.9c-0.6,0.6 -0.9,1.5 -0.9,2.5l0,5.8l-2.7,0l0,-11.4l2.5,0l0,1.5c0.5,-0.5 1,-1 1.7,-1.2c0.7,-0.3 1.5,-0.4 2.2,-0.4c1.6,0 2.6,0.5 3.5,1.3z" class="st0"/>
       <path fill="#FFFFFF" d="m323.2,173.9l-1.9,-1.9c-1.4,1.2 -3.1,1.8 -5.1,1.8c-1.1,0 -2,-0.2 -2.8,-0.5c-0.9,-0.4 -1.5,-0.8 -2,-1.5c-0.5,-0.6 -0.7,-1.3 -0.7,-2c0,-1 0.3,-1.8 0.8,-2.4c0.6,-0.7 1.5,-1.4 2.6,-2c-0.6,-0.6 -1.1,-1.2 -1.3,-1.7c-0.3,-0.5 -0.4,-1.1 -0.4,-1.7c0,-1.1 0.4,-2 1.2,-2.5c0.8,-0.7 1.9,-1 3.1,-1c1.2,0 2.1,0.3 2.9,0.9c0.8,0.6 1.1,1.4 1.1,2.4c0,0.8 -0.2,1.5 -0.7,2s-1.3,1.2 -2.3,1.9l3.2,3.1c0.4,-0.7 0.7,-1.6 0.9,-2.5l2.1,0.7c-0.3,1.4 -0.8,2.4 -1.4,3.4l1.9,1.8l-1.2,1.7zm-3.5,-3.3l-4,-3.8c-0.9,0.5 -1.5,1 -1.9,1.4s-0.5,0.9 -0.5,1.5s0.3,1.2 0.9,1.6c0.6,0.4 1.3,0.6 2.2,0.6c1.3,-0.2 2.4,-0.5 3.3,-1.3zm-4.2,-9.8c-0.4,0.3 -0.5,0.7 -0.5,1.2c0,0.4 0.1,0.7 0.3,1c0.2,0.3 0.6,0.7 1.1,1.3c0.9,-0.5 1.5,-0.9 1.8,-1.3c0.3,-0.4 0.5,-0.8 0.5,-1.2c0,-0.5 -0.2,-0.8 -0.5,-1.1c-0.3,-0.3 -0.8,-0.4 -1.3,-0.4c-0.5,0.1 -1,0.2 -1.4,0.5z" class="st0"/>
       <path fill="#FFFFFF" d="m180.5,196.5l-7.5,0l-1.5,3.5l-2.8,0l6.7,-15l2.7,0l6.8,15l-2.9,0l-1.5,-3.5zm-1,-2.1l-2.8,-6.5l-2.8,6.5l5.6,0z" class="st0"/>
       <path fill="#FFFFFF" d="m198,188.6l0,11.4l-2.5,0l0,-1.5c-0.4,0.5 -1,0.9 -1.6,1.2c-0.7,0.3 -1.4,0.4 -2,0.4c-1.6,0 -2.7,-0.4 -3.6,-1.3c-0.9,-0.9 -1.4,-2.1 -1.4,-3.8l0,-6.5l2.7,0l0,6.1c0,1.1 0.2,1.8 0.7,2.3c0.5,0.5 1.2,0.8 2,0.8c1,0 1.8,-0.3 2.2,-0.9c0.6,-0.6 0.9,-1.5 0.9,-2.5l0,-5.8l2.6,0l0,0.1z" class="st0"/>
       <path fill="#FFFFFF" d="m205,187.9l0,0.7l3.1,0l0,2.1l-3,0l0,9.3l-2.7,0l0,-9.3l-1.9,0l0,-2.1l1.9,0l0,-0.7c0,-1.3 0.4,-2.2 1.1,-2.9c0.7,-0.7 1.8,-1.1 3,-1.1c1.1,0 1.9,0.2 2.4,0.6l-0.8,2c-0.5,-0.3 -1,-0.5 -1.5,-0.5c-1,0.1 -1.6,0.8 -1.6,1.9z" class="st0"/>
       <path fill="#FFFFFF" d="m219.8,189.2c0.9,0.5 1.6,1.2 2,2c0.5,0.9 0.8,2 0.8,3c0,1.2 -0.3,2.1 -0.8,3.1c-0.5,1 -1.2,1.6 -2,2c-0.9,0.5 -1.9,0.7 -3,0.7c-0.8,0 -1.5,-0.1 -2.1,-0.4c-0.7,-0.3 -1.2,-0.7 -1.7,-1.3l0,1.5l-2.5,0l0,-15.8l2.7,0l0,5.9c0.5,-0.5 1,-0.9 1.7,-1.2c0.6,-0.3 1.3,-0.4 2,-0.4c1.1,0.1 2,0.4 2.9,0.9zm-0.9,7.7c0.7,-0.7 1,-1.6 1,-2.6c0,-1.1 -0.3,-2 -1,-2.6c-0.7,-0.7 -1.5,-1 -2.4,-1c-0.7,0 -1.3,0.2 -1.8,0.5c-0.5,0.3 -0.9,0.7 -1.3,1.3c-0.3,0.6 -0.5,1.2 -0.5,1.9c0,0.7 0.2,1.4 0.5,1.9c0.3,0.6 0.7,1 1.3,1.3c0.5,0.3 1.1,0.5 1.8,0.5c1,-0.2 1.9,-0.5 2.4,-1.2z" class="st0"/>
       <path fill="#FFFFFF" d="m236.5,195.2l-9,0c0.2,0.9 0.6,1.6 1.3,2c0.7,0.5 1.5,0.8 2.4,0.8c1.3,0 2.3,-0.4 3.1,-1.3l1.5,1.7c-0.5,0.6 -1.2,1.1 -2,1.4c-0.8,0.3 -1.7,0.5 -2.6,0.5c-1.3,0 -2.3,-0.3 -3.3,-0.8c-1,-0.5 -1.7,-1.2 -2.2,-2c-0.5,-0.9 -0.8,-2 -0.8,-3c0,-1.1 0.3,-2.1 0.8,-3c0.5,-0.9 1.2,-1.6 2.1,-2c0.9,-0.5 2,-0.8 3,-0.8c1.1,0 2.1,0.3 3,0.8c0.9,0.5 1.6,1.2 2,2c0.5,0.9 0.8,2 0.8,3.1c-0.1,0 -0.1,0.3 -0.1,0.6zm-8,-3.8c-0.6,0.5 -1,1.2 -1.1,2l6.5,0c-0.1,-0.9 -0.5,-1.5 -1.1,-2c-0.6,-0.5 -1.3,-0.8 -2.1,-0.8c-0.8,0 -1.6,0.3 -2.2,0.8z" class="st0"/>
       <path fill="#FFFFFF" d="m257.3,188.6l-4.2,11.4l-2.5,0l-2.9,-7.9l-3,7.9l-2.6,0l-4.2,-11.4l2.5,0l3,8.5l3.1,-8.5l2.2,0l3.1,8.5l3.1,-8.5l2.4,0z" class="st0"/>
       <path fill="#FFFFFF" d="m267.5,189.7c0.9,0.8 1.4,2 1.4,3.7l0,6.7l-2.5,0l0,-1.4c-0.3,0.5 -0.8,0.9 -1.4,1.2c-0.6,0.3 -1.4,0.4 -2.2,0.4c-0.9,0 -1.7,-0.2 -2.2,-0.5c-0.7,-0.3 -1.2,-0.7 -1.5,-1.3c-0.3,-0.6 -0.5,-1.1 -0.5,-1.8c0,-1.1 0.4,-1.9 1.2,-2.4s2,-1 3.6,-1l2.9,0l0,-0.2c0,-0.8 -0.2,-1.5 -0.7,-1.9s-1.2,-0.7 -2.1,-0.7c-0.7,0 -1.3,0.1 -1.9,0.3c-0.6,0.2 -1.2,0.5 -1.6,0.9l-1.1,-2c0.6,-0.5 1.4,-0.8 2.1,-1.1c0.9,-0.2 1.8,-0.4 2.7,-0.4c1.7,0.2 2.9,0.6 3.8,1.5zm-2.4,8.1c0.5,-0.3 0.9,-0.8 1.1,-1.4l0,-1.4l-2.7,0c-1.6,0 -2.3,0.5 -2.3,1.6c0,0.5 0.2,0.9 0.6,1.2c0.4,0.3 0.9,0.4 1.6,0.4c0.6,0.1 1.2,-0.1 1.7,-0.4z" class="st0"/>
       <path fill="#FFFFFF" d="m282.8,189.7c0.9,0.9 1.3,2 1.3,3.7l0,6.5l-2.7,0l0,-6.2c0,-1 -0.2,-1.8 -0.7,-2.2c-0.5,-0.5 -1.2,-0.8 -2,-0.8c-1,0 -1.8,0.3 -2.3,0.9c-0.6,0.6 -0.9,1.5 -0.9,2.5l0,5.8l-2.8,0l0,-15.9l2.7,0l0,5.8c0.5,-0.5 1,-0.9 1.7,-1.1c0.7,-0.3 1.4,-0.4 2.1,-0.4c1.6,0.1 2.8,0.6 3.6,1.4z" class="st0"/>
       <path fill="#FFFFFF" d="m294.7,188.4l0,2.5c-0.2,0 -0.4,-0.1 -0.6,-0.1c-1.1,0 -1.9,0.3 -2.4,0.9c-0.6,0.6 -0.9,1.5 -0.9,2.6l0,5.6l-2.7,0l0,-11.4l2.5,0l0,1.7c0.8,-1.2 2.2,-1.8 4.1,-1.8z" class="st0"/>
       <path fill="#FFFFFF" d="m308.2,195.2l-9,0c0.2,0.9 0.6,1.6 1.3,2c0.7,0.5 1.5,0.8 2.4,0.8c1.3,0 2.3,-0.4 3.1,-1.3l1.5,1.7c-0.5,0.6 -1.2,1.1 -2,1.4c-0.8,0.3 -1.7,0.5 -2.6,0.5c-1.3,0 -2.3,-0.3 -3.3,-0.8c-1,-0.5 -1.7,-1.2 -2.2,-2c-0.5,-0.9 -0.8,-2 -0.8,-3c0,-1.1 0.3,-2.1 0.8,-3c0.5,-0.9 1.2,-1.6 2.1,-2c0.9,-0.5 2,-0.8 3,-0.8s2.1,0.3 3,0.8c0.9,0.5 1.6,1.2 2,2c0.5,0.9 0.8,2 0.8,3.1c-0.1,0 -0.1,0.3 -0.1,0.6zm-8,-3.8c-0.6,0.5 -1,1.2 -1.1,2l6.5,0c-0.1,-0.9 -0.5,-1.5 -1.1,-2c-0.6,-0.5 -1.3,-0.8 -2.1,-0.8s-1.6,0.3 -2.2,0.8z" class="st0"/>
       <path fill="#FFFFFF" d="m321.3,189.7c0.9,0.9 1.3,2 1.3,3.7l0,6.5l-2.7,0l0,-6.2c0,-1 -0.2,-1.8 -0.7,-2.2c-0.5,-0.5 -1.2,-0.8 -2,-0.8c-1,0 -1.8,0.3 -2.3,0.9c-0.6,0.6 -0.9,1.5 -0.9,2.5l0,5.8l-2.7,0l0,-11.4l2.5,0l0,1.5c0.5,-0.5 1,-1 1.7,-1.2c0.7,-0.3 1.5,-0.4 2.2,-0.4c1.5,0 2.7,0.5 3.6,1.3z" class="st0"/>
      </g>
     </g>
     <g>
      <polygon points="492.3999938964844,280.70001220703125 607.8999938964844,213.89999389648438 607.8999938964844,80.5999984741211 492.3999938964844,14 376.9000244140625,80.5999984741211 376.9000244140625,213.89999389648438 399.1000061035156,226.89999389648438 " fill="#00232D" class="st5" id="svg_10"/>
      <g>
       <g>
        <path fill="#FFFFFF" d="m482.5,103.3l-4.9,-7.7c2.5,-0.8 4.4,-3 4.4,-6c0,-3.4 -2.8,-6.2 -6.2,-6.2s-6.2,2.8 -6.2,6.2c0,2.8 1.9,5.1 4.4,6l-4.9,7.7c-0.3,0.6 -0.6,1.2 -0.6,1.9l0,5.7c0,1.9 1.5,3.3 3.3,3.3l7.4,0c2,0 3.5,-1.6 3.5,-3.5l0,-5.6c0.3,-0.6 0.1,-1.3 -0.2,-1.8z" class="st0"/>
        <path fill="#FFFFFF" d="m498.9,103.3l-4.9,-7.7c2.5,-0.8 4.4,-3 4.4,-6c0,-3.4 -2.8,-6.2 -6.2,-6.2s-6.2,2.8 -6.2,6.2c0,2.8 1.9,5.1 4.4,6l-4.9,7.7c-0.3,0.6 -0.6,1.2 -0.6,1.9l0,5.7c0,1.9 1.5,3.3 3.3,3.3l7.4,0c2,0 3.5,-1.6 3.5,-3.5l0,-5.6c0.2,-0.6 0,-1.3 -0.2,-1.8z" class="st0"/>
        <path fill="#FFFFFF" d="m515.1,103.3l-4.9,-7.7c2.5,-0.8 4.4,-3 4.4,-6c0,-3.4 -2.8,-6.2 -6.2,-6.2c-3.4,0 -6.2,2.8 -6.2,6.2c0,2.8 1.9,5.1 4.4,6l-4.9,7.7c-0.3,0.6 -0.6,1.2 -0.6,1.9l0,5.7c0,1.9 1.5,3.3 3.3,3.3l7.4,0c2,0 3.5,-1.6 3.5,-3.5l0,-5.6c0.4,-0.6 0.2,-1.3 -0.2,-1.8z" class="st0"/>
       </g>
       <g>
        <path fill="#FFFFFF" d="m488.2,63.7c0,-2.3 0.9,-4.5 2.2,-6.4c-2.9,-1.7 -6.4,-2.6 -10.4,-2.6c-9.5,0 -17.1,5.6 -17.1,12.5c0,6.8 7.7,12.5 17.1,12.5c2,0 3.7,-0.3 5.6,-0.7l4.1,1.9l0.8,-3.7c1.7,-1 3,-2 4.2,-3.2c-4.2,-2.6 -6.5,-6.4 -6.5,-10.3z" class="st0"/>
        <path fill="#FFFFFF" d="m506.3,52.2c-5.8,0 -10.7,2.3 -13.3,6c-1.2,1.7 -2,3.6 -2,5.7c0,3.6 2.2,6.8 5.7,8.9c0.2,0.1 0.3,0.2 0.5,0.3l0.7,3.4l3.6,-1.7c1.6,0.4 3.1,0.7 4.9,0.7c8.4,0 15.2,-5.1 15.2,-11.5c0,-6.6 -6.8,-11.8 -15.3,-11.8z" class="st0"/>
       </g>
      </g>
      <g enable-background="new" class="st2">
       <path fill="#FFFFFF" d="m404.5,150.6l-2.3,2.4l0,3.8l-2.8,0l0,-15l2.8,0l0,7.7l7.4,-7.7l3.1,0l-6.3,6.7l6.7,8.3l-3.2,0l-5.4,-6.2z" class="st0"/>
       <path fill="#FFFFFF" d="m416.8,156.2c-1,-0.5 -1.7,-1.2 -2.1,-2c-0.5,-0.9 -0.8,-2 -0.8,-3c0,-1.2 0.3,-2.1 0.8,-3c0.5,-0.9 1.3,-1.6 2.1,-2c1,-0.5 2,-0.8 3.1,-0.8s2.2,0.3 3.1,0.8c1,0.5 1.7,1.2 2.1,2c0.5,0.9 0.8,1.9 0.8,3s-0.3,2.1 -0.8,3c-0.5,0.9 -1.3,1.6 -2.1,2c-1,0.5 -2,0.8 -3.1,0.8s-2.1,-0.3 -3.1,-0.8zm5.6,-2.5c0.7,-0.7 1,-1.6 1,-2.6c0,-1.1 -0.3,-2 -1,-2.6c-0.7,-0.7 -1.5,-1 -2.4,-1c-1,0 -1.8,0.3 -2.4,1c-0.7,0.7 -1,1.6 -1,2.6c0,1.1 0.3,2 1,2.6c0.7,0.7 1.5,1 2.4,1c0.9,0 1.8,-0.3 2.4,-1z" class="st0"/>
       <path fill="#FFFFFF" d="m447,146.6c0.9,0.9 1.3,2 1.3,3.8l0,6.5l-2.7,0l0,-6.2c0,-1 -0.2,-1.8 -0.7,-2.2c-0.5,-0.5 -1.1,-0.8 -2,-0.8c-0.9,0 -1.7,0.3 -2.1,0.9c-0.6,0.6 -0.8,1.5 -0.8,2.5l0,5.9l-2.7,0l0,-6.2c0,-1 -0.2,-1.8 -0.7,-2.2c-0.5,-0.5 -1.1,-0.8 -2,-0.8c-0.9,0 -1.7,0.3 -2.1,0.9c-0.5,0.6 -0.8,1.5 -0.8,2.5l0,5.9l-2.7,0l0,-11.4l2.5,0l0,1.5c0.4,-0.5 1,-0.9 1.7,-1.2c0.7,-0.3 1.4,-0.4 2.1,-0.4c0.9,0 1.7,0.2 2.2,0.5c0.6,0.3 1.2,0.8 1.6,1.5c0.5,-0.6 1.1,-1.1 1.9,-1.4c0.8,-0.3 1.6,-0.5 2.4,-0.5c1.7,-0.4 2.9,0 3.6,0.9z" class="st0"/>
       <path fill="#FFFFFF" d="m470.2,146.6c0.9,0.9 1.3,2 1.3,3.8l0,6.5l-2.8,0l0,-6.2c0,-1 -0.2,-1.8 -0.7,-2.2c-0.5,-0.5 -1.1,-0.8 -2,-0.8c-0.9,0 -1.7,0.3 -2.1,0.9c-0.6,0.6 -0.8,1.5 -0.8,2.5l0,5.9l-2.7,0l0,-6.2c0,-1 -0.2,-1.8 -0.7,-2.2c-0.5,-0.5 -1.1,-0.8 -2,-0.8c-0.9,0 -1.7,0.3 -2.1,0.9s-0.8,1.5 -0.8,2.5l0,5.9l-2.7,0l0,-11.4l2.5,0l0,1.5c0.4,-0.5 1,-0.9 1.7,-1.2c0.7,-0.3 1.4,-0.4 2.1,-0.4c0.9,0 1.7,0.2 2.2,0.5c0.6,0.3 1.2,0.8 1.6,1.5c0.5,-0.6 1.1,-1.1 1.9,-1.4c0.8,-0.3 1.6,-0.5 2.4,-0.5c1.7,-0.4 2.9,0 3.7,0.9z" class="st0"/>
       <path fill="#FFFFFF" d="m486.6,145.4l0,11.5l-2.5,0l0,-1.5c-0.4,0.5 -1,0.9 -1.7,1.2s-1.4,0.4 -2,0.4c-1.6,0 -2.7,-0.4 -3.6,-1.3c-0.9,-0.9 -1.4,-2.1 -1.4,-3.8l0,-6.5l2.7,0l0,6.1c0,1.1 0.2,1.8 0.7,2.3c0.5,0.5 1.2,0.8 2,0.8c1,0 1.8,-0.3 2.2,-0.9c0.6,-0.6 0.9,-1.5 0.9,-2.5l0,-5.8l2.7,0l0,0z" class="st0"/>
       <path fill="#FFFFFF" d="m500.6,146.6c0.9,0.9 1.3,2 1.3,3.7l0,6.5l-2.7,0l0,-6.2c0,-1 -0.2,-1.8 -0.7,-2.2c-0.5,-0.5 -1.2,-0.8 -2,-0.8c-1,0 -1.8,0.3 -2.3,0.9c-0.6,0.6 -0.9,1.5 -0.9,2.5l0,5.8l-2.7,0l0,-11.4l2.5,0l0,1.5c0.5,-0.5 1,-1 1.7,-1.2c0.7,-0.2 1.5,-0.4 2.2,-0.4c1.6,0 2.7,0.4 3.6,1.3z" class="st0"/>
       <path fill="#FFFFFF" d="m506,143.1c-0.3,-0.3 -0.5,-0.7 -0.5,-1.2c0,-0.5 0.2,-0.9 0.5,-1.2c0.3,-0.3 0.8,-0.5 1.3,-0.5s0.9,0.2 1.3,0.5c0.3,0.3 0.5,0.7 0.5,1.1c0,0.5 -0.2,0.9 -0.5,1.2c-0.3,0.3 -0.8,0.5 -1.3,0.5c-0.6,0 -1,-0.2 -1.3,-0.4zm-0.1,2.3l2.7,0l0,11.5l-2.7,0l0,-11.5z" class="st0"/>
       <path fill="#FFFFFF" d="m521.5,154.8l0,2.1l-9.9,0l0,-1.7l6.2,-7.6l-6.1,0l0,-2.1l9.6,0l0,1.7l-6.3,7.6l6.5,0z" class="st0"/>
       <path fill="#FFFFFF" d="m524.7,143.1c-0.3,-0.3 -0.5,-0.7 -0.5,-1.2c0,-0.5 0.2,-0.9 0.5,-1.2c0.3,-0.3 0.8,-0.5 1.3,-0.5c0.5,0 0.9,0.2 1.3,0.5c0.3,0.3 0.5,0.7 0.5,1.1c0,0.5 -0.2,0.9 -0.5,1.2c-0.3,0.3 -0.8,0.5 -1.3,0.5c-0.6,0 -1,-0.2 -1.3,-0.4zm-0.2,2.3l2.7,0l0,11.5l-2.7,0l0,-11.5z" class="st0"/>
       <path fill="#FFFFFF" d="m542,152l-9,0c0.2,0.9 0.6,1.6 1.3,2c0.7,0.5 1.5,0.8 2.4,0.8c1.3,0 2.3,-0.4 3.1,-1.3l1.5,1.7c-0.5,0.6 -1.2,1.1 -2,1.4c-0.8,0.3 -1.7,0.5 -2.6,0.5c-1.3,0 -2.3,-0.3 -3.3,-0.8c-1,-0.5 -1.7,-1.2 -2.2,-2c-0.6,-0.9 -0.8,-2 -0.8,-3c0,-1.1 0.3,-2.1 0.8,-3c0.5,-0.9 1.2,-1.6 2.1,-2c0.9,-0.5 2,-0.8 3,-0.8c1.1,0 2.1,0.3 3,0.8c0.9,0.5 1.6,1.2 2,2c0.5,0.9 0.8,2 0.8,3.1c0,0 0,0.2 -0.1,0.6zm-7.9,-3.8c-0.6,0.5 -1,1.2 -1.1,2l6.5,0c-0.1,-0.9 -0.5,-1.5 -1.1,-2c-0.6,-0.5 -1.3,-0.8 -2.1,-0.8s-1.6,0.2 -2.2,0.8z" class="st0"/>
       <path fill="#FFFFFF" d="m551.8,145.3l0,2.5c-0.2,0 -0.4,-0.1 -0.6,-0.1c-1.1,0 -1.9,0.3 -2.4,0.9c-0.6,0.6 -0.9,1.5 -0.9,2.6l0,5.6l-2.7,0l0,-11.4l2.5,0l0,1.7c0.8,-1.2 2.2,-1.8 4.1,-1.8z" class="st0"/>
       <path fill="#FFFFFF" d="m565.2,152l-9,0c0.2,0.9 0.6,1.6 1.3,2c0.7,0.5 1.5,0.8 2.4,0.8c1.3,0 2.3,-0.4 3.1,-1.3l1.5,1.7c-0.5,0.6 -1.2,1.1 -2,1.4s-1.7,0.5 -2.6,0.5c-1.3,0 -2.3,-0.3 -3.3,-0.8c-1,-0.5 -1.7,-1.2 -2.2,-2c-0.5,-0.9 -0.8,-2 -0.8,-3c0,-1.1 0.3,-2.1 0.8,-3c0.5,-0.9 1.2,-1.6 2.1,-2c0.9,-0.5 2,-0.8 3,-0.8c1.1,0 2.1,0.3 3,0.8c0.9,0.5 1.6,1.2 2,2c0.5,0.9 0.8,2 0.8,3.1c0,0 0,0.2 -0.1,0.6zm-7.9,-3.8c-0.6,0.5 -1,1.2 -1.1,2l6.5,0c-0.1,-0.9 -0.5,-1.5 -1.1,-2c-0.6,-0.5 -1.3,-0.8 -2.1,-0.8c-0.8,0 -1.6,0.2 -2.2,0.8z" class="st0"/>
       <path fill="#FFFFFF" d="m578.4,146.6c0.9,0.9 1.3,2 1.3,3.7l0,6.5l-2.7,0l0,-6.2c0,-1 -0.2,-1.8 -0.7,-2.2c-0.5,-0.5 -1.2,-0.8 -2,-0.8c-1,0 -1.8,0.3 -2.3,0.9c-0.6,0.6 -0.9,1.5 -0.9,2.5l0,5.8l-2.7,0l0,-11.4l2.5,0l0,1.5c0.5,-0.5 1,-1 1.7,-1.2c0.7,-0.3 1.5,-0.4 2.2,-0.4c1.5,0 2.7,0.4 3.6,1.3z" class="st0"/>
       <path fill="#FFFFFF" d="m420.7,183.4l-1.9,-1.9c-1.4,1.2 -3.1,1.8 -5.1,1.8c-1.1,0 -2,-0.2 -2.8,-0.5c-0.9,-0.4 -1.5,-0.8 -2,-1.5c-0.5,-0.6 -0.7,-1.3 -0.7,-2c0,-1 0.3,-1.8 0.8,-2.4c0.6,-0.7 1.5,-1.4 2.6,-2c-0.6,-0.6 -1.1,-1.2 -1.3,-1.7c-0.3,-0.5 -0.4,-1.1 -0.4,-1.7c0,-1.1 0.4,-2 1.2,-2.5c0.8,-0.7 1.9,-1 3.1,-1c1.2,0 2.1,0.3 2.9,0.9s1.1,1.4 1.1,2.4c0,0.8 -0.2,1.5 -0.7,2c-0.5,0.6 -1.3,1.2 -2.3,1.9l3.2,3.1c0.4,-0.7 0.7,-1.6 0.9,-2.5l2.1,0.7c-0.3,1.4 -0.8,2.4 -1.4,3.4l1.9,1.8l-1.2,1.7zm-3.4,-3.3l-4,-3.8c-0.9,0.5 -1.5,1 -1.9,1.4s-0.5,0.9 -0.5,1.5c0,0.6 0.3,1.2 0.9,1.6c0.6,0.4 1.3,0.6 2.2,0.6c1.2,-0.2 2.3,-0.6 3.3,-1.3zm-4.2,-9.7c-0.4,0.3 -0.5,0.7 -0.5,1.2c0,0.4 0.1,0.7 0.3,1c0.2,0.3 0.6,0.7 1.1,1.3c0.9,-0.5 1.5,-0.9 1.8,-1.3s0.5,-0.8 0.5,-1.2c0,-0.5 -0.2,-0.8 -0.5,-1.1c-0.3,-0.3 -0.8,-0.4 -1.3,-0.4c-0.6,0 -1,0.2 -1.4,0.5z" class="st0"/>
       <path fill="#FFFFFF" d="m436.8,176.9l-2.3,2.4l0,3.8l-2.8,0l0,-15l2.8,0l0,7.7l7.4,-7.7l3.1,0l-6.3,6.7l6.7,8.3l-3.2,0l-5.4,-6.2z" class="st0"/>
       <path fill="#FFFFFF" d="m449.1,182.6c-1,-0.5 -1.7,-1.2 -2.1,-2c-0.5,-0.9 -0.8,-2 -0.8,-3c0,-1.2 0.3,-2.1 0.8,-3c0.5,-0.9 1.3,-1.6 2.1,-2c1,-0.5 2,-0.8 3.1,-0.8s2.2,0.3 3.1,0.8c1,0.5 1.7,1.2 2.1,2c0.5,0.9 0.8,1.9 0.8,3s-0.3,2.1 -0.8,3c-0.5,0.9 -1.3,1.6 -2.1,2c-1,0.5 -2,0.8 -3.1,0.8s-2.2,-0.3 -3.1,-0.8zm5.6,-2.6c0.7,-0.7 1,-1.6 1,-2.6c0,-1.1 -0.3,-2 -1,-2.6c-0.7,-0.7 -1.5,-1 -2.4,-1s-1.8,0.3 -2.4,1c-0.7,0.7 -1,1.6 -1,2.6c0,1.1 0.3,2 1,2.6c0.7,0.7 1.5,1 2.4,1c0.9,0.1 1.7,-0.3 2.4,-1z" class="st0"/>
       <path fill="#FFFFFF" d="m463.4,182.6c-1,-0.5 -1.7,-1.2 -2.1,-2c-0.5,-0.9 -0.8,-2 -0.8,-3c0,-1.2 0.3,-2.1 0.8,-3c0.5,-0.9 1.3,-1.6 2.1,-2c1,-0.5 2,-0.8 3.1,-0.8s2.2,0.3 3.1,0.8c1,0.5 1.7,1.2 2.1,2c0.5,0.9 0.8,1.9 0.8,3s-0.3,2.1 -0.8,3c-0.5,0.9 -1.3,1.6 -2.1,2c-1,0.5 -2,0.8 -3.1,0.8s-2.1,-0.3 -3.1,-0.8zm5.6,-2.6c0.7,-0.7 1,-1.6 1,-2.6c0,-1.1 -0.3,-2 -1,-2.6c-0.7,-0.7 -1.5,-1 -2.4,-1s-1.8,0.3 -2.4,1c-0.7,0.7 -1,1.6 -1,2.6c0,1.1 0.3,2 1,2.6c0.7,0.7 1.5,1 2.4,1c0.9,0.1 1.8,-0.3 2.4,-1z" class="st0"/>
       <path fill="#FFFFFF" d="m485.2,172.3c0.9,0.5 1.6,1.2 2,2c0.5,0.9 0.8,2 0.8,3c0,1.2 -0.3,2.1 -0.8,3.1c-0.5,0.9 -1.2,1.6 -2,2c-0.9,0.5 -1.9,0.7 -3,0.7c-1.6,0 -2.7,-0.5 -3.7,-1.6l0,5.6l-2.8,0l0,-15.6l2.5,0l0,1.5c0.5,-0.6 1,-1 1.7,-1.3c0.7,-0.3 1.4,-0.4 2.1,-0.4c1.2,0.3 2.3,0.5 3.2,1zm-0.9,7.7c0.7,-0.7 1,-1.6 1,-2.6c0,-1.1 -0.3,-2 -1,-2.6c-0.7,-0.7 -1.5,-1 -2.4,-1c-0.7,0 -1.3,0.2 -1.8,0.5c-0.5,0.3 -0.9,0.7 -1.3,1.3c-0.3,0.6 -0.5,1.2 -0.5,1.9c0,0.7 0.2,1.4 0.5,1.9c0.3,0.6 0.7,1 1.3,1.3c0.5,0.3 1.1,0.5 1.8,0.5c1,-0.1 1.7,-0.5 2.4,-1.2z" class="st0"/>
       <path fill="#FFFFFF" d="m501.8,178.4l-9,0c0.2,0.9 0.6,1.6 1.3,2c0.7,0.5 1.5,0.8 2.4,0.8c1.3,0 2.3,-0.4 3.1,-1.3l1.5,1.7c-0.5,0.6 -1.2,1.1 -2,1.4c-0.8,0.3 -1.7,0.5 -2.6,0.5c-1.3,0 -2.3,-0.3 -3.3,-0.8c-1,-0.5 -1.7,-1.2 -2.2,-2c-0.5,-0.9 -0.8,-2 -0.8,-3c0,-1.1 0.3,-2.1 0.8,-3c0.5,-0.9 1.2,-1.6 2.1,-2c0.9,-0.5 2,-0.8 3,-0.8c1.1,0 2.1,0.3 3,0.8c0.9,0.5 1.6,1.2 2,2c0.5,0.9 0.8,2 0.8,3.1c0,-0.1 0,0.2 -0.1,0.6zm-7.9,-3.8c-0.6,0.5 -1,1.2 -1.1,2l6.5,0c-0.1,-0.9 -0.5,-1.5 -1.1,-2c-0.6,-0.5 -1.3,-0.8 -2.1,-0.8c-0.9,0 -1.6,0.2 -2.2,0.8z" class="st0"/>
       <path fill="#FFFFFF" d="m511.6,171.6l0,2.5c-0.2,0 -0.4,-0.1 -0.6,-0.1c-1.1,0 -1.9,0.3 -2.4,0.9s-0.9,1.5 -0.9,2.6l0,5.6l-2.7,0l0,-11.4l2.5,0l0,1.7c0.8,-1.2 2.2,-1.8 4.1,-1.8z" class="st0"/>
       <path fill="#FFFFFF" d="m514.6,169.4c-0.3,-0.3 -0.5,-0.7 -0.5,-1.2c0,-0.5 0.2,-0.9 0.5,-1.2c0.3,-0.3 0.8,-0.5 1.3,-0.5c0.5,0 0.9,0.2 1.3,0.5c0.3,0.3 0.5,0.7 0.5,1.1c0,0.5 -0.2,0.9 -0.5,1.2c-0.3,0.3 -0.8,0.5 -1.3,0.5c-0.7,0.1 -1,-0.1 -1.3,-0.4zm-0.2,2.3l2.7,0l0,11.5l-2.7,0l0,-11.5z" class="st0"/>
       <path fill="#FFFFFF" d="m531.9,178.4l-9,0c0.2,0.9 0.6,1.6 1.3,2c0.7,0.5 1.5,0.8 2.4,0.8c1.3,0 2.3,-0.4 3.1,-1.3l1.5,1.7c-0.5,0.6 -1.2,1.1 -2,1.4c-0.8,0.3 -1.7,0.5 -2.6,0.5c-1.3,0 -2.3,-0.3 -3.3,-0.8c-1,-0.5 -1.7,-1.2 -2.2,-2c-0.6,-0.9 -0.8,-2 -0.8,-3c0,-1.1 0.3,-2.1 0.8,-3c0.5,-0.9 1.2,-1.6 2.1,-2c0.9,-0.5 2,-0.8 3,-0.8c1.1,0 2.1,0.3 3,0.8c0.9,0.5 1.6,1.2 2,2c0.5,0.9 0.8,2 0.8,3.1c-0.1,-0.1 -0.1,0.2 -0.1,0.6zm-8,-3.8c-0.6,0.5 -1,1.2 -1.1,2l6.5,0c-0.1,-0.9 -0.5,-1.5 -1.1,-2c-0.6,-0.5 -1.3,-0.8 -2.1,-0.8s-1.6,0.2 -2.2,0.8z" class="st0"/>
       <path fill="#FFFFFF" d="m541.7,171.6l0,2.5c-0.2,0 -0.4,-0.1 -0.6,-0.1c-1.1,0 -1.9,0.3 -2.4,0.9c-0.6,0.6 -0.9,1.5 -0.9,2.6l0,5.6l-2.7,0l0,-11.4l2.5,0l0,1.7c0.8,-1.2 2.1,-1.8 4.1,-1.8z" class="st0"/>
       <path fill="#FFFFFF" d="m555.2,178.4l-9,0c0.2,0.9 0.6,1.6 1.3,2c0.7,0.5 1.5,0.8 2.4,0.8c1.3,0 2.3,-0.4 3.1,-1.3l1.5,1.7c-0.5,0.6 -1.2,1.1 -2,1.4c-0.8,0.3 -1.7,0.5 -2.6,0.5c-1.3,0 -2.3,-0.3 -3.3,-0.8c-1,-0.5 -1.7,-1.2 -2.2,-2c-0.6,-0.9 -0.8,-2 -0.8,-3c0,-1.1 0.3,-2.1 0.8,-3c0.5,-0.9 1.2,-1.6 2.1,-2c0.9,-0.5 2,-0.8 3,-0.8s2.1,0.3 3,0.8c0.9,0.5 1.6,1.2 2,2c0.5,0.9 0.8,2 0.8,3.1c-0.1,-0.1 -0.1,0.2 -0.1,0.6zm-8,-3.8c-0.6,0.5 -1,1.2 -1.1,2l6.5,0c-0.1,-0.9 -0.5,-1.5 -1.1,-2c-0.6,-0.5 -1.3,-0.8 -2.1,-0.8s-1.7,0.2 -2.2,0.8z" class="st0"/>
       <path fill="#FFFFFF" d="m568.2,172.9c0.9,0.9 1.3,2 1.3,3.7l0,6.5l-2.7,0l0,-6.2c0,-1 -0.2,-1.8 -0.7,-2.2c-0.5,-0.5 -1.2,-0.8 -2,-0.8c-1,0 -1.8,0.3 -2.3,0.9s-0.9,1.5 -0.9,2.5l0,5.8l-2.7,0l0,-11.4l2.5,0l0,1.5c0.5,-0.5 1,-1 1.7,-1.2c0.7,-0.3 1.5,-0.4 2.2,-0.4c1.6,0 2.7,0.4 3.6,1.3z" class="st0"/>
      </g>
     </g>
     <g>
      <polygon points="127.59999084472656,224.60000610351562 12.099998474121094,291.29998779296875 12.099998474121094,424.6000061035156 121.30000305175781,487.70001220703125 127.59999084472656,491.29998779296875 243.10000610351562,424.6000061035156 243.10000610351562,291.29998779296875 " fill="#00232D" class="st5" id="svg_9"/>
      <path fill="#FFFFFF" d="m149.3,275.2c-5.1,-10.8 -17.8,-12 -25.6,-10.6c-7.6,1.2 -12.6,5.8 -14.9,9.7c-2.3,3.9 -2.9,9.2 -2.8,11c0.2,1.3 1.7,5.3 0.5,6.4c-1.4,1.5 -6.8,5.4 -5.5,6.9c1.3,1.5 2.9,1.1 2.8,2.3c-0.2,1.3 -1.5,1.4 -1,2.8c0.6,1.5 1.4,1.6 1.4,1.6s-1.2,1.5 -0.6,2.3c0.7,0.8 2.5,1 2.1,2c-0.4,1 -2.1,3.4 -0.3,5.9c1.9,2.4 11,1.5 11,1.5l-0.6,8.7l25.1,0c0,-4.2 -0.4,-6.8 0,-11.6c0.5,-5.4 1.2,-5.7 4.5,-9.7c3.7,-4.2 8.9,-18.4 3.9,-29.2zm-18.3,-2l-1.3,19l-4,0l-1.3,-19l6.6,0zm-1,26.3c-0.7,0.7 -1.4,1 -2.4,1c-1,0 -1.8,-0.3 -2.4,-1c-0.7,-0.7 -1,-1.4 -1,-2.2c0,-1 0.3,-1.6 1,-2.2c0.7,-0.7 1.4,-1 2.4,-1c1.1,0 1.8,0.3 2.4,1c0.7,0.6 1,1.3 1,2.2c0,0.9 -0.4,1.6 -1,2.2z" class="st0"/>
      <g enable-background="new" class="st2">
       <path fill="#FFFFFF" d="m68.6,362.3l-7.5,0l-1.5,3.5l-2.8,0l6.7,-15l2.7,0l6.8,15l-2.9,0l-1.5,-3.5zm-1,-2.2l-2.8,-6.5l-2.8,6.5l5.6,0z" class="st0"/>
       <path fill="#FFFFFF" d="m85.2,355.5c0.9,0.9 1.3,2 1.3,3.7l0,6.5l-2.8,0l0,-6.2c0,-1 -0.2,-1.8 -0.7,-2.2s-1.2,-0.8 -2,-0.8c-1,0 -1.8,0.3 -2.3,0.9c-0.6,0.6 -0.9,1.5 -0.9,2.5l0,5.8l-2.6,0l0,-11.4l2.5,0l0,1.5c0.5,-0.5 1,-1 1.7,-1.2c0.7,-0.2 1.5,-0.4 2.2,-0.4c1.5,0 2.7,0.5 3.6,1.3z" class="st0"/>
       <path fill="#FFFFFF" d="m98.6,355.5c0.9,0.8 1.4,2 1.4,3.7l0,6.7l-2.5,0l0,-1.4c-0.3,0.5 -0.8,0.9 -1.4,1.2c-0.6,0.3 -1.4,0.4 -2.2,0.4c-0.9,0 -1.7,-0.2 -2.2,-0.5c-0.7,-0.3 -1.2,-0.7 -1.5,-1.3s-0.5,-1.1 -0.5,-1.8c0,-1.1 0.4,-1.9 1.2,-2.4c0.8,-0.6 2,-1 3.6,-1l2.9,0l0,-0.1c0,-0.8 -0.2,-1.5 -0.7,-1.9s-1.2,-0.7 -2.1,-0.7c-0.7,0 -1.3,0.1 -1.9,0.3c-0.6,0.2 -1.2,0.5 -1.6,0.9l-1.1,-2c0.6,-0.5 1.4,-0.8 2.1,-1.1c0.9,-0.2 1.8,-0.4 2.7,-0.4c1.7,0.1 3,0.5 3.8,1.4zm-2.4,8.1c0.5,-0.3 0.9,-0.8 1.1,-1.4l0,-1.4l-2.7,0c-1.6,0 -2.3,0.5 -2.3,1.6c0,0.5 0.2,0.9 0.6,1.2c0.4,0.3 0.9,0.4 1.7,0.4c0.5,0 1.1,-0.1 1.6,-0.4z" class="st0"/>
       <path fill="#FFFFFF" d="m104,349.9l2.7,0l0,15.9l-2.7,0l0,-15.9z" class="st0"/>
       <path fill="#FFFFFF" d="m121.5,354.4l-5.4,12.4c-0.5,1.3 -1.1,2.1 -1.9,2.6c-0.8,0.5 -1.6,0.8 -2.6,0.8c-0.6,0 -1.2,-0.1 -1.7,-0.3c-0.6,-0.2 -1,-0.5 -1.4,-0.8l1.1,-2c0.3,0.2 0.6,0.4 0.9,0.6c0.4,0.1 0.7,0.2 1.1,0.2c0.5,0 0.9,-0.1 1.2,-0.4c0.3,-0.2 0.6,-0.7 0.9,-1.3l0.2,-0.5l-5,-11.5l2.8,0l3.6,8.5l3.6,-8.5l2.6,0.2l0,0z" class="st0"/>
       <path fill="#FFFFFF" d="m124.3,365.6c-0.9,-0.2 -1.6,-0.6 -2.1,-0.9l1.1,-2c0.5,0.4 1.2,0.6 1.9,0.8c0.7,0.2 1.5,0.3 2.1,0.3c1.6,0 2.4,-0.4 2.4,-1.3c0,-0.4 -0.2,-0.7 -0.6,-0.9c-0.4,-0.2 -1.1,-0.3 -2,-0.5c-1,-0.1 -1.8,-0.3 -2.3,-0.5c-0.6,-0.2 -1.1,-0.5 -1.6,-1c-0.5,-0.5 -0.7,-1.1 -0.7,-2c0,-1.1 0.5,-2 1.4,-2.6c0.9,-0.7 2.1,-1 3.7,-1c0.8,0 1.6,0.1 2.3,0.3c0.8,0.2 1.5,0.4 2,0.7l-1.1,2c-1,-0.6 -2,-0.9 -3.3,-0.9c-0.8,0 -1.4,0.1 -1.8,0.4c-0.4,0.3 -0.6,0.6 -0.6,1s0.2,0.8 0.7,0.9c0.4,0.2 1.1,0.4 2,0.5c0.9,0.1 1.7,0.3 2.2,0.5c0.6,0.2 1.1,0.5 1.6,1c0.4,0.5 0.6,1.1 0.6,1.9c0,1.1 -0.5,2 -1.4,2.5c-0.9,0.6 -2.2,1 -3.8,1c-0.8,0.2 -1.8,0 -2.7,-0.2z" class="st0"/>
       <path fill="#FFFFFF" d="m135.2,352c-0.3,-0.3 -0.5,-0.7 -0.5,-1.2c0,-0.5 0.2,-0.9 0.5,-1.2c0.3,-0.3 0.8,-0.5 1.3,-0.5s0.9,0.2 1.3,0.5c0.3,0.3 0.5,0.7 0.5,1.1c0,0.5 -0.2,0.9 -0.5,1.2c-0.3,0.3 -0.8,0.5 -1.3,0.5c-0.6,0 -1,-0.1 -1.3,-0.4zm-0.1,2.4l2.7,0l0,11.4l-2.7,0l0,-11.4z" class="st0"/>
       <path fill="#FFFFFF" d="m152.6,360.9l-9,0c0.2,0.9 0.6,1.6 1.3,2c0.7,0.5 1.5,0.8 2.4,0.8c1.3,0 2.3,-0.4 3.1,-1.3l1.5,1.7c-0.5,0.6 -1.2,1.1 -2,1.4c-0.8,0.3 -1.7,0.5 -2.6,0.5c-1.3,0 -2.3,-0.3 -3.3,-0.8c-1,-0.5 -1.7,-1.2 -2.2,-2c-0.6,-0.9 -0.8,-2 -0.8,-3s0.3,-2.1 0.8,-3c0.5,-0.9 1.2,-1.6 2.1,-2c0.9,-0.5 2,-0.8 3,-0.8c1.1,0 2.1,0.3 3,0.8c0.9,0.5 1.6,1.2 2,2c0.5,0.9 0.8,2 0.8,3.1c-0.1,0 -0.1,0.3 -0.1,0.6zm-8,-3.8c-0.6,0.5 -1,1.2 -1.1,2l6.5,0c-0.1,-0.9 -0.5,-1.5 -1.1,-2c-0.6,-0.5 -1.3,-0.8 -2.1,-0.8c-0.8,0 -1.6,0.3 -2.2,0.8z" class="st0"/>
       <path fill="#FFFFFF" d="m162.3,354.2l0,2.5c-0.2,0 -0.4,-0.1 -0.6,-0.1c-1.1,0 -1.9,0.3 -2.4,0.9c-0.6,0.6 -0.9,1.5 -0.9,2.6l0,5.6l-2.7,0l0,-11.4l2.5,0l0,1.7c0.8,-1.2 2.2,-1.8 4.1,-1.8z" class="st0"/>
       <path fill="#FFFFFF" d="m175.8,360.9l-9,0c0.2,0.9 0.6,1.6 1.3,2c0.7,0.5 1.5,0.8 2.4,0.8c1.3,0 2.3,-0.4 3.1,-1.3l1.5,1.7c-0.5,0.6 -1.2,1.1 -2,1.4c-0.8,0.3 -1.7,0.5 -2.6,0.5c-1.3,0 -2.3,-0.3 -3.3,-0.8c-1,-0.5 -1.7,-1.2 -2.2,-2c-0.5,-0.9 -0.8,-2 -0.8,-3s0.3,-2.1 0.8,-3c0.5,-0.9 1.2,-1.6 2.1,-2c0.9,-0.5 2,-0.8 3,-0.8c1.1,0 2.1,0.3 3,0.8c0.9,0.5 1.6,1.2 2,2c0.5,0.9 0.8,2 0.8,3.1c-0.1,0 -0.1,0.3 -0.1,0.6zm-8,-3.8c-0.6,0.5 -1,1.2 -1.1,2l6.5,0c-0.1,-0.9 -0.5,-1.5 -1.1,-2c-0.6,-0.5 -1.3,-0.8 -2.1,-0.8c-0.8,0 -1.5,0.3 -2.2,0.8z" class="st0"/>
       <path fill="#FFFFFF" d="m188.9,355.5c0.9,0.9 1.3,2 1.3,3.7l0,6.5l-2.7,0l0,-6.2c0,-1 -0.2,-1.8 -0.7,-2.2c-0.5,-0.5 -1.2,-0.8 -2,-0.8c-1,0 -1.8,0.3 -2.3,0.9c-0.6,0.6 -0.9,1.5 -0.9,2.5l0,5.8l-2.9,0l0,-11.4l2.5,0l0,1.5c0.5,-0.5 1,-1 1.7,-1.2c0.7,-0.2 1.5,-0.4 2.2,-0.4c1.8,0 2.9,0.5 3.8,1.3z" class="st0"/>
       <path fill="#FFFFFF" d="m56,392.4l-1.9,-1.9c-1.4,1.2 -3.1,1.8 -5.1,1.8c-1.1,0 -2,-0.2 -2.8,-0.5c-0.9,-0.4 -1.5,-0.8 -2,-1.5c-0.5,-0.6 -0.7,-1.3 -0.7,-2c0,-1 0.3,-1.8 0.8,-2.4c0.6,-0.7 1.5,-1.4 2.6,-2c-0.6,-0.6 -1.1,-1.2 -1.3,-1.7c-0.3,-0.5 -0.4,-1.1 -0.4,-1.7c0,-1.1 0.4,-2 1.2,-2.5c0.8,-0.7 1.9,-1 3.1,-1c1.2,0 2.1,0.3 2.9,0.9c0.8,0.6 1.1,1.4 1.1,2.4c0,0.8 -0.2,1.5 -0.7,2c-0.5,0.6 -1.3,1.2 -2.3,1.9l3.2,3.1c0.4,-0.7 0.7,-1.6 0.9,-2.5l2.1,0.7c-0.3,1.4 -0.8,2.4 -1.4,3.4l1.9,1.8l-1.2,1.7zm-3.4,-3.4l-4,-3.8c-0.9,0.5 -1.5,1 -1.9,1.4c-0.4,0.4 -0.5,0.9 -0.5,1.5c0,0.6 0.3,1.2 0.9,1.6c0.6,0.4 1.3,0.6 2.2,0.6c1.2,-0.1 2.3,-0.5 3.3,-1.3zm-4.2,-9.7c-0.4,0.3 -0.5,0.7 -0.5,1.2c0,0.4 0.1,0.7 0.3,1c0.2,0.3 0.6,0.7 1.1,1.3c0.9,-0.5 1.5,-0.9 1.8,-1.3c0.3,-0.4 0.5,-0.8 0.5,-1.2c0,-0.5 -0.2,-0.8 -0.5,-1.1c-0.3,-0.3 -0.8,-0.4 -1.3,-0.4c-0.6,0.1 -1.1,0.2 -1.4,0.5z" class="st0"/>
       <path fill="#FFFFFF" d="m76.8,392.1l-3,-4.4c-0.1,0 -0.3,0 -0.6,0l-3.4,0l0,4.4l-2.8,0l0,-15l6.1,0c1.3,0 2.4,0.2 3.4,0.7c1,0.4 1.7,1.1 2.2,1.9c0.5,0.8 0.8,1.8 0.8,2.8c0,1.2 -0.3,2.1 -0.8,2.9s-1.4,1.5 -2.3,1.9l3.4,5l-3,-0.2c0,0.1 0,0 0,0zm-1.1,-11.9c-0.6,-0.5 -1.6,-0.8 -2.7,-0.8l-3.2,0l0,6l3.2,0c1.2,0 2.1,-0.3 2.7,-0.8c0.6,-0.5 1,-1.3 1,-2.2c0,-1 -0.3,-1.6 -1,-2.2z" class="st0"/>
       <path fill="#FFFFFF" d="m93.6,387.3l-9,0c0.2,0.9 0.6,1.6 1.3,2s1.5,0.8 2.4,0.8c1.3,0 2.3,-0.4 3.1,-1.3l1.5,1.7c-0.5,0.6 -1.2,1.1 -2,1.4c-0.8,0.3 -1.7,0.5 -2.6,0.5c-1.3,0 -2.3,-0.3 -3.3,-0.8c-1,-0.5 -1.7,-1.2 -2.2,-2c-0.6,-0.9 -0.8,-2 -0.8,-3s0.3,-2.1 0.8,-3c0.5,-0.9 1.2,-1.6 2.1,-2c0.9,-0.5 2,-0.8 3,-0.8c1.1,0 2.1,0.3 3,0.8c0.9,0.5 1.6,1.2 2,2c0.5,0.9 0.8,2 0.8,3.1c0,0 0,0.3 -0.1,0.6zm-7.9,-3.8c-0.6,0.5 -1,1.2 -1.1,2l6.5,0c-0.1,-0.9 -0.5,-1.5 -1.1,-2c-0.6,-0.5 -1.3,-0.8 -2.1,-0.8c-0.9,0 -1.7,0.3 -2.2,0.8z" class="st0"/>
       <path fill="#FFFFFF" d="m99.7,380l0,0.7l3.1,0l0,2.1l-3,0l0,9.3l-2.7,0l0,-9.3l-1.9,0l0,-2.1l1.9,0l0,-0.7c0,-1.3 0.4,-2.2 1.1,-2.9c0.7,-0.7 1.8,-1.1 3,-1.1c1.1,0 1.9,0.2 2.4,0.6l-0.8,2c-0.5,-0.3 -1,-0.5 -1.5,-0.5c-1,0.2 -1.6,0.8 -1.6,1.9zm5,-3.8l2.7,0l0,15.9l-2.7,0l0,-15.9z" class="st0"/>
       <path fill="#FFFFFF" d="m122.2,387.3l-9,0c0.2,0.9 0.6,1.6 1.3,2c0.7,0.5 1.5,0.8 2.4,0.8c1.3,0 2.3,-0.4 3.1,-1.3l1.5,1.7c-0.5,0.6 -1.2,1.1 -2,1.4s-1.7,0.5 -2.6,0.5c-1.3,0 -2.3,-0.3 -3.3,-0.8c-1,-0.5 -1.7,-1.2 -2.2,-2c-0.5,-0.9 -0.8,-2 -0.8,-3s0.3,-2.1 0.8,-3c0.5,-0.9 1.2,-1.6 2.1,-2c0.9,-0.5 2,-0.8 3,-0.8s2.1,0.3 3,0.8c0.9,0.5 1.6,1.2 2,2c0.5,0.9 0.8,2 0.8,3.1c-0.1,0 -0.1,0.3 -0.1,0.6zm-8,-3.8c-0.6,0.5 -1,1.2 -1.1,2l6.5,0c-0.1,-0.9 -0.5,-1.5 -1.1,-2c-0.6,-0.5 -1.3,-0.8 -2.1,-0.8c-0.9,0 -1.6,0.3 -2.2,0.8z" class="st0"/>
       <path fill="#FFFFFF" d="m130,387.3l-2,1.9l0,3l-2.7,0l0,-15.9l2.7,0l0,9.7l5.6,-5.2l3.2,0l-4.8,4.8l5.3,6.6l-3.2,0l-4.1,-4.9z" class="st0"/>
       <path fill="#FFFFFF" d="m146.3,391.6c-0.3,0.3 -0.7,0.5 -1.2,0.6c-0.5,0.1 -0.9,0.2 -1.5,0.2c-1.3,0 -2.2,-0.3 -2.9,-1c-0.7,-0.7 -1.1,-1.7 -1.1,-2.8l0,-5.6l-1.9,0l0,-2.1l1.9,0l0,-2.6l2.7,0l0,2.6l3,0l0,2.1l-3,0l0,5.5c0,0.6 0.1,1 0.4,1.3s0.7,0.5 1.2,0.5c0.6,0 1.1,-0.2 1.5,-0.5l0.9,1.8z" class="st0"/>
       <path fill="#FFFFFF" d="m149.3,378.4c-0.3,-0.3 -0.5,-0.7 -0.5,-1.2s0.2,-0.9 0.5,-1.2c0.3,-0.3 0.8,-0.5 1.3,-0.5c0.5,0 0.9,0.2 1.3,0.5c0.3,0.3 0.5,0.7 0.5,1.1c0,0.5 -0.2,0.9 -0.5,1.2c-0.3,0.3 -0.8,0.5 -1.3,0.5c-0.6,0 -1,-0.1 -1.3,-0.4zm-0.1,2.3l2.7,0l0,11.4l-2.7,0l0,-11.4z" class="st0"/>
       <path fill="#FFFFFF" d="m166.6,387.3l-9,0c0.2,0.9 0.6,1.6 1.3,2s1.5,0.8 2.4,0.8c1.3,0 2.3,-0.4 3.1,-1.3l1.5,1.7c-0.5,0.6 -1.2,1.1 -2,1.4s-1.7,0.5 -2.6,0.5c-1.3,0 -2.3,-0.3 -3.3,-0.8c-1,-0.5 -1.7,-1.2 -2.2,-2c-0.5,-0.9 -0.8,-2 -0.8,-3s0.3,-2.1 0.8,-3c0.5,-0.9 1.2,-1.6 2.1,-2c0.9,-0.5 2,-0.8 3,-0.8s2.1,0.3 3,0.8c0.9,0.5 1.6,1.2 2,2c0.5,0.9 0.8,2 0.8,3.1c-0.1,0 -0.1,0.3 -0.1,0.6zm-8,-3.8c-0.6,0.5 -1,1.2 -1.1,2l6.5,0c-0.1,-0.9 -0.5,-1.5 -1.1,-2c-0.6,-0.5 -1.3,-0.8 -2.1,-0.8c-0.8,0 -1.6,0.3 -2.2,0.8z" class="st0"/>
       <path fill="#FFFFFF" d="m176.4,380.5l0,2.5c-0.2,0 -0.4,-0.1 -0.6,-0.1c-1.1,0 -1.9,0.3 -2.4,0.9c-0.6,0.6 -0.9,1.5 -0.9,2.6l0,5.6l-2.7,0l0,-11.4l2.5,0l0,1.7c0.8,-1.2 2.1,-1.8 4.1,-1.8z" class="st0"/>
       <path fill="#FFFFFF" d="m189.9,387.3l-9,0c0.2,0.9 0.6,1.6 1.3,2c0.7,0.5 1.5,0.8 2.4,0.8c1.3,0 2.3,-0.4 3.1,-1.3l1.5,1.7c-0.5,0.6 -1.2,1.1 -2,1.4s-1.7,0.5 -2.6,0.5c-1.3,0 -2.3,-0.3 -3.3,-0.8c-1,-0.5 -1.7,-1.2 -2.2,-2c-0.5,-0.9 -0.8,-2 -0.8,-3s0.3,-2.1 0.8,-3c0.5,-0.9 1.2,-1.6 2.1,-2c0.9,-0.5 2,-0.8 3,-0.8s2.1,0.3 3,0.8c0.9,0.5 1.6,1.2 2,2c0.5,0.9 0.8,2 0.8,3.1c-0.1,0 -0.1,0.3 -0.1,0.6zm-8,-3.8c-0.6,0.5 -1,1.2 -1.1,2l6.5,0c-0.1,-0.9 -0.5,-1.5 -1.1,-2c-0.6,-0.5 -1.3,-0.8 -2.1,-0.8c-0.9,0 -1.6,0.3 -2.2,0.8z" class="st0"/>
       <path fill="#FFFFFF" d="m202.9,381.8c0.9,0.9 1.3,2 1.3,3.7l0,6.5l-2.7,0l0,-6.2c0,-1 -0.2,-1.8 -0.7,-2.2c-0.5,-0.5 -1.2,-0.8 -2,-0.8c-1,0 -1.8,0.3 -2.3,0.9c-0.6,0.6 -0.9,1.5 -0.9,2.5l0,5.8l-2.7,0l0,-11.4l2.5,0l0,1.5c0.5,-0.5 1,-1 1.7,-1.2c0.7,-0.2 1.5,-0.4 2.2,-0.4c1.7,0 2.8,0.5 3.6,1.3z" class="st0"/>
      </g>
     </g>
     <g>
      <polygon points="613.9999694824219,491.29998779296875 729.4999694824219,424.6000061035156 729.4999694824219,291.29998779296875 613.9999694824219,224.60000610351562 498.6000061035156,291.29998779296875 498.6000061035156,424.6000061035156 " fill="#00232D" class="st5" id="svg_8"/>
      <g>
       <circle fill="#FFFFFF" r="2.3" cy="282.2" cx="611.1" class="st0"/>
       <rect fill="#FFFFFF" height="3.1" width="16.9" class="st0" y="280.7" x="615.5"/>
       <path fill="#FFFFFF" d="m637.1,272l-33.5,0c-3.7,0 -6.7,3 -6.7,6.7l0,2l4.1,4.1l0,-5c0,-2.2 1.8,-4.1 4.1,-4.1l30.4,0c2.2,0 4.1,1.8 4.1,4.1l0,23c0,2.2 -1.8,4.1 -4.1,4.1l-10.7,0l-5.4,0l-1,0l-5.4,0l-3.5,0l-3.8,3.8l5.7,0l-6,6l2.6,2.6l8.6,-8.6l4,0l8.6,8.6l2.6,-2.6l-6,-6l10.6,0c3.7,0 6.7,-3 6.7,-6.7l0,-25.5c0.8,-3.5 -2.3,-6.5 -6,-6.5z" class="st0"/>
       <polygon fill="#FFFFFF" points="593.1999816894531,287.8999938964844 599.4999694824219,294.29998779296875 602.4999694824219,297.20001220703125 605.3999938964844,300 604.3999938964844,300.8999938964844 602.1000061035156,303.20001220703125 593.1999816894531,312 596.9999694824219,315.70001220703125 609.1000061035156,303.70001220703125 611.6999816894531,301 612.6999816894531,300 602.4999694824219,289.70001220703125 599.4999694824219,286.8999938964844 596.9999694824219,284.20001220703125 " class="st0"/>
       <path fill="#FFFFFF" d="m584.9,284.2l-3.7,3.7l12.1,12.1l-12.1,12.1l3.7,3.7l15.7,-15.7l0,-0.1l-15.7,-15.8z" class="st0"/>
       <circle fill="#FFFFFF" r="2.3" cy="289.5" cx="611.1" class="st0"/>
       <rect fill="#FFFFFF" height="3.1" width="16.9" class="st0" y="287.8" x="615.5"/>
       <rect fill="#FFFFFF" height="3.1" width="16.9" class="st0" y="295.1" x="615.5"/>
      </g>
      <g enable-background="new" class="st2">
       <path fill="#FFFFFF" d="m552.7,351.5c1,0.4 1.7,1.1 2.2,1.9c0.5,0.8 0.8,1.8 0.8,2.8s-0.3,2 -0.8,2.8c-0.5,0.8 -1.3,1.5 -2.2,1.9c-1,0.4 -2.1,0.7 -3.4,0.7l-3.4,0l0,4.3l-2.8,0l0,-15l6.1,0c1.5,-0.1 2.5,0.1 3.5,0.6zm-0.8,6.9c0.6,-0.5 1,-1.3 1,-2.2c0,-1 -0.3,-1.7 -1,-2.2c-0.6,-0.5 -1.6,-0.8 -2.7,-0.8l-3.2,0l0,6l3.2,0c1.2,-0.1 2.1,-0.3 2.7,-0.8z" class="st0"/>
       <path fill="#FFFFFF" d="m565.3,354.2l0,2.5c-0.2,0 -0.4,-0.1 -0.6,-0.1c-1.1,0 -1.9,0.3 -2.4,0.9c-0.6,0.6 -0.9,1.5 -0.9,2.6l0,5.6l-2.7,0l0,-11.4l2.5,0l0,1.7c0.8,-1.2 2.1,-1.8 4.1,-1.8z" class="st0"/>
       <path fill="#FFFFFF" d="m570.1,365.2c-1,-0.5 -1.7,-1.2 -2.1,-2c-0.5,-0.9 -0.8,-2 -0.8,-3c0,-1.2 0.3,-2.1 0.8,-3c0.5,-0.9 1.3,-1.6 2.1,-2c1,-0.5 2,-0.8 3.1,-0.8c1.2,0 2.2,0.3 3.1,0.8c1,0.5 1.7,1.2 2.1,2c0.5,0.9 0.8,1.9 0.8,3s-0.3,2.1 -0.8,3c-0.5,0.9 -1.3,1.6 -2.1,2c-1,0.5 -2,0.8 -3.1,0.8c-1.2,0 -2.2,-0.3 -3.1,-0.8zm5.5,-2.5c0.7,-0.7 1,-1.6 1,-2.6c0,-1.1 -0.3,-2 -1,-2.6c-0.7,-0.7 -1.5,-1 -2.4,-1c-1,0 -1.8,0.3 -2.4,1c-0.7,0.7 -1,1.6 -1,2.6c0,1.1 0.3,2 1,2.6c0.7,0.7 1.5,1 2.4,1c1,0 1.8,-0.3 2.4,-1z" class="st0"/>
       <path fill="#FFFFFF" d="m593.6,349.9l0,15.9l-2.5,0l0,-1.5c-0.5,0.6 -1,1 -1.7,1.3c-0.7,0.3 -1.4,0.4 -2.1,0.4c-1.1,0 -2,-0.2 -2.9,-0.7c-0.9,-0.5 -1.6,-1.2 -2,-2c-0.5,-0.9 -0.8,-2 -0.8,-3.1s0.3,-2.1 0.8,-3c0.5,-0.9 1.2,-1.6 2,-2c0.9,-0.5 1.9,-0.7 2.9,-0.7c0.8,0 1.5,0.1 2,0.4c0.6,0.3 1.2,0.7 1.6,1.2l0,-5.9l2.7,0l0,-0.3l0,0zm-4.3,13.4c0.5,-0.3 0.9,-0.7 1.3,-1.3c0.3,-0.6 0.5,-1.2 0.5,-1.9s-0.2,-1.4 -0.5,-1.9c-0.3,-0.6 -0.7,-1 -1.3,-1.3c-0.6,-0.3 -1.1,-0.5 -1.8,-0.5c-0.7,0 -1.3,0.2 -1.8,0.5c-0.5,0.3 -0.9,0.7 -1.3,1.3c-0.3,0.6 -0.5,1.2 -0.5,1.9s0.2,1.4 0.5,1.9c0.3,0.6 0.7,1 1.3,1.3c0.5,0.3 1.1,0.5 1.8,0.5c0.7,0 1.3,-0.2 1.8,-0.5z" class="st0"/>
       <path fill="#FFFFFF" d="m608.8,354.4l0,11.4l-2.5,0l0,-1.5c-0.4,0.5 -1,0.9 -1.7,1.2c-0.7,0.3 -1.4,0.4 -2,0.4c-1.6,0 -2.7,-0.4 -3.6,-1.3c-0.9,-0.9 -1.4,-2.1 -1.4,-3.8l0,-6.5l2.7,0l0,6.1c0,1.1 0.2,1.8 0.7,2.3c0.5,0.5 1.2,0.8 2,0.8c1,0 1.8,-0.3 2.2,-0.9c0.6,-0.6 0.9,-1.5 0.9,-2.5l0,-5.8l2.7,0l0,0.1z" class="st0"/>
       <path fill="#FFFFFF" d="m621.8,363.7l0,2.1l-9.9,0l0,-1.7l6.2,-7.6l-6.1,0l0,-2.1l9.6,0l0,1.7l-6.3,7.6l6.5,0z" class="st0"/>
       <path fill="#FFFFFF" d="m624.9,352c-0.3,-0.3 -0.5,-0.7 -0.5,-1.2c0,-0.5 0.2,-0.9 0.5,-1.2c0.3,-0.3 0.8,-0.5 1.3,-0.5c0.5,0 0.9,0.2 1.3,0.5c0.3,0.3 0.5,0.7 0.5,1.1c0,0.5 -0.2,0.9 -0.5,1.2c-0.3,0.3 -0.8,0.5 -1.3,0.5c-0.5,0 -1,-0.1 -1.3,-0.4zm-0.1,2.4l2.7,0l0,11.4l-2.7,0l0,-11.4z" class="st0"/>
       <path fill="#FFFFFF" d="m642.3,360.9l-9,0c0.2,0.9 0.6,1.6 1.3,2c0.7,0.5 1.5,0.8 2.4,0.8c1.3,0 2.3,-0.4 3.1,-1.3l1.5,1.7c-0.5,0.6 -1.2,1.1 -2,1.4s-1.7,0.5 -2.6,0.5c-1.3,0 -2.3,-0.3 -3.3,-0.8c-1,-0.5 -1.7,-1.2 -2.2,-2c-0.6,-0.9 -0.8,-2 -0.8,-3s0.3,-2.1 0.8,-3c0.5,-0.9 1.2,-1.6 2.1,-2c0.9,-0.5 2,-0.8 3,-0.8c1.1,0 2.1,0.3 3,0.8c0.9,0.5 1.6,1.2 2,2c0.5,0.9 0.8,2 0.8,3.1c-0.1,0 -0.1,0.3 -0.1,0.6zm-7.9,-3.8c-0.6,0.5 -1,1.2 -1.1,2l6.5,0c-0.1,-0.9 -0.5,-1.5 -1.1,-2c-0.6,-0.5 -1.3,-0.8 -2.1,-0.8c-1,0 -1.6,0.3 -2.2,0.8z" class="st0"/>
       <path fill="#FFFFFF" d="m652,354.2l0,2.5c-0.2,0 -0.4,-0.1 -0.6,-0.1c-1.1,0 -1.9,0.3 -2.4,0.9c-0.6,0.6 -0.9,1.5 -0.9,2.6l0,5.6l-2.7,0l0,-11.4l2.5,0l0,1.7c0.8,-1.2 2.2,-1.8 4.1,-1.8z" class="st0"/>
       <path fill="#FFFFFF" d="m665.5,360.9l-9,0c0.2,0.9 0.6,1.6 1.3,2c0.7,0.5 1.5,0.8 2.4,0.8c1.3,0 2.3,-0.4 3.1,-1.3l1.5,1.7c-0.5,0.6 -1.2,1.1 -2,1.4s-1.7,0.5 -2.6,0.5c-1.3,0 -2.3,-0.3 -3.3,-0.8c-1,-0.5 -1.7,-1.2 -2.2,-2c-0.6,-0.9 -0.8,-2 -0.8,-3s0.3,-2.1 0.8,-3c0.5,-0.9 1.2,-1.6 2.1,-2c0.9,-0.5 2,-0.8 3,-0.8c1.1,0 2.1,0.3 3,0.8c0.9,0.5 1.6,1.2 2,2c0.5,0.9 0.8,2 0.8,3.1c-0.1,0 -0.1,0.3 -0.1,0.6zm-7.9,-3.8c-0.6,0.5 -1,1.2 -1.1,2l6.5,0c-0.1,-0.9 -0.5,-1.5 -1.1,-2c-0.6,-0.5 -1.3,-0.8 -2.1,-0.8c-0.9,0 -1.6,0.3 -2.2,0.8z" class="st0"/>
       <path fill="#FFFFFF" d="m678.6,355.5c0.9,0.9 1.3,2 1.3,3.7l0,6.5l-2.7,0l0,-6.2c0,-1 -0.2,-1.8 -0.7,-2.2c-0.5,-0.5 -1.2,-0.8 -2,-0.8c-1,0 -1.8,0.3 -2.3,0.9c-0.6,0.6 -0.9,1.5 -0.9,2.5l0,5.8l-2.7,0l0,-11.4l2.5,0l0,1.5c0.5,-0.5 1,-1 1.7,-1.2c0.7,-0.3 1.5,-0.4 2.2,-0.4c1.6,0 2.8,0.5 3.6,1.3z" class="st0"/>
       <path fill="#FFFFFF" d="m539.7,392.4l-1.9,-1.9c-1.4,1.2 -3.1,1.8 -5.1,1.8c-1.1,0 -2,-0.2 -2.8,-0.5c-0.9,-0.4 -1.5,-0.8 -2,-1.5c-0.5,-0.6 -0.7,-1.3 -0.7,-2c0,-1 0.3,-1.8 0.8,-2.4c0.6,-0.7 1.5,-1.4 2.6,-2c-0.6,-0.6 -1.1,-1.2 -1.3,-1.7c-0.3,-0.5 -0.4,-1.1 -0.4,-1.7c0,-1.1 0.4,-2 1.2,-2.5c0.8,-0.7 1.9,-1 3.1,-1c1.2,0 2.1,0.3 2.9,0.9c0.8,0.6 1.1,1.4 1.1,2.4c0,0.8 -0.2,1.5 -0.7,2c-0.5,0.6 -1.3,1.2 -2.3,1.9l3.2,3.1c0.4,-0.7 0.7,-1.6 0.9,-2.5l2.1,0.7c-0.3,1.4 -0.8,2.4 -1.4,3.4l1.9,1.8l-1.2,1.7zm-3.5,-3.4l-4,-3.8c-0.9,0.5 -1.5,1 -1.9,1.4c-0.4,0.4 -0.5,0.9 -0.5,1.5c0,0.6 0.3,1.2 0.9,1.6c0.6,0.4 1.3,0.6 2.2,0.6c1.4,-0.1 2.4,-0.5 3.3,-1.3zm-4.1,-9.7c-0.4,0.3 -0.5,0.7 -0.5,1.2c0,0.4 0.1,0.7 0.3,1c0.2,0.3 0.6,0.7 1.1,1.3c0.9,-0.5 1.5,-0.9 1.8,-1.3c0.3,-0.4 0.5,-0.8 0.5,-1.2c0,-0.5 -0.2,-0.8 -0.5,-1.1c-0.3,-0.3 -0.8,-0.4 -1.3,-0.4c-0.6,0.1 -1.1,0.2 -1.4,0.5z" class="st0"/>
       <path fill="#FFFFFF" d="m560.2,377.8c1,0.4 1.7,1.1 2.2,1.9c0.5,0.8 0.8,1.8 0.8,2.8s-0.3,2 -0.8,2.8c-0.5,0.8 -1.3,1.5 -2.2,1.9c-1,0.4 -2.1,0.7 -3.4,0.7l-3.4,0l0,4.3l-2.8,0l0,-15l6.1,0c1.4,-0.1 2.5,0.1 3.5,0.6zm-0.8,6.9c0.6,-0.5 1,-1.3 1,-2.2s-0.3,-1.7 -1,-2.2c-0.6,-0.5 -1.6,-0.8 -2.7,-0.8l-3.2,0l0,6l3.2,0c1.2,-0.1 2.1,-0.3 2.7,-0.8z" class="st0"/>
       <path fill="#FFFFFF" d="m572.8,380.5l0,2.5c-0.2,0 -0.4,-0.1 -0.6,-0.1c-1.1,0 -1.9,0.3 -2.4,0.9c-0.6,0.6 -0.9,1.5 -0.9,2.6l0,5.6l-2.7,0l0,-11.4l2.5,0l0,1.7c0.8,-1.2 2.2,-1.8 4.1,-1.8z" class="st0"/>
       <path fill="#FFFFFF" d="m583.8,381.8c0.9,0.8 1.4,2 1.4,3.7l0,6.7l-2.5,0l0,-1.4c-0.3,0.5 -0.8,0.9 -1.4,1.2c-0.6,0.3 -1.4,0.4 -2.2,0.4s-1.7,-0.2 -2.2,-0.5s-1.2,-0.7 -1.5,-1.3c-0.3,-0.6 -0.5,-1.1 -0.5,-1.8c0,-1.1 0.4,-1.9 1.2,-2.4c0.8,-0.6 2,-1 3.6,-1l2.9,0l0,-0.2c0,-0.8 -0.2,-1.5 -0.7,-1.9s-1.2,-0.7 -2.1,-0.7c-0.7,0 -1.3,0.1 -1.9,0.3c-0.6,0.2 -1.2,0.5 -1.6,0.9l-1.1,-2c0.6,-0.5 1.4,-0.8 2.1,-1.1s1.8,-0.4 2.7,-0.4c1.6,0.2 2.9,0.6 3.8,1.5zm-6.7,-3.3c-0.2,-0.2 -0.4,-0.6 -0.4,-0.9c0,-0.4 0.1,-0.7 0.4,-1c0.3,-0.3 0.6,-0.4 0.9,-0.4c0.4,0 0.7,0.1 0.9,0.4c0.2,0.2 0.4,0.6 0.4,1s-0.1,0.7 -0.4,0.9c-0.2,0.2 -0.6,0.4 -0.9,0.4c-0.3,0 -0.6,-0.1 -0.9,-0.4zm4.2,11.4c0.5,-0.3 0.9,-0.8 1.1,-1.4l0,-1.4l-2.7,0c-1.6,0 -2.3,0.5 -2.3,1.6c0,0.5 0.2,0.9 0.6,1.2c0.4,0.3 0.9,0.4 1.6,0.4c0.6,0.1 1.2,-0.1 1.7,-0.4zm0,-11.4c-0.2,-0.2 -0.4,-0.6 -0.4,-0.9c0,-0.4 0.1,-0.7 0.4,-1c0.2,-0.2 0.6,-0.4 0.9,-0.4c0.4,0 0.7,0.1 0.9,0.4c0.2,0.2 0.4,0.6 0.4,1s-0.1,0.7 -0.4,0.9c-0.2,0.2 -0.6,0.4 -0.9,0.4c-0.3,0 -0.6,-0.1 -0.9,-0.4z" class="st0"/>
       <path fill="#FFFFFF" d="m589.9,391.9c-0.9,-0.2 -1.6,-0.6 -2.1,-0.9l1.1,-2c0.5,0.4 1.2,0.6 1.9,0.8s1.5,0.3 2.1,0.3c1.6,0 2.4,-0.4 2.4,-1.3c0,-0.4 -0.2,-0.7 -0.6,-0.9c-0.4,-0.2 -1.1,-0.3 -2,-0.5c-1,-0.1 -1.8,-0.3 -2.3,-0.5s-1.1,-0.5 -1.6,-1c-0.5,-0.5 -0.7,-1.1 -0.7,-2c0,-1.1 0.5,-2 1.4,-2.6s2.1,-1 3.7,-1c0.8,0 1.6,0.1 2.3,0.3c0.8,0.2 1.5,0.4 2,0.7l-1.1,2c-1,-0.6 -2,-0.9 -3.3,-0.9c-0.8,0 -1.4,0.1 -1.8,0.4c-0.4,0.3 -0.6,0.6 -0.6,1s0.2,0.8 0.7,0.9c0.4,0.2 1.1,0.4 2,0.5c0.9,0.1 1.7,0.3 2.2,0.5c0.6,0.2 1.1,0.5 1.6,1c0.4,0.5 0.6,1.1 0.6,1.9c0,1.1 -0.5,2 -1.4,2.5c-1,0.7 -2.2,1 -3.8,1c-0.9,0.2 -1.8,0 -2.7,-0.2z" class="st0"/>
       <path fill="#FFFFFF" d="m611.4,387.3l-9,0c0.2,0.9 0.6,1.6 1.3,2s1.5,0.8 2.4,0.8c1.3,0 2.3,-0.4 3.1,-1.3l1.5,1.7c-0.5,0.6 -1.2,1.1 -2,1.4s-1.7,0.5 -2.6,0.5c-1.3,0 -2.3,-0.3 -3.3,-0.8c-1,-0.5 -1.7,-1.2 -2.2,-2c-0.6,-0.9 -0.8,-2 -0.8,-3s0.3,-2.1 0.8,-3c0.5,-0.9 1.2,-1.6 2.1,-2c0.9,-0.5 2,-0.8 3,-0.8c1.1,0 2.1,0.3 3,0.8c0.9,0.5 1.6,1.2 2,2c0.5,0.9 0.8,2 0.8,3.1c-0.1,0 -0.1,0.3 -0.1,0.6zm-7.9,-3.8c-0.6,0.5 -1,1.2 -1.1,2l6.5,0c-0.1,-0.9 -0.5,-1.5 -1.1,-2c-0.6,-0.5 -1.3,-0.8 -2.1,-0.8c-0.9,0 -1.6,0.3 -2.2,0.8z" class="st0"/>
       <path fill="#FFFFFF" d="m624.5,381.8c0.9,0.9 1.3,2 1.3,3.7l0,6.5l-2.7,0l0,-6.2c0,-1 -0.2,-1.8 -0.7,-2.2c-0.5,-0.5 -1.2,-0.8 -2,-0.8c-1,0 -1.8,0.3 -2.3,0.9c-0.6,0.6 -0.9,1.5 -0.9,2.5l0,5.8l-2.7,0l0,-11.4l2.5,0l0,1.5c0.5,-0.5 1,-1 1.7,-1.2c0.7,-0.3 1.5,-0.4 2.2,-0.4c1.7,0 2.7,0.5 3.6,1.3z" class="st0"/>
       <path fill="#FFFFFF" d="m636.7,391.6c-0.3,0.3 -0.7,0.5 -1.2,0.6c-0.5,0.1 -1,0.2 -1.5,0.2c-1.3,0 -2.2,-0.3 -2.9,-1c-0.7,-0.7 -1.1,-1.7 -1.1,-2.8l0,-5.6l-1.9,0l0,-2.1l1.9,0l0,-2.6l2.7,0l0,2.6l3,0l0,2.1l-3,0l0,5.5c0,0.6 0.1,1 0.4,1.3s0.7,0.5 1.2,0.5c0.6,0 1.1,-0.2 1.5,-0.5l0.9,1.8z" class="st0"/>
       <path fill="#FFFFFF" d="m639.5,378.4c-0.3,-0.3 -0.5,-0.7 -0.5,-1.2s0.2,-0.9 0.5,-1.2c0.3,-0.3 0.8,-0.5 1.3,-0.5s0.9,0.2 1.3,0.5c0.3,0.3 0.5,0.7 0.5,1.1c0,0.5 -0.2,0.9 -0.5,1.2c-0.3,0.3 -0.8,0.5 -1.3,0.5s-0.9,-0.1 -1.3,-0.4zm-0.1,2.3l2.7,0l0,11.4l-2.7,0l0,-11.4z" class="st0"/>
       <path fill="#FFFFFF" d="m656.9,387.3l-9,0c0.2,0.9 0.6,1.6 1.3,2s1.5,0.8 2.4,0.8c1.3,0 2.3,-0.4 3.1,-1.3l1.5,1.7c-0.5,0.6 -1.2,1.1 -2,1.4s-1.7,0.5 -2.6,0.5c-1.3,0 -2.3,-0.3 -3.3,-0.8s-1.7,-1.2 -2.2,-2c-0.5,-0.9 -0.8,-2 -0.8,-3s0.3,-2.1 0.8,-3c0.5,-0.9 1.2,-1.6 2.1,-2c0.9,-0.5 2,-0.8 3,-0.8s2.1,0.3 3,0.8c0.9,0.5 1.6,1.2 2,2c0.5,0.9 0.8,2 0.8,3.1c0,0 -0.1,0.3 -0.1,0.6zm-7.9,-3.8c-0.6,0.5 -1,1.2 -1.1,2l6.5,0c-0.1,-0.9 -0.5,-1.5 -1.1,-2c-0.6,-0.5 -1.3,-0.8 -2.1,-0.8c-0.9,0 -1.6,0.3 -2.2,0.8z" class="st0"/>
       <path fill="#FFFFFF" d="m666.7,380.5l0,2.5c-0.2,0 -0.4,-0.1 -0.6,-0.1c-1.1,0 -1.9,0.3 -2.4,0.9c-0.6,0.6 -0.9,1.5 -0.9,2.6l0,5.6l-2.7,0l0,-11.4l2.5,0l0,1.7c0.9,-1.2 2.2,-1.8 4.1,-1.8z" class="st0"/>
       <path fill="#FFFFFF" d="m680.1,387.3l-9,0c0.2,0.9 0.6,1.6 1.3,2s1.5,0.8 2.4,0.8c1.3,0 2.3,-0.4 3.1,-1.3l1.5,1.7c-0.5,0.6 -1.2,1.1 -2,1.4s-1.7,0.5 -2.6,0.5c-1.3,0 -2.3,-0.3 -3.3,-0.8s-1.7,-1.2 -2.2,-2c-0.6,-0.9 -0.8,-2 -0.8,-3s0.3,-2.1 0.8,-3c0.5,-0.9 1.2,-1.6 2.1,-2c0.9,-0.5 2,-0.8 3,-0.8c1.1,0 2.1,0.3 3,0.8c0.9,0.5 1.6,1.2 2,2c0.5,0.9 0.8,2 0.8,3.1c0,0 0,0.3 -0.1,0.6zm-7.9,-3.8c-0.6,0.5 -1,1.2 -1.1,2l6.5,0c-0.1,-0.9 -0.5,-1.5 -1.1,-2c-0.6,-0.5 -1.3,-0.8 -2.1,-0.8c-0.9,0 -1.6,0.3 -2.2,0.8z" class="st0"/>
       <path fill="#FFFFFF" d="m693.3,381.8c0.9,0.9 1.3,2 1.3,3.7l0,6.5l-2.7,0l0,-6.2c0,-1 -0.2,-1.8 -0.7,-2.2s-1.2,-0.8 -2,-0.8c-1,0 -1.8,0.3 -2.3,0.9c-0.6,0.6 -0.9,1.5 -0.9,2.5l0,5.8l-2.7,0l0,-11.4l2.5,0l0,1.5c0.5,-0.5 1,-1 1.7,-1.2c0.7,-0.3 1.5,-0.4 2.2,-0.4c1.6,0 2.7,0.5 3.6,1.3z" class="st0"/>
      </g>
     </g>
     <g>
      <polygon points="141.1999969482422,497.5 133.6999969482422,501.8999938964844 133.6999969482422,635.2999572753906 249.20001220703125,701.9000549316406 364.70001220703125,635.2999572753906 364.70001220703125,501.8999938964844 249.20001220703125,435.20001220703125 " fill="#00232D" class="st5" id="svg_7"/>
      <g enable-background="new" class="st2">
       <path fill="#FFFFFF" d="m178.3,563.1c1,0.4 1.7,1.1 2.2,1.9c0.6,0.8 0.8,1.8 0.8,2.8s-0.3,2 -0.8,2.8c-0.5,0.8 -1.3,1.5 -2.2,1.9c-1,0.4 -2.1,0.7 -3.4,0.7l-3.4,0l0,4.3l-2.8,0l0,-15l6.1,0c1.3,0 2.5,0.2 3.5,0.6zm-0.8,6.9c0.6,-0.5 1,-1.3 1,-2.2c0,-1 -0.3,-1.7 -1,-2.2c-0.6,-0.5 -1.6,-0.8 -2.7,-0.8l-3.2,0l0,6l3.2,0c1.1,0 2,-0.2 2.7,-0.8z" class="st0"/>
       <path fill="#FFFFFF" d="m190.8,565.9l0,2.5c-0.2,0 -0.4,-0.1 -0.6,-0.1c-1.1,0 -1.9,0.3 -2.4,0.9c-0.6,0.6 -0.9,1.5 -0.9,2.6l0,5.6l-2.7,0l0,-11.4l2.5,0l0,1.7c0.8,-1.2 2.2,-1.8 4.1,-1.8z" class="st0"/>
       <path fill="#FFFFFF" d="m195.5,576.9c-1,-0.5 -1.7,-1.2 -2.1,-2c-0.5,-0.9 -0.8,-2 -0.8,-3c0,-1.2 0.3,-2.1 0.8,-3c0.5,-0.9 1.3,-1.6 2.1,-2c1,-0.5 2,-0.8 3.1,-0.8s2.2,0.3 3.1,0.8c1,0.5 1.7,1.2 2.1,2c0.5,0.9 0.8,1.9 0.8,3s-0.3,2.1 -0.8,3c-0.5,0.9 -1.3,1.6 -2.1,2c-1,0.5 -2,0.8 -3.1,0.8c-1.1,-0.1 -2.1,-0.3 -3.1,-0.8zm5.6,-2.5c0.7,-0.7 1,-1.6 1,-2.6c0,-1.1 -0.3,-2 -1,-2.6c-0.7,-0.7 -1.5,-1 -2.4,-1s-1.8,0.3 -2.4,1c-0.7,0.7 -1,1.6 -1,2.6c0,1.1 0.3,2 1,2.6c0.7,0.7 1.5,1 2.4,1s1.8,-0.3 2.4,-1z" class="st0"/>
       <path fill="#FFFFFF" d="m217.3,566.7c0.9,0.5 1.6,1.2 2,2c0.5,0.9 0.8,2 0.8,3c0,1.2 -0.3,2.1 -0.8,3.1c-0.5,1 -1.2,1.6 -2,2c-0.9,0.5 -1.9,0.7 -3,0.7c-0.8,0 -1.5,-0.1 -2.1,-0.4c-0.7,-0.3 -1.2,-0.7 -1.7,-1.3l0,1.5l-2.5,0l0,-15.9l2.7,0l0,5.9c0.5,-0.5 1,-0.9 1.7,-1.2c0.6,-0.3 1.3,-0.4 2,-0.4c0.9,0.2 2,0.5 2.9,1zm-0.9,7.7c0.7,-0.7 1,-1.6 1,-2.6c0,-1.1 -0.3,-2 -1,-2.6s-1.5,-1 -2.4,-1c-0.7,0 -1.3,0.2 -1.8,0.5c-0.5,0.3 -0.9,0.7 -1.3,1.3c-0.3,0.6 -0.5,1.2 -0.5,1.9c0,0.7 0.2,1.4 0.5,1.9c0.3,0.6 0.7,1 1.3,1.3c0.5,0.3 1.1,0.5 1.8,0.5c0.9,-0.2 1.7,-0.5 2.4,-1.2z" class="st0"/>
       <path fill="#FFFFFF" d="m223.1,561.6l2.7,0l0,15.9l-2.7,0l0,-15.9z" class="st0"/>
       <path fill="#FFFFFF" d="m240.6,572.6l-9,0c0.2,0.9 0.6,1.6 1.3,2c0.7,0.5 1.5,0.8 2.4,0.8c1.3,0 2.3,-0.4 3.1,-1.3l1.5,1.7c-0.5,0.6 -1.2,1.1 -2,1.4c-0.8,0.3 -1.7,0.5 -2.6,0.5c-1.3,0 -2.3,-0.3 -3.3,-0.8c-1,-0.5 -1.7,-1.2 -2.2,-2c-0.5,-0.9 -0.8,-2 -0.8,-3c0,-1.1 0.3,-2.1 0.8,-3c0.5,-0.9 1.2,-1.6 2.1,-2c0.9,-0.5 2,-0.8 3,-0.8c1.1,0 2.1,0.3 3,0.8c0.9,0.5 1.6,1.2 2,2c0.5,0.9 0.8,2 0.8,3.1c0,0.1 0,0.3 -0.1,0.6zm-7.9,-3.8c-0.6,0.5 -1,1.2 -1.1,2l6.5,0c-0.1,-0.9 -0.5,-1.5 -1.1,-2c-0.6,-0.5 -1.3,-0.8 -2.1,-0.8c-0.8,0.1 -1.6,0.3 -2.2,0.8z" class="st0"/>
       <path fill="#FFFFFF" d="m261.7,567.2c0.9,0.9 1.3,2 1.3,3.8l0,6.5l-2.7,0l0,-6.2c0,-1 -0.2,-1.8 -0.7,-2.2s-1.1,-0.8 -2,-0.8c-0.9,0 -1.7,0.3 -2.1,0.9c-0.6,0.6 -0.8,1.5 -0.8,2.5l0,5.9l-2.7,0l0,-6.2c0,-1 -0.2,-1.8 -0.7,-2.2s-1.1,-0.8 -2,-0.8c-0.9,0 -1.7,0.3 -2.1,0.9c-0.5,0.6 -0.8,1.5 -0.8,2.5l0,5.9l-2.7,0l0,-11.4l2.5,0l0,1.5c0.4,-0.5 1,-0.9 1.6,-1.2c0.7,-0.3 1.4,-0.4 2.1,-0.4c0.9,0 1.7,0.2 2.2,0.5c0.7,0.3 1.2,0.8 1.6,1.5c0.5,-0.6 1.1,-1.1 1.9,-1.4s1.6,-0.5 2.4,-0.5c1.7,-0.4 2.8,0 3.7,0.9z" class="st0"/>
       <path fill="#FFFFFF" d="m266.9,561.6l2.7,0l0,15.9l-2.7,0l0,-15.9z" class="st0"/>
       <path fill="#FFFFFF" d="m275.7,576.9c-1,-0.5 -1.7,-1.2 -2.1,-2c-0.5,-0.9 -0.8,-2 -0.8,-3c0,-1.2 0.3,-2.1 0.8,-3c0.5,-0.9 1.3,-1.6 2.1,-2c1,-0.5 2,-0.8 3.1,-0.8s2.2,0.3 3.1,0.8c1,0.5 1.7,1.2 2.1,2s0.8,1.9 0.8,3s-0.3,2.1 -0.8,3c-0.5,0.9 -1.3,1.6 -2.1,2c-1,0.5 -2,0.8 -3.1,0.8c-1.1,-0.1 -2.2,-0.3 -3.1,-0.8zm0.1,-13c-0.2,-0.2 -0.4,-0.6 -0.4,-0.9c0,-0.4 0.1,-0.7 0.4,-1c0.3,-0.3 0.6,-0.4 0.9,-0.4c0.4,0 0.7,0.1 0.9,0.4c0.2,0.2 0.4,0.6 0.4,1c0,0.4 -0.1,0.7 -0.4,0.9c-0.2,0.2 -0.6,0.4 -0.9,0.4c-0.4,0 -0.7,-0.1 -0.9,-0.4zm5.5,10.5c0.7,-0.7 1,-1.6 1,-2.6c0,-1.1 -0.3,-2 -1,-2.6c-0.7,-0.7 -1.5,-1 -2.4,-1c-1,0 -1.8,0.3 -2.4,1c-0.7,0.7 -1,1.6 -1,2.6c0,1.1 0.3,2 1,2.6c0.7,0.7 1.5,1 2.4,1c0.9,0 1.7,-0.3 2.4,-1zm-1.4,-10.5c-0.2,-0.2 -0.4,-0.6 -0.4,-0.9c0,-0.4 0.1,-0.7 0.4,-1c0.2,-0.2 0.6,-0.4 0.9,-0.4s0.7,0.1 0.9,0.4c0.2,0.2 0.4,0.6 0.4,1c0,0.4 -0.1,0.7 -0.4,0.9c-0.2,0.2 -0.6,0.4 -0.9,0.4s-0.6,-0.1 -0.9,-0.4z" class="st0"/>
       <path fill="#FFFFFF" d="m288.9,577.3c-0.9,-0.2 -1.6,-0.6 -2.1,-0.9l1.1,-2c0.5,0.4 1.2,0.6 1.9,0.8s1.5,0.3 2.1,0.3c1.6,0 2.4,-0.4 2.4,-1.3c0,-0.4 -0.2,-0.7 -0.6,-0.9c-0.4,-0.2 -1.1,-0.3 -2,-0.5c-1,-0.1 -1.8,-0.3 -2.3,-0.5c-0.6,-0.2 -1.1,-0.5 -1.6,-1s-0.7,-1.1 -0.7,-2c0,-1.1 0.5,-2 1.4,-2.6c0.9,-0.7 2.1,-1 3.7,-1c0.8,0 1.6,0.1 2.3,0.3s1.5,0.4 2,0.7l-1.1,2c-1,-0.6 -2,-0.9 -3.3,-0.9c-0.8,0 -1.4,0.1 -1.8,0.4s-0.6,0.6 -0.6,1c0,0.4 0.2,0.8 0.7,0.9c0.4,0.2 1.1,0.4 2,0.5c0.9,0.1 1.7,0.3 2.2,0.5c0.6,0.2 1.1,0.5 1.6,1c0.4,0.5 0.6,1.1 0.6,1.9c0,1.1 -0.5,2 -1.4,2.5c-1,0.7 -2.2,1 -3.8,1c-1,0.1 -1.8,0 -2.7,-0.2z" class="st0"/>
       <path fill="#FFFFFF" d="m310.4,572.6l-9,0c0.2,0.9 0.6,1.6 1.3,2c0.7,0.5 1.5,0.8 2.4,0.8c1.3,0 2.3,-0.4 3.1,-1.3l1.5,1.7c-0.5,0.6 -1.2,1.1 -2,1.4c-0.8,0.3 -1.7,0.5 -2.6,0.5c-1.3,0 -2.3,-0.3 -3.3,-0.8c-1,-0.5 -1.7,-1.2 -2.2,-2c-0.5,-0.9 -0.8,-2 -0.8,-3c0,-1.1 0.3,-2.1 0.8,-3c0.5,-0.9 1.2,-1.6 2.1,-2c0.9,-0.5 2,-0.8 3,-0.8c1.1,0 2.1,0.3 3,0.8c0.9,0.5 1.6,1.2 2,2s0.8,2 0.8,3.1c-0.1,0.1 -0.1,0.3 -0.1,0.6zm-7.9,-3.8c-0.6,0.5 -1,1.2 -1.1,2l6.5,0c-0.1,-0.9 -0.5,-1.5 -1.1,-2c-0.6,-0.5 -1.3,-0.8 -2.1,-0.8c-1,0.1 -1.7,0.3 -2.2,0.8z" class="st0"/>
       <path fill="#FFFFFF" d="m323.5,567.2c0.9,0.9 1.3,2 1.3,3.7l0,6.5l-2.7,0l0,-6.2c0,-1 -0.2,-1.8 -0.7,-2.2c-0.5,-0.5 -1.2,-0.8 -2,-0.8c-1,0 -1.8,0.3 -2.3,0.9c-0.6,0.6 -0.9,1.5 -0.9,2.5l0,5.8l-2.7,0l0,-11.4l2.5,0l0,1.5c0.5,-0.5 1,-1 1.7,-1.2c0.7,-0.3 1.5,-0.4 2.2,-0.4c1.6,0 2.8,0.4 3.6,1.3z" class="st0"/>
       <path fill="#FFFFFF" d="m200,604.1l-1.9,-1.9c-1.4,1.2 -3.1,1.8 -5.1,1.8c-1.1,0 -2,-0.2 -2.8,-0.5c-0.9,-0.4 -1.5,-0.8 -2,-1.5c-0.5,-0.6 -0.7,-1.3 -0.7,-2c0,-1 0.3,-1.8 0.8,-2.4c0.6,-0.7 1.5,-1.4 2.6,-2c-0.6,-0.6 -1.1,-1.2 -1.3,-1.7c-0.3,-0.5 -0.4,-1.1 -0.4,-1.7c0,-1.1 0.4,-2 1.2,-2.5c0.8,-0.7 1.9,-1 3.1,-1c1.2,0 2.1,0.3 2.9,0.9s1.1,1.4 1.1,2.4c0,0.8 -0.2,1.5 -0.7,2c-0.5,0.6 -1.3,1.2 -2.3,1.9l3.2,3.1c0.4,-0.7 0.7,-1.6 0.9,-2.5l2.1,0.7c-0.3,1.4 -0.8,2.4 -1.4,3.4l1.9,1.8l-1.2,1.7zm-3.4,-3.4l-4,-3.8c-0.9,0.5 -1.5,1 -1.9,1.4c-0.4,0.4 -0.5,0.9 -0.5,1.5c0,0.6 0.3,1.2 0.9,1.6c0.6,0.4 1.3,0.6 2.2,0.6c1.2,-0.1 2.3,-0.5 3.3,-1.3zm-4.2,-9.7c-0.4,0.3 -0.5,0.7 -0.5,1.2c0,0.4 0.1,0.7 0.3,1c0.2,0.3 0.6,0.7 1.1,1.3c0.9,-0.5 1.5,-0.9 1.8,-1.3c0.3,-0.4 0.5,-0.8 0.5,-1.2c0,-0.5 -0.2,-0.8 -0.5,-1.1c-0.3,-0.3 -0.8,-0.4 -1.3,-0.4c-0.6,0.1 -1.1,0.2 -1.4,0.5z" class="st0"/>
       <path fill="#FFFFFF" d="m224.3,588.8l0,15l-2.8,0l0,-6.4l-7.8,0l0,6.4l-2.8,0l0,-15l2.8,0l0,6.2l7.8,0l0,-6.2l2.8,0z" class="st0"/>
       <path fill="#FFFFFF" d="m236.8,593.5c0.9,0.8 1.4,2 1.4,3.7l0,6.7l-2.5,0l0,-1.4c-0.3,0.5 -0.8,0.9 -1.4,1.2c-0.6,0.3 -1.4,0.4 -2.2,0.4s-1.7,-0.2 -2.2,-0.5c-0.7,-0.3 -1.2,-0.7 -1.5,-1.3c-0.3,-0.6 -0.5,-1.1 -0.5,-1.8c0,-1.1 0.4,-1.9 1.2,-2.4c0.8,-0.6 2,-1 3.6,-1l2.9,0l0,-0.3c0,-0.8 -0.2,-1.5 -0.7,-1.9c-0.5,-0.4 -1.2,-0.7 -2.1,-0.7c-0.7,0 -1.3,0.1 -1.9,0.3c-0.6,0.2 -1.2,0.5 -1.6,0.9l-1.1,-2c0.6,-0.5 1.4,-0.8 2.1,-1.1c0.9,-0.2 1.8,-0.4 2.7,-0.4c1.6,0.4 2.9,0.7 3.8,1.6zm-2.4,8.1c0.5,-0.3 0.9,-0.8 1.1,-1.4l0,-1.4l-2.8,0c-1.6,0 -2.3,0.5 -2.3,1.6c0,0.5 0.2,0.9 0.6,1.2c0.4,0.3 0.9,0.4 1.6,0.4c0.7,0 1.3,-0.1 1.8,-0.4z" class="st0"/>
       <path fill="#FFFFFF" d="m252.1,593.5c0.9,0.9 1.3,2 1.3,3.7l0,6.5l-2.7,0l0,-6.2c0,-1 -0.2,-1.8 -0.7,-2.2c-0.5,-0.5 -1.2,-0.8 -2,-0.8c-1,0 -1.8,0.3 -2.3,0.9c-0.6,0.6 -0.9,1.5 -0.9,2.5l0,5.8l-2.7,0l0,-11.4l2.5,0l0,1.5c0.5,-0.5 1,-1 1.7,-1.2c0.7,-0.3 1.5,-0.4 2.2,-0.4c1.6,0.1 2.7,0.4 3.6,1.3z" class="st0"/>
       <path fill="#FFFFFF" d="m268.7,588l0,15.9l-2.5,0l0,-1.5c-0.5,0.6 -1,1 -1.7,1.3s-1.4,0.4 -2.1,0.4c-1.1,0 -2,-0.2 -2.9,-0.7c-0.9,-0.5 -1.6,-1.2 -2,-2c-0.5,-0.9 -0.8,-2 -0.8,-3.1c0,-1.2 0.3,-2.1 0.8,-3c0.5,-0.9 1.2,-1.6 2,-2c0.9,-0.5 1.9,-0.7 2.9,-0.7c0.8,0 1.5,0.1 2,0.4c0.6,0.3 1.2,0.7 1.6,1.2l0,-5.9l2.7,0l0,-0.3l0,0zm-4.3,13.2c0.5,-0.3 0.9,-0.7 1.3,-1.3c0.3,-0.6 0.5,-1.2 0.5,-1.9c0,-0.7 -0.2,-1.4 -0.5,-1.9s-0.7,-1 -1.3,-1.3c-0.5,-0.3 -1.1,-0.5 -1.8,-0.5s-1.3,0.2 -1.8,0.5c-0.5,0.3 -0.9,0.7 -1.3,1.3c-0.3,0.6 -0.5,1.2 -0.5,1.9c0,0.7 0.2,1.4 0.5,1.9c0.3,0.6 0.7,1 1.3,1.3c0.5,0.3 1.1,0.5 1.8,0.5s1.3,-0.2 1.8,-0.5z" class="st0"/>
       <path fill="#FFFFFF" d="m283.5,599l-9,0c0.2,0.9 0.6,1.6 1.3,2c0.7,0.5 1.5,0.8 2.4,0.8c1.3,0 2.3,-0.4 3.1,-1.3l1.5,1.7c-0.5,0.6 -1.2,1.1 -2,1.4c-0.8,0.3 -1.7,0.5 -2.6,0.5c-1.3,0 -2.3,-0.3 -3.3,-0.8c-1,-0.5 -1.7,-1.2 -2.2,-2c-0.5,-0.9 -0.8,-2 -0.8,-3c0,-1.1 0.3,-2.1 0.8,-3c0.5,-0.9 1.2,-1.6 2.1,-2c0.9,-0.5 2,-0.8 3,-0.8c1.1,0 2.1,0.3 3,0.8c0.9,0.5 1.6,1.2 2,2s0.8,2 0.8,3.1c-0.1,0 -0.1,0.2 -0.1,0.6zm-8,-3.8c-0.6,0.5 -1,1.2 -1.1,2l6.5,0c-0.1,-0.9 -0.5,-1.5 -1.1,-2c-0.6,-0.5 -1.3,-0.8 -2.1,-0.8c-0.8,0 -1.5,0.3 -2.2,0.8z" class="st0"/>
       <path fill="#FFFFFF" d="m286.6,588l2.7,0l0,15.9l-2.7,0l0,-15.9z" class="st0"/>
       <path fill="#FFFFFF" d="m303.3,593.5c0.9,0.9 1.3,2 1.3,3.7l0,6.5l-2.7,0l0,-6.2c0,-1 -0.2,-1.8 -0.7,-2.2c-0.5,-0.5 -1.2,-0.8 -2,-0.8c-1,0 -1.8,0.3 -2.3,0.9c-0.6,0.6 -0.9,1.5 -0.9,2.5l0,5.8l-2.7,0l0,-11.4l2.5,0l0,1.5c0.5,-0.5 1,-1 1.7,-1.2c0.7,-0.3 1.5,-0.4 2.2,-0.4c1.7,0.1 2.9,0.4 3.6,1.3z" class="st0"/>
      </g>
      <g>
       <path fill="#FFFFFF" d="m259.7,508.2c2.6,-1 2,-2.8 1.8,-4.7c-0.3,-1.8 -0.2,-3.8 -3,-3.8c-3,0 -4.7,-3.1 -3,-5.5c1.9,-2.8 -0.6,-3.5 -1.9,-5.1c-1.3,-1.5 -2.5,-2.3 -4.5,-0.7c-2.4,1.9 -5.4,0.7 -5.9,-2.3c-0.4,-2 -1.4,-2.6 -3,-2.4c-1.9,0.4 -4.5,-1.3 -5.4,2c-0.9,3.4 -3.4,4.3 -6.2,2c-0.6,-0.5 -1.2,-1.3 -2,-1c-2,0.9 -3.5,2.2 -4.9,3.8c-1,1.1 0.3,2.1 0.7,3.1c1,2.4 -0.6,5.4 -3.2,5.1c-2.4,-0.3 -3.3,0.9 -3.4,3c-0.2,2 -1.6,4.3 1.6,5.4c3,1.1 3.4,4.3 1,6.2c-1.9,1.5 -1.6,2.8 -0.5,4.4c1.1,1.6 1.2,4.3 4.4,3.1c3.4,-1.2 5.6,0.8 5,4.2c-0.5,3 1.6,3.1 3.4,3.9c1.7,0.8 3.2,1.4 4.5,-1c1.5,-2.6 4.8,-2.6 6.2,0c1.5,2.7 3.4,1.5 5.4,1c1.9,-0.5 3.4,-1.2 2.8,-3.4c-0.3,-3.4 2,-5.4 5.1,-4.2c2.4,1 3.1,-0.5 3.9,-2s2.9,-3 0.5,-5.1c-2.8,-1.7 -2.3,-4.9 0.6,-6zm-21.2,7.7c-5,0 -8.6,-3.7 -8.6,-8.6c0,-4.8 3.9,-8.7 8.6,-8.7c4.6,0 8.6,4 8.7,8.8c0,4.6 -4.1,8.5 -8.7,8.5z" class="st0"/>
       <g>
        <g>
         <path fill="#FFFFFF" d="m280,517.6c0.8,-0.5 1,-1.9 0.8,-4c-2,-3.8 -4.2,-7.9 -6.3,-11.6c-5,-8.3 -8.3,-12.2 -10.2,-13.2c0.9,-1 1.5,-2.8 -0.6,-5.1c-2.7,-3 -7.9,-6.6 -7.9,-6.6s1.4,4.6 2.1,10.1c0.5,3 2.9,3.2 4.2,3c-0.1,2.3 1.8,7.1 6.7,15.3c2,3.3 4.2,6.7 6.3,10c2.3,1.9 4,2.6 4.9,2.1z" class="st0"/>
        </g>
        <g>
         <path fill="#FFFFFF" d="m281.9,515.9c-0.1,1.3 -0.5,2.2 -1.3,2.6c-1,0.6 -2.3,0.4 -3.8,-0.6c4.4,6.3 8.4,11 9.4,10.3c0.8,-0.4 -1.1,-5.8 -4.3,-12.3z" class="st0"/>
        </g>
       </g>
      </g>
     </g>
    </g>
   </g>
   <g id="svg_2">
    <g>
     <polygon points="370.5,248.8000030517578 280,301 370.5,353.3999938964844 460.8000183105469,301 " data-element_type="unterrichtsbausteine" fill="transparent" id="svg_5" class="st7"/>
    </g>
    <g>
     <polygon points="274.70001220703125,414.5 365,466.70001220703125 365,362.6000061035156 274.70001220703125,310.20001220703125 " data-element_type="tools" fill="transparent" id="svg_4" class="st7"/>
    </g>
    <g>
     <polygon points="375.8000183105469,466.70001220703125 466.1000061035156,414.5 466.1000061035156,310.20001220703125 375.8000183105469,362.6000061035156 " data-element_type="trends" fill="transparent" id="svg_3" class="st7"/>
    </g>
    <polygon points="364.70001220703125,80.5999984741211 249.10000610351562,13.89999771118164 133.6999969482422,80.5999984741211 133.6999969482422,214 249.10000610351562,280.70001220703125 348.5,223.3000030517578 364.70001220703125,214 " fill="transparent" data-element_type="suchen-verarbeiten-aufbewahren" class="st6"/>
    <polygon points="492.3999938964844,280.70001220703125 607.8999938964844,213.89999389648438 607.8999938964844,80.5999984741211 492.3999938964844,14 376.8000183105469,80.5999984741211 376.8000183105469,213.89999389648438 399.1000061035156,226.89999389648438 " fill="transparent" data-element_type="kommunizieren-kooperieren" class="st6"/>
    <polygon points="613.8999938964844,491.29998779296875 729.4999694824219,424.6000061035156 729.4999694824219,291.29998779296875 613.8999938964844,224.60000610351562 498.6000061035156,291.29998779296875 498.6000061035156,424.6000061035156 " fill="transparent" data-element_type="produzieren-praesentieren" class="st6"/>
    <polygon points="376.8000183105469,635.2999572753906 399.1000061035156,648.1000061035156 492.3999938964844,701.9000549316406 607.8999938964844,635.2999572753906 607.8999938964844,501.8999938964844 492.3999938964844,435.20001220703125 394,492.1000061035156 376.8000183105469,501.8999938964844 " fill="transparent" data-element_type="schuetzen-sicher-agieren" class="st6"/>
    <polygon points="141.1999969482422,497.5 133.6999969482422,501.8999938964844 133.6999969482422,635.2999572753906 249.10000610351562,701.9000549316406 364.70001220703125,635.2999572753906 364.70001220703125,501.8999938964844 249.10000610351562,435.20001220703125 " fill="transparent" data-element_type="problemloesen-handeln" class="st6"/>
    <polygon points="127.59999084472656,224.60000610351562 12,291.29998779296875 12,424.6000061035156 121.19999694824219,487.70001220703125 127.59999084472656,491.29998779296875 243.10000610351562,424.6000061035156 243.10000610351562,291.29998779296875 " fill="transparent" data-element_type="analysieren-reflektieren" class="st6"/>
   </g>
  </g>
  <path stroke-width="0" stroke="#000" id="svg_17" d="m163.28499,124l177.99999,0l0,94l-177.99999,0l0,-94z" opacity="undefined" fill="#00232d"/>
  <path stroke="#000" stroke-width="0" id="svg_18" d="m396.28499,129l191.99999,0l0,94l-191.99999,0l0,-94z" opacity="undefined" fill="#00232d"/>
  <path stroke="#000" stroke-width="0" id="svg_19" d="m522.28499,329l182.99999,0l0,94l-182.99999,0l0,-94z" opacity="undefined" fill="#00232d"/>
  <path stroke-width="0" stroke="#000" id="svg_20" d="m405.28499,543l177.99999,0l0,94l-177.99999,0l0,-94z" opacity="undefined" fill="#00232d"/>
  <path stroke-width="0" stroke="#000" id="svg_21" d="m160.28499,547l177.99999,0l0,94l-177.99999,0l0,-94z" opacity="undefined" fill="#00232d"/>
  <path stroke-width="0" stroke="#000" id="svg_22" d="m38.28499,337l177.99999,0l0,94l-177.99999,0l0,-94z" opacity="undefined" fill="#00232d"/>
  <text font-weight="bold" xml:space="preserve" text-anchor="start" font-family="'Assistant'" font-size="24" id="svg_25" y="164" x="404.28497" stroke-width="0" stroke="#000" fill="#ffffff">Kommunizieren</text>
  <text font-weight="bold" xml:space="preserve" text-anchor="start" font-family="'Assistant'" font-size="24" id="svg_26" y="198" x="414.28497" stroke-width="0" stroke="#000" fill="#ffffff">&amp; Kooperieren</text>
  <text font-weight="bold" xml:space="preserve" text-anchor="start" font-family="'Assistant'" font-size="24" id="svg_27" y="165" x="183.28497" stroke-width="0" stroke="#000" fill="#ffffff">Informieren</text>
  <text font-weight="bold" xml:space="preserve" text-anchor="start" font-family="'Assistant'" font-size="24" id="svg_28" y="196" x="161.28497" stroke-width="0" stroke="#000" fill="#ffffff">&amp; Recherchieren</text>
  <text font-weight="bold" xml:space="preserve" text-anchor="start" font-family="'Assistant'" font-size="24" id="svg_29" y="372" x="551.28497" stroke-width="0" stroke="#000" fill="#ffffff">Produzieren</text>
  <text font-weight="bold" xml:space="preserve" text-anchor="start" font-family="'Assistant'" font-size="24" id="svg_30" y="404" x="538.28497" stroke-width="0" stroke="#000" fill="#ffffff">&amp; Prsentieren</text>
  <text font-weight="bold" xml:space="preserve" text-anchor="start" font-family="'Assistant'" font-size="24" id="svg_31" y="585" x="438.28497" stroke-width="0" stroke="#000" fill="#ffffff">Bedienen</text>
  <text font-weight="bold" xml:space="preserve" text-anchor="start" font-family="'Assistant'" font-size="24" id="svg_32" y="615" x="423.28497" stroke-width="0" stroke="#000" fill="#ffffff">&amp; Anwenden</text>
  <text font-weight="bold" xml:space="preserve" text-anchor="start" font-family="'Assistant'" font-size="24" id="svg_33" y="580" x="170.28497" stroke-width="0" stroke="#000" fill="#ffffff">Problemlsen</text>
  <text font-weight="bold" xml:space="preserve" text-anchor="start" font-family="'Assistant'" font-size="24" id="svg_34" y="610" x="169.28497" stroke-width="0" stroke="#000" fill="#ffffff">&amp; Modellieren</text>
  <text stroke="#000" font-weight="bold" xml:space="preserve" text-anchor="start" font-family="'Assistant'" font-size="24" id="svg_35" y="373" x="61.28497" stroke-width="0" fill="#ffffff">Analysieren</text>
  <text font-weight="bold" xml:space="preserve" text-anchor="start" font-family="'Assistant'" font-size="24" id="svg_36" y="405" x="49.28497" stroke-width="0" stroke="#000" fill="#ffffff">&amp; Reflektieren</text>
 </g>

</svg>