<svg version="1.2" xmlns="http://www.w3.org/2000/svg" viewBox="0 0 2000 1009" width="2000" height="1009">
	<title>dllflower_final_cmyk-ai</title>
	<style>
		tspan { white-space:pre } 
		.s0 { fill: #fefefe } 
		.s1 { fill: #001c29 } 
		.s2 { fill: #c5a671 } 
		.s3 { fill: #ed223f } 
		.s4 { fill: #2c84c6 } 
		.t5 { font-size: 24px;fill: #ffffff;font-weight: 400;font-family: "DejaVuSans", "DejaVu Sans" } 
	</style>
	<g id="Ebene 1">
		<g id="Ebene 1 1 ">
			<path id="&lt;Compound Path&gt;" fill-rule="evenodd" class="s0" d="m1321.5 419.3v150.8l-124.7 72v144l-130.7 75.4-124.7-72-16.6 9.6-108.1 62.4-130.7-75.4v-143.9l-6.6-3.8-118-68.2v-150.9l124.7-72v-143.9l130.7-75.5 124.7 72 124.6-71.9 130.6 75.4v143.9zm-379.9 212.5l17.5-10.2 101-58.4v-136.9l-118.6-68.5-118.6 68.5v136.9z"/>
			<path id="&lt;Path&gt;" class="s0" d="m941 619.9l-108-62.4v-124.6l108-62.4 108 62.4v124.4z"/>
		</g>
		<path id="&lt;Path&gt;" class="s1" d="m970.5 360.4l-22.8-13.3v-136.6l118.4-68.3 118.4 68.3v136.6l-118.4 68.5z"/>
		<path id="&lt;Path&gt;" class="s1" d="m1072.4 563.1v-136.7l118.3-68.3 118.4 68.3v136.7l-118.4 68.3z"/>
		<path id="&lt;Path&gt;" class="s1" d="m947.7 642.3l17.5-10.1 100.9-58.3 118.4 68.4v136.7l-118.4 68.3-95.6-55.2-22.8-13.1z"/>
		<path id="&lt;Path&gt;" class="s1" d="m935.2 347.2l-16.5 9.5-101.9 58.9-118.4-68.4v-136.7l118.4-68.4 118.4 68.4z"/>
		<path id="&lt;Path&gt;" class="s1" d="m816.8 573.9l118.4 68.4v136.7l-118.4 68.3-118.4-68.3v-136.7l7.7-4.5z"/>
		<path id="&lt;Path&gt;" class="s1" d="m810.6 426.4v136.7l-118.4 68.3-6.5-3.7-111.9-64.6v-136.7l118.4-68.3z"/>
		<g id="&lt;Group&gt;">
			<path id="&lt;Path&gt;" class="s2" d="m946.6 499.5l92.6-53.7v106.9l-92.6 53.5z"/>
		</g>
		<g id="&lt;Group&gt;">
			<path id="&lt;Path&gt;" class="s3" d="m1033.7 436.4l-92.5 53.7-92.7-53.7 92.7-53.5z"/>
		</g>
		<g id="&lt;Group&gt;">
			<path id="&lt;Path&gt;" class="s4" d="m843 445.8l92.6 53.7v106.7l-92.6-53.5z"/>
		</g>
		<path id="&lt;Compound Path&gt;" fill-rule="evenodd" class="s0" d="m710.6 439.8c-3.4 4.1-4.1 4.4-4.6 9.9-0.4 4.9 0 7.6 0 11.9h-25.7l0.6-8.9c0 0-9.4 1-11.3-1.5-1.9-2.5-0.1-5 0.3-6 0.4-1-1.5-1.2-2.2-2-0.6-0.9 0.6-2.4 0.6-2.4 0 0-0.8-0.1-1.4-1.6-0.5-1.5 0.8-1.6 1-2.9 0.1-1.3-1.6-0.9-2.9-2.4-1.4-1.6 4.2-5.6 5.6-7.1 1.2-1.2-0.3-5.3-0.5-6.6-0.1-1.9 0.4-7.3 2.9-11.3 2.4-4 7.5-8.7 15.3-9.9 8-1.4 21-0.2 26.2 10.9 5 11.1-0.3 25.7-3.9 29.9zm-21.6-31.9l1.3 19.5h4.1l1.3-19.5zm6.6 24.6c0-1-0.3-1.7-1-2.3-0.7-0.7-1.4-1-2.5-1-1.1 0-1.8 0.3-2.5 1-0.7 0.7-1 1.3-1 2.3 0 0.9 0.3 1.6 1 2.3 0.7 0.7 1.5 1 2.5 1 1.1 0 1.8-0.3 2.5-1 0.7-0.6 1.1-1.3 1-2.3z"/>
		<g id="&lt;Group&gt;">
			<g id="&lt;Group&gt;">
				<path id="&lt;Path&gt;" class="s0" d="m1056.2 235.6v5.7c0 2-1.6 3.6-3.6 3.6h-7.6c-1.9 0-3.4-1.5-3.4-3.4v-5.8c0-0.7 0.3-1.3 0.6-1.9l5-7.9c-2.6-0.9-4.5-3.2-4.5-6.1 0-3.5 2.9-6.4 6.4-6.4 3.5 0 6.4 2.9 6.4 6.4 0 3-1.9 5.3-4.5 6.1l5 7.9c0.3 0.5 0.5 1.2 0.2 1.8z"/>
				<path id="&lt;Path&gt;" class="s0" d="m1072.9 235.6v5.7c0 2-1.6 3.6-3.6 3.6h-7.6c-1.9 0-3.4-1.5-3.4-3.4v-5.8c0-0.7 0.3-1.3 0.6-1.9l5-7.9c-2.6-0.9-4.5-3.2-4.5-6.1 0-3.5 2.9-6.4 6.4-6.4 3.5 0 6.4 2.9 6.4 6.4 0 3-1.9 5.3-4.5 6.1l5 7.9c0.4 0.5 0.5 1.2 0.2 1.8z"/>
				<path id="&lt;Path&gt;" class="s0" d="m1089.7 235.6v5.7c0 2-1.6 3.6-3.6 3.6h-7.6c-1.9 0-3.4-1.5-3.4-3.4v-5.8c0-0.7 0.3-1.3 0.6-1.9l5-7.9c-2.6-0.9-4.5-3.2-4.5-6.1 0-3.5 2.9-6.4 6.4-6.4 3.5 0 6.4 2.9 6.4 6.4 0 3-1.9 5.3-4.5 6.1l5 7.9c0.3 0.5 0.6 1.2 0.2 1.8z"/>
			</g>
			<g id="&lt;Group&gt;">
				<path id="&lt;Path&gt;" class="s0" d="m1068.4 203.6c-1.2 1.2-2.6 2.3-4.3 3.3l-0.8 3.8-4.2-1.9c-1.9 0.4-3.7 0.7-5.7 0.7-9.6 0-17.5-5.8-17.5-12.8 0-7.1 7.8-12.8 17.5-12.8 4.1 0 7.7 1 10.7 2.7-1.4 2-2.3 4.2-2.3 6.6 0 4 2.4 7.9 6.6 10.4z"/>
				<path id="&lt;Path&gt;" class="s0" d="m1096 193.4c0 6.6-7 11.8-15.6 11.8-1.8 0-3.4-0.3-5-0.7l-3.7 1.7-0.7-3.5c-0.2-0.1-0.3-0.2-0.5-0.3-3.5-2.1-5.8-5.4-5.8-9.1 0-2.1 0.8-4.1 2-5.8 2.6-3.7 7.7-6.1 13.6-6.1 8.8 0 15.7 5.3 15.7 12z"/>
			</g>
		</g>
		<g id="&lt;Group&gt;">
			<path id="&lt;Compound Path&gt;" fill-rule="evenodd" class="s0" d="m844.2 200.9v25.6c0 3-1.8 5.7-4.5 6.9-0.4 0.9-0.8 1.5-1.5 2.2l-1.4-1.5-1.8-1.9-4.4-4.5c2.2-4.3 1.5-9.6-1.9-13-4.3-4.6-11.6-4.7-16.1-0.3-2.1 2.1-3.3 5-3.4 8 0 3.1 1.1 5.9 3.2 8.1 0.7 0.7 1.3 1.2 2.1 1.7 3.2 2.1 7.3 2.4 10.8 0.8l1.2 1.2 3.3 3.4h-32.8c-3.7 0-6.6-2.9-6.6-6.6v-25.5c0-0.2 0.1-0.5 0.1-0.8h-0.1v-9h2v-5.3h17.6l2.7 3.2h24c4.3 0 7.7 3.3 7.5 7.3zm-1.8 0.3c0-3-2.5-5.6-5.6-5.6h-24.9l-2.7-3.2h-14.7v3.4h12.2l2.7 3.2h24.4c3.7 0 6.6 2.9 6.6 6.6v25.6c1.2-1.1 2-2.6 2-4.4z"/>
			<path id="&lt;Compound Path&gt;" fill-rule="evenodd" class="s0" d="m836.8 236.9l4.4 4.5-2.6 2.5-6-6.2-3.3-3.4-1.8-1.9-1.6-1.7-0.7 0.3c-3.7 2-8.4 1.3-11.3-1.7-1.8-1.8-2.8-4.2-2.7-6.7 0-2.5 1.1-4.8 2.9-6.6 3.8-3.6 9.8-3.4 13.4 0.3 2.9 3 3.5 7.7 1.3 11.3l-0.4 0.7 4 4.2 1.8 1.9zm-11.8-18.3c-2.3-2.6-6.3-2.6-8.7-0.2-2.6 2.3-2.6 6.2-0.2 8.7 2.3 2.6 6.3 2.6 8.7 0.2 2.4-2.4 2.5-6.3 0.2-8.7z"/>
		</g>
		<g id="&lt;Group&gt;">
			<path id="&lt;Path&gt;" class="s0" d="m1187.7 414.7c1.3 0 2.4 1.1 2.4 2.4 0 1.3-1.1 2.4-2.4 2.4-1.3 0-2.4-1.1-2.4-2.4 0-1.3 1.1-2.4 2.4-2.4z"/>
			<path id="&lt;Path&gt;" class="s0" d="m1192.4 415.6h17.3v3.2h-17.3z"/>
			<path id="&lt;Path&gt;" class="s0" d="m1220.9 413.4v26.1c0 3.8-3.1 6.9-6.9 6.9h-10.9l6.1 6.1-2.7 2.7-8.8-8.8h-4.1l-8.8 8.8-2.7-2.7 6.1-6.1h-5.8l3.9-3.9h3.6 5.5 1 5.5 11c2.4 0 4.2-1.9 4.2-4.2v-23.6c0-2.4-1.9-4.2-4.2-4.2h-31.2c-2.4 0-4.2 1.9-4.2 4.2v5.1l-4.2-4.2v-2c0-3.8 3.1-6.9 6.9-6.9h34.3c3.7 0 6.9 3 6.4 6.7z"/>
			<path id="&lt;Path&gt;" class="s0" d="m1173.4 419.2l2.6 2.7 2.9 2.9 10.6 10.6-1.1 1-2.7 2.8-12.3 12.3-3.9-3.8 9.1-9.1 2.4-2.3 0.9-0.9-3-2.9-2.9-3-6.5-6.5z"/>
			<path id="&lt;Path&gt;" class="s0" d="m1177 435.4v0.1l-16.1 16.1-3.8-3.8 12.4-12.4-12.4-12.4 3.8-3.8z"/>
			<path id="&lt;Path&gt;" class="s0" d="m1187.7 422.2c1.3 0 2.4 1.1 2.4 2.4 0 1.3-1.1 2.4-2.4 2.4-1.3 0-2.4-1.1-2.4-2.4 0-1.3 1.1-2.4 2.4-2.4z"/>
			<path id="&lt;Path&gt;" class="s0" d="m1192.4 422.9h17.3v3.2h-17.3z"/>
			<path id="&lt;Path&gt;" class="s0" d="m1192.4 430.3h17.3v3.2h-17.3z"/>
		</g>
		<path id="&lt;Compound Path&gt;" fill-rule="evenodd" class="s0" d="m1088.9 643.1v25c0 3.2-2.6 5.8-5.8 5.8h-33.6c-3.2 0-5.8-2.6-5.8-5.8v-25c0-2.3 1.4-4.3 3.4-5.3v-8.2c0-8.6 7-15.8 15.8-15.8h6.8c8.6 0 15.8 7 15.8 15.8v8.2c1.9 1 3.3 3 3.4 5.3zm-17.1 9.3c0-3.1-2.5-5.6-5.6-5.6-3.1 0-5.6 2.5-5.6 5.6 0 2.3 1.4 4.4 3.5 5.2v4.9h4.2v-4.9c2.1-0.8 3.5-2.8 3.5-5.2zm7.5-21.6c0-5.7-4.7-10.3-10.3-10.3h-5.7c-5.7 0-10.3 4.7-10.3 10.3v6.4h26.4z"/>
		<g id="&lt;Group&gt;">
			<path id="&lt;Compound Path&gt;" class="s0" d="m888.8 432.3q-1.1-1.2-1.1-3.3v-5.5h1.8v5.4q0 2.9 2.5 2.9 2.5 0 2.5-2.9v-5.4h1.8v5.5q0 2.1-1.2 3.3-1.1 1.1-3.1 1.1-2.1 0-3.2-1.1z"/>
			<path id="&lt;Compound Path&gt;" class="s0" d="m907.6 423.5v9.8h-1.5l-5.4-6.7v6.7h-1.8v-9.8h1.5l5.4 6.6v-6.6z"/>
			<path id="&lt;Compound Path&gt;" class="s0" d="m912.3 425h-3.3v-1.5h8.3v1.5h-3.2v8.3h-1.8z"/>
			<path id="&lt;Compound Path&gt;" class="s0" d="m926.1 431.8v1.5h-7.3v-9.8h7.1v1.5h-5.3v2.6h4.7v1.5h-4.7v2.7z"/>
			<path id="&lt;Compound Path&gt;" fill-rule="evenodd" class="s0" d="m934.6 433.3l-2-2.9q-0.1 0-0.3 0h-2.3v2.9h-1.8v-9.8h4.1q1.2 0 2.2 0.4 0.9 0.4 1.4 1.2 0.5 0.8 0.5 1.9 0 1.1-0.5 1.9-0.5 0.8-1.6 1.2l2.3 3.2zm-0.7-7.8q-0.6-0.5-1.8-0.5h-2.1v3.9h2.1q1.2 0 1.8-0.5 0.7-0.5 0.7-1.4 0-1-0.7-1.5z"/>
			<path id="&lt;Compound Path&gt;" fill-rule="evenodd" class="s0" d="m944.9 433.3l-2-2.9q-0.1 0-0.3 0h-2.2v2.9h-1.9v-9.8h4.1q1.2 0 2.2 0.4 0.9 0.4 1.4 1.2 0.5 0.8 0.5 1.9 0 1.1-0.5 1.9-0.5 0.8-1.5 1.2l2.2 3.2zm-0.7-7.8q-0.6-0.5-1.8-0.5h-2.1v3.9h2.1q1.2 0 1.8-0.5 0.7-0.5 0.7-1.4 0-1-0.7-1.5z"/>
			<path id="&lt;Compound Path&gt;" class="s0" d="m948.8 423.5h1.9v9.8h-1.9z"/>
			<path id="&lt;Compound Path&gt;" class="s0" d="m955.2 432.8q-1.2-0.7-1.8-1.8-0.7-1.2-0.7-2.6 0-1.5 0.7-2.6 0.6-1.2 1.8-1.8 1.2-0.7 2.7-0.7 1.2 0 2.2 0.5 1 0.4 1.7 1.2l-1.2 1.1q-1-1.2-2.6-1.2-1 0-1.8 0.5-0.8 0.4-1.2 1.2-0.5 0.8-0.5 1.8 0 1 0.5 1.8 0.4 0.7 1.2 1.2 0.8 0.4 1.8 0.4 1.6 0 2.6-1.1l1.2 1.1q-0.7 0.8-1.7 1.2-1 0.4-2.2 0.4-1.5 0-2.7-0.6z"/>
			<path id="&lt;Compound Path&gt;" class="s0" d="m972.3 423.5v9.8h-1.8v-4.2h-5.1v4.2h-1.8v-9.8h1.8v4h5.1v-4z"/>
			<path id="&lt;Compound Path&gt;" class="s0" d="m977 425h-3.2v-1.5h8.3v1.5h-3.3v8.3h-1.8z"/>
			<path id="&lt;Compound Path&gt;" class="s0" d="m984.3 433.1q-1.1-0.3-1.7-0.9l0.6-1.4q0.6 0.5 1.5 0.8 0.9 0.3 1.8 0.3 1.1 0 1.6-0.3 0.5-0.4 0.5-1 0-0.4-0.3-0.7-0.3-0.2-0.7-0.4-0.5-0.1-1.3-0.3-1.1-0.3-1.8-0.6-0.7-0.2-1.2-0.8-0.5-0.6-0.5-1.5 0-0.8 0.5-1.5 0.4-0.7 1.3-1.1 0.9-0.4 2.2-0.4 0.9 0 1.7 0.3 0.9 0.2 1.5 0.6l-0.5 1.4q-0.7-0.4-1.4-0.6-0.7-0.1-1.4-0.1-1 0-1.6 0.3-0.5 0.4-0.5 1 0 0.4 0.3 0.7 0.3 0.2 0.8 0.4 0.4 0.1 1.2 0.3 1.1 0.3 1.8 0.6 0.7 0.2 1.2 0.8 0.5 0.6 0.5 1.5 0 0.8-0.4 1.5-0.5 0.6-1.3 1-0.9 0.4-2.2 0.4-1.2 0-2.2-0.3z"/>
			<path id="&lt;Compound Path&gt;" class="s0" d="m991.9 427.6h3.9v1.5h-3.9z"/>
		</g>
		<g id="&lt;Group&gt;">
			<path id="&lt;Compound Path&gt;" fill-rule="evenodd" class="s0" d="m905.9 446.1q0.5 0.6 0.5 1.5 0 1.3-1 2-1 0.7-2.9 0.7h-4.8v-9.8h4.6q1.7 0 2.6 0.7 1 0.6 1 1.8 0 0.8-0.4 1.3-0.3 0.6-0.9 0.9 0.8 0.2 1.3 0.9zm-6.4-4.2v2.7h2.6q0.9 0 1.4-0.3 0.5-0.4 0.5-1 0-0.7-0.5-1.1-0.5-0.3-1.4-0.3zm5 5.5q0-1.4-2.1-1.4h-2.9v2.9h2.9q2.1 0 2.1-1.5z"/>
			<path id="&lt;Compound Path&gt;" fill-rule="evenodd" class="s0" d="m914.7 448h-4.9l-0.9 2.3h-1.9l4.4-9.8h1.8l4.4 9.8h-1.9zm-0.6-1.4l-1.8-4.3-1.9 4.3z"/>
			<path id="&lt;Compound Path&gt;" class="s0" d="m919.8 449.3q-1.1-1.2-1.1-3.3v-5.5h1.8v5.4q0 2.9 2.5 2.9 2.4 0 2.4-2.9v-5.4h1.8v5.5q0 2.1-1.1 3.3-1.1 1.1-3.1 1.1-2.1 0-3.2-1.1z"/>
			<path id="&lt;Compound Path&gt;" class="s0" d="m930.7 450.1q-1.1-0.3-1.7-0.9l0.7-1.4q0.6 0.5 1.4 0.8 0.9 0.3 1.8 0.3 1.1 0 1.6-0.3 0.6-0.4 0.6-1 0-0.4-0.3-0.7-0.3-0.2-0.8-0.4-0.5-0.1-1.3-0.3-1.1-0.3-1.8-0.6-0.7-0.2-1.2-0.8-0.5-0.6-0.5-1.5 0-0.8 0.5-1.5 0.4-0.7 1.3-1.1 0.9-0.4 2.2-0.4 0.9 0 1.8 0.3 0.8 0.2 1.4 0.6l-0.5 1.4q-0.7-0.4-1.4-0.6-0.7-0.1-1.3-0.1-1.1 0-1.6 0.3-0.6 0.4-0.6 1 0 0.4 0.3 0.7 0.3 0.2 0.8 0.4 0.5 0.1 1.3 0.3 1.1 0.3 1.8 0.6 0.7 0.2 1.2 0.8 0.5 0.6 0.5 1.5 0 0.8-0.5 1.5-0.4 0.6-1.3 1-0.9 0.4-2.2 0.4-1.1 0-2.2-0.3z"/>
			<path id="&lt;Compound Path&gt;" class="s0" d="m940.6 442h-3.3v-1.5h8.3v1.5h-3.2v8.3h-1.8z"/>
			<path id="&lt;Compound Path&gt;" class="s0" d="m954.4 448.8v1.5h-7.3v-9.8h7.1v1.5h-5.3v2.6h4.7v1.5h-4.7v2.7z"/>
			<path id="&lt;Compound Path&gt;" class="s0" d="m956.5 440.5h1.9v9.8h-1.9z"/>
			<path id="&lt;Compound Path&gt;" class="s0" d="m969.8 440.5v9.8h-1.5l-5.4-6.7v6.7h-1.8v-9.8h1.5l5.4 6.6v-6.6z"/>
			<path id="&lt;Compound Path&gt;" class="s0" d="m979.8 448.8v1.5h-7.3v-9.8h7.1v1.5h-5.3v2.6h4.7v1.5h-4.7v2.7z"/>
		</g>
		<g id="&lt;Group&gt;">
			<path id="&lt;Compound Path&gt;" class="s0" d="m861 513.3h-3.2v-1.6h8.3v1.6h-3.3v8.2h-1.8z"/>
			<path id="&lt;Compound Path&gt;" fill-rule="evenodd" class="s0" d="m869.3 521q-1.2-0.6-1.9-1.8-0.7-1.2-0.7-2.6 0-1.4 0.7-2.6 0.7-1.1 1.9-1.8 1.2-0.6 2.7-0.6 1.5 0 2.7 0.6 1.2 0.7 1.9 1.8 0.7 1.2 0.7 2.6 0 1.5-0.7 2.6-0.7 1.2-1.9 1.8-1.2 0.7-2.7 0.7-1.5 0-2.7-0.7zm4.4-1.4q0.8-0.4 1.3-1.2 0.4-0.8 0.4-1.8 0-1-0.4-1.8-0.5-0.7-1.3-1.2-0.7-0.4-1.7-0.4-1 0-1.8 0.4-0.8 0.5-1.2 1.2-0.5 0.8-0.5 1.8 0 1 0.5 1.8 0.4 0.8 1.2 1.2 0.8 0.5 1.8 0.5 1 0 1.7-0.5z"/>
			<path id="&lt;Compound Path&gt;" fill-rule="evenodd" class="s0" d="m881.1 521q-1.2-0.6-1.9-1.8-0.6-1.2-0.6-2.6 0-1.4 0.6-2.6 0.7-1.1 1.9-1.8 1.2-0.6 2.7-0.6 1.5 0 2.7 0.6 1.2 0.7 1.9 1.8 0.7 1.2 0.7 2.6 0 1.5-0.7 2.6-0.7 1.2-1.9 1.8-1.2 0.7-2.7 0.7-1.5 0-2.7-0.7zm4.5-1.4q0.8-0.4 1.2-1.2 0.5-0.8 0.5-1.8 0-1-0.5-1.8-0.4-0.7-1.2-1.2-0.8-0.4-1.8-0.4-0.9 0-1.7 0.4-0.8 0.5-1.3 1.2-0.4 0.8-0.4 1.8 0 1 0.4 1.8 0.5 0.8 1.3 1.2 0.8 0.5 1.7 0.5 1 0 1.8-0.5z"/>
			<path id="&lt;Compound Path&gt;" class="s0" d="m891.1 511.7h1.8v8.3h5.2v1.5h-7z"/>
			<path id="&lt;Compound Path&gt;" class="s0" d="m900.3 521.3q-1-0.3-1.6-0.8l0.6-1.4q0.6 0.4 1.5 0.7 0.9 0.3 1.7 0.3 1.1 0 1.7-0.3 0.5-0.4 0.5-0.9 0-0.4-0.3-0.7-0.3-0.3-0.8-0.4-0.4-0.2-1.2-0.4-1.1-0.3-1.8-0.5-0.7-0.3-1.2-0.9-0.5-0.5-0.5-1.5 0-0.8 0.4-1.5 0.5-0.6 1.4-1 0.8-0.4 2.1-0.4 0.9 0 1.8 0.2 0.9 0.2 1.5 0.6l-0.6 1.5q-0.6-0.4-1.3-0.6-0.7-0.2-1.4-0.2-1.1 0-1.6 0.4-0.5 0.3-0.5 0.9 0 0.4 0.3 0.7 0.3 0.3 0.8 0.4 0.4 0.2 1.2 0.4 1.1 0.2 1.8 0.5 0.7 0.3 1.2 0.8 0.5 0.6 0.5 1.5 0 0.9-0.4 1.5-0.5 0.7-1.4 1.1-0.9 0.4-2.2 0.4-1.1 0-2.2-0.4z"/>
			<path id="&lt;Compound Path&gt;" fill-rule="evenodd" class="s0" d="m919.7 521.7l-1.3-1.2q-1.3 1.2-3.3 1.2-1 0-1.8-0.4-0.8-0.3-1.3-0.9-0.4-0.6-0.4-1.4 0-0.9 0.5-1.6 0.5-0.7 1.7-1.3-0.6-0.6-0.8-1.1-0.3-0.5-0.3-1.1 0-1 0.8-1.7 0.8-0.6 2.1-0.6 1.2 0 1.9 0.6 0.7 0.6 0.7 1.6 0 0.7-0.5 1.3-0.4 0.6-1.5 1.2l2.1 2q0.4-0.7 0.6-1.6l1.4 0.4q-0.3 1.3-0.9 2.3l1.2 1.1zm-2.2-2.1l-2.6-2.5q-0.9 0.4-1.2 0.9-0.4 0.4-0.4 0.9 0 0.6 0.6 1 0.5 0.4 1.4 0.4 1.2 0 2.2-0.7zm-2.8-6.4q-0.3 0.3-0.3 0.8 0 0.3 0.2 0.6 0.2 0.3 0.7 0.8 0.8-0.5 1.2-0.8 0.3-0.3 0.3-0.7 0-0.5-0.3-0.7-0.3-0.3-0.8-0.3-0.6 0-1 0.3z"/>
			<path id="&lt;Compound Path&gt;" class="s0" d="m851.6 530.1h-3.3v-1.6h8.3v1.6h-3.2v8.2h-1.8z"/>
			<path id="&lt;Compound Path&gt;" class="s0" d="m859 537.3q-1.2-1.1-1.2-3.3v-5.5h1.8v5.5q0 2.9 2.5 2.9 2.5 0 2.5-2.9v-5.5h1.8v5.5q0 2.2-1.1 3.3-1.2 1.2-3.2 1.2-2 0-3.1-1.2z"/>
			<path id="&lt;Compound Path&gt;" class="s0" d="m870.8 530.1h-3.2v-1.6h8.3v1.6h-3.3v8.2h-1.8z"/>
			<path id="&lt;Compound Path&gt;" fill-rule="evenodd" class="s0" d="m879.1 537.8q-1.2-0.6-1.9-1.8-0.7-1.2-0.7-2.6 0-1.4 0.7-2.6 0.7-1.1 1.9-1.8 1.2-0.6 2.7-0.6 1.5 0 2.7 0.6 1.2 0.7 1.9 1.8 0.7 1.2 0.7 2.6 0 1.5-0.7 2.6-0.7 1.2-1.9 1.8-1.2 0.7-2.7 0.7-1.5 0-2.7-0.7zm4.4-1.4q0.8-0.4 1.3-1.2 0.4-0.8 0.4-1.8 0-1-0.4-1.8-0.5-0.7-1.3-1.2-0.7-0.4-1.7-0.4-1 0-1.8 0.4-0.8 0.5-1.2 1.2-0.5 0.8-0.5 1.8 0 1 0.5 1.8 0.4 0.8 1.2 1.2 0.8 0.5 1.8 0.5 1 0 1.7-0.5z"/>
			<path id="&lt;Compound Path&gt;" fill-rule="evenodd" class="s0" d="m895.5 538.3l-2-2.9q-0.2 0.1-0.4 0.1h-2.2v2.8h-1.8v-9.8h4q1.3 0 2.2 0.4 1 0.5 1.5 1.2 0.5 0.8 0.5 1.9 0 1.1-0.6 1.9-0.5 0.8-1.5 1.2l2.2 3.2zm-0.6-7.7q-0.6-0.5-1.8-0.5h-2.2v3.9h2.2q1.2 0 1.8-0.5 0.6-0.6 0.6-1.5 0-0.9-0.6-1.4z"/>
			<path id="&lt;Compound Path&gt;" class="s0" d="m899.4 528.5h1.8v9.8h-1.8z"/>
			<path id="&lt;Compound Path&gt;" fill-rule="evenodd" class="s0" d="m910.3 536.1h-4.9l-1 2.2h-1.9l4.4-9.8h1.8l4.4 9.8h-1.9zm-0.6-1.4l-1.8-4.3-1.9 4.3z"/>
			<path id="&lt;Compound Path&gt;" class="s0" d="m914.5 528.5h1.8v8.3h5.1v1.5h-6.9z"/>
			<path id="&lt;Compound Path&gt;" class="s0" d="m923.7 538.1q-1.1-0.3-1.7-0.8l0.6-1.4q0.6 0.4 1.5 0.7 0.9 0.3 1.8 0.3 1.1 0 1.6-0.3 0.5-0.4 0.5-0.9 0-0.4-0.3-0.7-0.3-0.3-0.7-0.4-0.5-0.2-1.3-0.4-1.1-0.3-1.8-0.5-0.7-0.3-1.2-0.9-0.5-0.5-0.5-1.5 0-0.8 0.5-1.5 0.4-0.6 1.3-1 0.9-0.4 2.2-0.4 0.9 0 1.7 0.2 0.9 0.2 1.5 0.6l-0.5 1.5q-0.7-0.4-1.4-0.6-0.7-0.2-1.3-0.2-1.1 0-1.6 0.4-0.6 0.3-0.6 0.9 0 0.4 0.3 0.7 0.3 0.3 0.8 0.4 0.5 0.2 1.3 0.4 1 0.2 1.7 0.5 0.7 0.3 1.2 0.8 0.5 0.6 0.5 1.5 0 0.9-0.4 1.5-0.4 0.7-1.3 1.1-0.9 0.4-2.2 0.4-1.2 0-2.2-0.4z"/>
		</g>
		<g id="&lt;Group&gt;">
			<path id="&lt;Compound Path&gt;" class="s0" d="m965.9 520.3h-3.2v-1.6h8.3v1.6h-3.3v8.2h-1.8z"/>
			<path id="&lt;Compound Path&gt;" fill-rule="evenodd" class="s0" d="m978.8 528.5l-2-2.9q-0.1 0.1-0.3 0.1h-2.3v2.8h-1.8v-9.8h4.1q1.2 0 2.2 0.4 0.9 0.5 1.4 1.2 0.5 0.8 0.5 1.9 0 1.1-0.5 1.9-0.6 0.8-1.6 1.2l2.3 3.2zm-0.7-7.7q-0.6-0.5-1.8-0.5h-2.1v3.9h2.1q1.2 0 1.8-0.5 0.6-0.6 0.6-1.5 0-0.9-0.6-1.4z"/>
			<path id="&lt;Compound Path&gt;" class="s0" d="m990.1 527v1.5h-7.4v-9.8h7.2v1.5h-5.4v2.6h4.8v1.5h-4.8v2.7z"/>
			<path id="&lt;Compound Path&gt;" class="s0" d="m1000.9 518.7v9.8h-1.5l-5.4-6.6v6.6h-1.8v-9.8h1.5l5.4 6.7v-6.7z"/>
			<path id="&lt;Compound Path&gt;" fill-rule="evenodd" class="s0" d="m1003.6 518.7h4.3q1.5 0 2.8 0.6 1.2 0.6 1.8 1.8 0.7 1.1 0.7 2.5 0 1.5-0.7 2.6-0.6 1.1-1.8 1.7-1.3 0.6-2.8 0.6h-4.3zm4.2 8.3q1.1 0 1.9-0.4 0.8-0.4 1.2-1.2 0.5-0.8 0.5-1.8 0-1-0.5-1.8-0.4-0.7-1.2-1.1-0.8-0.4-1.9-0.4h-2.4v6.7z"/>
			<path id="&lt;Compound Path&gt;" class="s0" d="m1016.1 528.3q-1.1-0.3-1.7-0.8l0.6-1.4q0.6 0.4 1.5 0.7 0.9 0.3 1.8 0.3 1 0 1.6-0.3 0.5-0.4 0.5-0.9 0-0.4-0.3-0.7-0.3-0.3-0.7-0.4-0.5-0.2-1.3-0.4-1.1-0.3-1.8-0.5-0.7-0.3-1.2-0.9-0.5-0.5-0.5-1.5 0-0.8 0.4-1.5 0.5-0.6 1.4-1 0.9-0.4 2.1-0.4 0.9 0 1.8 0.2 0.9 0.2 1.5 0.6l-0.6 1.5q-0.6-0.4-1.3-0.6-0.7-0.2-1.4-0.2-1 0-1.6 0.4-0.5 0.3-0.5 0.9 0 0.4 0.3 0.7 0.3 0.3 0.8 0.4 0.4 0.2 1.2 0.4 1.1 0.2 1.8 0.5 0.7 0.3 1.2 0.8 0.5 0.6 0.5 1.5 0 0.9-0.4 1.5-0.5 0.7-1.4 1.1-0.9 0.4-2.1 0.4-1.2 0-2.2-0.4z"/>
		</g>
		<g id="&lt;Group&gt;">
			<path id="&lt;Compound Path&gt;" fill-rule="evenodd" class="s0" d="m826.9 655.1c2.5 2.1 0.3 3.6-0.5 5.2-0.8 1.6-1.5 3.1-4 2.1-3.1-1.2-5.5 0.8-5.2 4.3 0.6 2.3-1 3-2.9 3.5-2 0.5-4 1.8-5.5-1-1.5-2.7-4.9-2.7-6.4 0-1.3 2.4-2.9 1.8-4.6 1-1.9-0.8-4-0.9-3.5-4 0.6-3.5-1.6-5.5-5.1-4.3-3.3 1.2-3.4-1.7-4.5-3.2-1.1-1.6-1.4-3 0.5-4.5 2.5-2 2.1-5.3-1-6.4-3.2-1.1-1.8-3.4-1.6-5.5 0.1-2.2 1-3.4 3.5-3.1 2.7 0.3 4.3-2.7 3.3-5.2-0.4-1-1.7-2.1-0.7-3.2 1.4-1.6 3-3 5-3.9 0.8-0.3 1.4 0.5 2 1 2.9 2.3 5.5 1.4 6.4-2.1 0.9-3.4 3.6-1.7 5.5-2.1 1.7-0.2 2.7 0.5 3.1 2.5 0.5 3.1 3.5 4.3 6 2.4 2-1.7 3.3-0.8 4.6 0.7 1.3 1.6 3.8 2.3 1.9 5.2-1.7 2.4 0 5.6 3.1 5.6 2.9 0 2.8 2.1 3.1 3.9 0.3 1.9 0.9 3.8-1.8 4.8-2.9 1.1-3.5 4.4-0.7 6.3zm-12.1-7.2c-0.1-4.9-4.2-9-8.9-9-4.8 0-8.8 4-8.8 8.9 0 5 3.7 8.8 8.8 8.8 4.8 0 9-4 8.9-8.7z"/>
			<g id="&lt;Group&gt;">
				<g id="&lt;Group&gt;">
					<path id="&lt;Path&gt;" class="s0" d="m843.4 656.3c-2.2-3.3-4.5-6.8-6.5-10.2-5.1-8.4-7-13.3-6.9-15.7-1.3 0.2-3.8 0-4.3-3.1-0.8-5.7-2.2-10.4-2.2-10.4 0 0 5.3 3.7 8.1 6.8 2.1 2.3 1.5 4.2 0.6 5.2 2 1 5.4 5 10.5 13.5 2.2 3.8 4.5 8 6.5 11.9 0.2 2.2 0 3.6-0.8 4.1-0.9 0.5-2.6-0.2-5-2.1z"/>
				</g>
				<g id="&lt;Group&gt;">
					<path id="&lt;Path&gt;" class="s0" d="m854.7 669.3c-1 0.7-5.1-4.1-9.6-10.6 1.5 1 2.9 1.2 3.9 0.6 0.8-0.4 1.2-1.4 1.3-2.7 3.3 6.7 5.4 12.2 4.4 12.7z"/>
				</g>
			</g>
		</g>
	</g>
	<text id="Analysieren &amp; Reflektieren" style="transform: matrix(1,0,0,1,602,493)" >
		<tspan x="17" y="18.2" class="t5">A</tspan><tspan  y="18.2" class="t5">n</tspan><tspan  y="18.2" class="t5">a</tspan><tspan  y="18.2" class="t5">l</tspan><tspan  y="18.2" class="t5">y</tspan><tspan  y="18.2" class="t5">s</tspan><tspan  y="18.2" class="t5">i</tspan><tspan  y="18.2" class="t5">e</tspan><tspan  y="18.2" class="t5">r</tspan><tspan  y="18.2" class="t5">e</tspan><tspan  y="18.2" class="t5">n</tspan><tspan  y="18.2" class="t5">
</tspan>
		<tspan x="1.3" y="47" class="t5">&amp;</tspan><tspan  y="47" class="t5"> </tspan><tspan  y="47" class="t5">R</tspan><tspan  y="47" class="t5">e</tspan><tspan  y="47" class="t5">f</tspan><tspan  y="47" class="t5">l</tspan><tspan  y="47" class="t5">e</tspan><tspan  y="47" class="t5">k</tspan><tspan  y="47" class="t5">t</tspan><tspan  y="47" class="t5">i</tspan><tspan  y="47" class="t5">e</tspan><tspan  y="47" class="t5">r</tspan><tspan  y="47" class="t5">e</tspan><tspan  y="47" class="t5">n
</tspan>
	</text>
	<text id="Produzieren  &amp; Präsentieren" style="transform: matrix(1,0,0,1,1096,495)" >
		<tspan x="19.8" y="18.2" class="t5">P</tspan><tspan  y="18.2" class="t5">r</tspan><tspan  y="18.2" class="t5">o</tspan><tspan  y="18.2" class="t5">d</tspan><tspan  y="18.2" class="t5">u</tspan><tspan  y="18.2" class="t5">z</tspan><tspan  y="18.2" class="t5">i</tspan><tspan  y="18.2" class="t5">e</tspan><tspan  y="18.2" class="t5">r</tspan><tspan  y="18.2" class="t5">e</tspan><tspan  y="18.2" class="t5">n</tspan><tspan  y="18.2" class="t5"> </tspan><tspan  y="18.2" class="t5">
</tspan>
		<tspan x="1" y="47" class="t5">&amp;</tspan><tspan  y="47" class="t5"> </tspan><tspan  y="47" class="t5">P</tspan><tspan  y="47" class="t5">r</tspan><tspan  y="47" class="t5">ä</tspan><tspan  y="47" class="t5">s</tspan><tspan  y="47" class="t5">e</tspan><tspan  y="47" class="t5">n</tspan><tspan  y="47" class="t5">t</tspan><tspan  y="47" class="t5">i</tspan><tspan  y="47" class="t5">e</tspan><tspan  y="47" class="t5">r</tspan><tspan  y="47" class="t5">e</tspan><tspan  y="47" class="t5">n</tspan><tspan  y="47" class="t5">
</tspan>
	</text>
	<text id="Informieren  &amp; Recherchieren" style="transform: matrix(1,0,0,1,712,276)" >
		<tspan x="31.3" y="18.2" class="t5">I</tspan><tspan  y="18.2" class="t5">n</tspan><tspan  y="18.2" class="t5">f</tspan><tspan  y="18.2" class="t5">o</tspan><tspan  y="18.2" class="t5">r</tspan><tspan  y="18.2" class="t5">m</tspan><tspan  y="18.2" class="t5">i</tspan><tspan  y="18.2" class="t5">e</tspan><tspan  y="18.2" class="t5">r</tspan><tspan  y="18.2" class="t5">e</tspan><tspan  y="18.2" class="t5">n</tspan><tspan  y="18.2" class="t5"> </tspan><tspan  y="18.2" class="t5">
</tspan>
		<tspan x=".3" y="47" class="t5">&amp;</tspan><tspan  y="47" class="t5"> </tspan><tspan  y="47" class="t5">R</tspan><tspan  y="47" class="t5">e</tspan><tspan  y="47" class="t5">c</tspan><tspan  y="47" class="t5">h</tspan><tspan  y="47" class="t5">e</tspan><tspan  y="47" class="t5">r</tspan><tspan  y="47" class="t5">c</tspan><tspan  y="47" class="t5">h</tspan><tspan  y="47" class="t5">i</tspan><tspan  y="47" class="t5">e</tspan><tspan  y="47" class="t5">r</tspan><tspan  y="47" class="t5">e</tspan><tspan  y="47" class="t5">n</tspan><tspan  y="47" class="t5">
</tspan>
	</text>
	<text id="Kommunizieren  &amp; Kooperieren" style="transform: matrix(1,0,0,1,976,279)" >
		<tspan x="-7.1" y="18.2" class="t5">K</tspan><tspan  y="18.2" class="t5">o</tspan><tspan  y="18.2" class="t5">m</tspan><tspan  y="18.2" class="t5">m</tspan><tspan  y="18.2" class="t5">u</tspan><tspan  y="18.2" class="t5">n</tspan><tspan  y="18.2" class="t5">i</tspan><tspan  y="18.2" class="t5">z</tspan><tspan  y="18.2" class="t5">i</tspan><tspan  y="18.2" class="t5">e</tspan><tspan  y="18.2" class="t5">r</tspan><tspan  y="18.2" class="t5">e</tspan><tspan  y="18.2" class="t5">n</tspan><tspan  y="18.2" class="t5"> </tspan><tspan  y="18.2" class="t5">
</tspan>
		<tspan x=".7" y="47" class="t5">&amp;</tspan><tspan  y="47" class="t5"> </tspan><tspan  y="47" class="t5">K</tspan><tspan  y="47" class="t5">o</tspan><tspan  y="47" class="t5">o</tspan><tspan  y="47" class="t5">p</tspan><tspan  y="47" class="t5">e</tspan><tspan  y="47" class="t5">r</tspan><tspan  y="47" class="t5">i</tspan><tspan  y="47" class="t5">e</tspan><tspan  y="47" class="t5">r</tspan><tspan  y="47" class="t5">e</tspan><tspan  y="47" class="t5">n</tspan><tspan  y="47" class="t5">
</tspan>
	</text>
	<text id="Bedienen  &amp; Anwenden" style="transform: matrix(1,0,0,1,985,710)" >
		<tspan x="21.7" y="18.2" class="t5">B</tspan><tspan  y="18.2" class="t5">e</tspan><tspan  y="18.2" class="t5">d</tspan><tspan  y="18.2" class="t5">i</tspan><tspan  y="18.2" class="t5">e</tspan><tspan  y="18.2" class="t5">n</tspan><tspan  y="18.2" class="t5">e</tspan><tspan  y="18.2" class="t5">n</tspan><tspan  y="18.2" class="t5"> </tspan><tspan  y="18.2" class="t5">
</tspan>
		<tspan x="1.2" y="47" class="t5">&amp;</tspan><tspan  y="47" class="t5"> </tspan><tspan  y="47" class="t5">A</tspan><tspan  y="47" class="t5">n</tspan><tspan  y="47" class="t5">w</tspan><tspan  y="47" class="t5">e</tspan><tspan  y="47" class="t5">n</tspan><tspan  y="47" class="t5">d</tspan><tspan  y="47" class="t5">e</tspan><tspan  y="47" class="t5">n</tspan><tspan  y="47" class="t5">
</tspan>
	</text>
	<text id="Problemlösen  &amp; Modellieren" style="transform: matrix(1,0,0,1,729,709)" >
		<tspan x="3" y="18.2" class="t5">P</tspan><tspan  y="18.2" class="t5">r</tspan><tspan  y="18.2" class="t5">o</tspan><tspan  y="18.2" class="t5">b</tspan><tspan  y="18.2" class="t5">l</tspan><tspan  y="18.2" class="t5">e</tspan><tspan  y="18.2" class="t5">m</tspan><tspan  y="18.2" class="t5">l</tspan><tspan  y="18.2" class="t5">ö</tspan><tspan  y="18.2" class="t5">s</tspan><tspan  y="18.2" class="t5">e</tspan><tspan  y="18.2" class="t5">n</tspan><tspan  y="18.2" class="t5"> </tspan><tspan  y="18.2" class="t5">
</tspan>
		<tspan x=".7" y="47" class="t5">&amp;</tspan><tspan  y="47" class="t5"> </tspan><tspan  y="47" class="t5">M</tspan><tspan  y="47" class="t5">o</tspan><tspan  y="47" class="t5">d</tspan><tspan  y="47" class="t5">e</tspan><tspan  y="47" class="t5">l</tspan><tspan  y="47" class="t5">l</tspan><tspan  y="47" class="t5">i</tspan><tspan  y="47" class="t5">e</tspan><tspan  y="47" class="t5">r</tspan><tspan  y="47" class="t5">e</tspan><tspan  y="47" class="t5">n</tspan><tspan  y="47" class="t5">
</tspan>
	</text>
</svg>