<svg version="1.2" xmlns="http://www.w3.org/2000/svg" viewBox="0 0 2000 1009" width="1520" height="766">
	<title>dllflower_mit_font-ai</title>
	<style>
		.s0 { opacity: 0.3; fill: #2b2428 } 
		.s1 { fill: #ffffff } 
		.s2 { fill: #00232d } 
		.s3 { fill: #d2aa6e } 
		.s4 { fill: #e61432 } 
		.s5 { fill: #3278c8 } 
	</style>
	<g id="Ebene 1">
		<g id="Ebene 1 1 ">
			<path id="&lt;Compound Path&gt;" fill-rule="evenodd" class="s1" d="m1321.5 419.3v150.8l-124.7 72v144l-130.7 75.4-124.7-72-16.6 9.6-108.1 62.4-130.7-75.4v-143.9l-6.6-3.8-118-68.2v-150.9l124.7-72v-143.9l130.7-75.5 124.7 72 124.6-71.9 130.6 75.4v143.9zm-379.9 212.5l17.5-10.2 101-58.4v-136.9l-118.6-68.5-118.6 68.5v136.9z"/>
			<path id="&lt;Path&gt;" class="s1" d="m941 619.9l-108-62.4v-124.6l108-62.4 108 62.4v124.4z"/>
		</g>
		<path id="&lt;Path&gt;" class="s2" d="m970.5 360.4l-22.8-13.3v-136.6l118.4-68.3 118.4 68.3v136.6l-118.4 68.5z"/>
		<path id="&lt;Path&gt;" class="s2" d="m1072.4 563.1v-136.7l118.3-68.3 118.4 68.3v136.7l-118.4 68.3z"/>
		<path id="&lt;Path&gt;" class="s2" d="m947.7 642.3l17.5-10.1 100.9-58.3 118.4 68.4v136.7l-118.4 68.3-95.6-55.2-22.8-13.1z"/>
		<path id="&lt;Path&gt;" class="s2" d="m935.2 347.2l-16.5 9.5-101.9 58.9-118.4-68.4v-136.7l118.4-68.4 118.4 68.4z"/>
		<path id="&lt;Path&gt;" class="s2" d="m816.8 573.9l118.4 68.4v136.7l-118.4 68.3-118.4-68.3v-136.7l7.7-4.5z"/>
		<path id="&lt;Path&gt;" class="s2" d="m810.6 426.4v136.7l-118.4 68.3-6.5-3.7-111.9-64.6v-136.7l118.4-68.3z"/>
		<g id="&lt;Group&gt;">
			<path id="&lt;Path&gt;" class="s3" d="m946.6 499.5l92.6-53.7v106.9l-92.6 53.5z"/>
		</g>
		<g id="&lt;Group&gt;">
			<path id="&lt;Path&gt;" class="s4" d="m1033.7 436.4l-92.5 53.7-92.7-53.7 92.7-53.5z"/>
		</g>
		<g id="&lt;Group&gt;">
			<path id="&lt;Path&gt;" class="s5" d="m843 445.8l92.6 53.7v106.7l-92.6-53.5z"/>
		</g>
		<path id="&lt;Compound Path&gt;" fill-rule="evenodd" class="s1" d="m710.6 439.8c-3.4 4.1-4.1 4.4-4.6 9.9-0.4 4.9 0 7.6 0 11.9h-25.7l0.6-8.9c0 0-9.4 1-11.3-1.5-1.9-2.5-0.1-5 0.3-6 0.4-1-1.5-1.2-2.2-2-0.6-0.9 0.6-2.4 0.6-2.4 0 0-0.8-0.1-1.4-1.6-0.5-1.5 0.8-1.6 1-2.9 0.1-1.3-1.6-0.9-2.9-2.4-1.4-1.6 4.2-5.6 5.6-7.1 1.2-1.2-0.3-5.3-0.5-6.6-0.1-1.9 0.4-7.3 2.9-11.3 2.4-4 7.5-8.7 15.3-9.9 8-1.4 21-0.2 26.2 10.9 5 11.1-0.3 25.7-3.9 29.9zm-21.6-31.9l1.3 19.5h4.1l1.3-19.5zm6.6 24.6c0-1-0.3-1.7-1-2.3-0.7-0.7-1.4-1-2.5-1-1.1 0-1.8 0.3-2.5 1-0.7 0.7-1 1.3-1 2.3 0 0.9 0.3 1.6 1 2.3 0.7 0.7 1.5 1 2.5 1 1.1 0 1.8-0.3 2.5-1 0.7-0.6 1.1-1.3 1-2.3z"/>
		<g id="&lt;Group&gt;">
			<g id="&lt;Group&gt;">
				<path id="&lt;Path&gt;" class="s1" d="m1056.2 235.6v5.7c0 2-1.6 3.6-3.6 3.6h-7.6c-1.9 0-3.4-1.5-3.4-3.4v-5.8c0-0.7 0.3-1.3 0.6-1.9l5-7.9c-2.6-0.9-4.5-3.2-4.5-6.1 0-3.5 2.9-6.4 6.4-6.4 3.5 0 6.4 2.9 6.4 6.4 0 3-1.9 5.3-4.5 6.1l5 7.9c0.3 0.5 0.5 1.2 0.2 1.8z"/>
				<path id="&lt;Path&gt;" class="s1" d="m1072.9 235.6v5.7c0 2-1.6 3.6-3.6 3.6h-7.6c-1.9 0-3.4-1.5-3.4-3.4v-5.8c0-0.7 0.3-1.3 0.6-1.9l5-7.9c-2.6-0.9-4.5-3.2-4.5-6.1 0-3.5 2.9-6.4 6.4-6.4 3.5 0 6.4 2.9 6.4 6.4 0 3-1.9 5.3-4.5 6.1l5 7.9c0.4 0.5 0.5 1.2 0.2 1.8z"/>
				<path id="&lt;Path&gt;" class="s1" d="m1089.7 235.6v5.7c0 2-1.6 3.6-3.6 3.6h-7.6c-1.9 0-3.4-1.5-3.4-3.4v-5.8c0-0.7 0.3-1.3 0.6-1.9l5-7.9c-2.6-0.9-4.5-3.2-4.5-6.1 0-3.5 2.9-6.4 6.4-6.4 3.5 0 6.4 2.9 6.4 6.4 0 3-1.9 5.3-4.5 6.1l5 7.9c0.3 0.5 0.6 1.2 0.2 1.8z"/>
			</g>
			<g id="&lt;Group&gt;">
				<path id="&lt;Path&gt;" class="s1" d="m1068.4 203.6c-1.2 1.2-2.6 2.3-4.3 3.3l-0.8 3.8-4.2-1.9c-1.9 0.4-3.7 0.7-5.7 0.7-9.6 0-17.5-5.8-17.5-12.8 0-7.1 7.8-12.8 17.5-12.8 4.1 0 7.7 1 10.7 2.7-1.4 2-2.3 4.2-2.3 6.6 0 4 2.4 7.9 6.6 10.4z"/>
				<path id="&lt;Path&gt;" class="s1" d="m1096 193.4c0 6.6-7 11.8-15.6 11.8-1.8 0-3.4-0.3-5-0.7l-3.7 1.7-0.7-3.5c-0.2-0.1-0.3-0.2-0.5-0.3-3.5-2.1-5.8-5.4-5.8-9.1 0-2.1 0.8-4.1 2-5.8 2.6-3.7 7.7-6.1 13.6-6.1 8.8 0 15.7 5.3 15.7 12z"/>
			</g>
		</g>
		<g id="&lt;Group&gt;">
			<path id="&lt;Compound Path&gt;" fill-rule="evenodd" class="s1" d="m844.2 200.9v25.6c0 3-1.8 5.7-4.5 6.9-0.4 0.9-0.8 1.5-1.5 2.2l-1.4-1.5-1.8-1.9-4.4-4.5c2.2-4.3 1.5-9.6-1.9-13-4.3-4.6-11.6-4.7-16.1-0.3-2.1 2.1-3.3 5-3.4 8 0 3.1 1.1 5.9 3.2 8.1 0.7 0.7 1.3 1.2 2.1 1.7 3.2 2.1 7.3 2.4 10.8 0.8l1.2 1.2 3.3 3.4h-32.8c-3.7 0-6.6-2.9-6.6-6.6v-25.5c0-0.2 0.1-0.5 0.1-0.8h-0.1v-9h2v-5.3h17.6l2.7 3.2h24c4.3 0 7.7 3.3 7.5 7.3zm-1.8 0.3c0-3-2.5-5.6-5.6-5.6h-24.9l-2.7-3.2h-14.7v3.4h12.2l2.7 3.2h24.4c3.7 0 6.6 2.9 6.6 6.6v25.6c1.2-1.1 2-2.6 2-4.4z"/>
			<path id="&lt;Compound Path&gt;" fill-rule="evenodd" class="s1" d="m836.8 236.9l4.4 4.5-2.6 2.5-6-6.2-3.3-3.4-1.8-1.9-1.6-1.7-0.7 0.3c-3.7 2-8.4 1.3-11.3-1.7-1.8-1.8-2.8-4.2-2.7-6.7 0-2.5 1.1-4.8 2.9-6.6 3.8-3.6 9.8-3.4 13.4 0.3 2.9 3 3.5 7.7 1.3 11.3l-0.4 0.7 4 4.2 1.8 1.9zm-11.8-18.3c-2.3-2.6-6.3-2.6-8.7-0.2-2.6 2.3-2.6 6.2-0.2 8.7 2.3 2.6 6.3 2.6 8.7 0.2 2.4-2.4 2.5-6.3 0.2-8.7z"/>
		</g>
		<g id="&lt;Group&gt;">
			<path id="&lt;Path&gt;" class="s1" d="m1187.7 414.7c1.3 0 2.4 1.1 2.4 2.4 0 1.3-1.1 2.4-2.4 2.4-1.3 0-2.4-1.1-2.4-2.4 0-1.3 1.1-2.4 2.4-2.4z"/>
			<path id="&lt;Path&gt;" class="s1" d="m1192.4 415.6h17.3v3.2h-17.3z"/>
			<path id="&lt;Path&gt;" class="s1" d="m1220.9 413.4v26.1c0 3.8-3.1 6.9-6.9 6.9h-10.9l6.1 6.1-2.7 2.7-8.8-8.8h-4.1l-8.8 8.8-2.7-2.7 6.1-6.1h-5.8l3.9-3.9h3.6 5.5 1 5.5 11c2.4 0 4.2-1.9 4.2-4.2v-23.6c0-2.4-1.9-4.2-4.2-4.2h-31.2c-2.4 0-4.2 1.9-4.2 4.2v5.1l-4.2-4.2v-2c0-3.8 3.1-6.9 6.9-6.9h34.3c3.7 0 6.9 3 6.4 6.7z"/>
			<path id="&lt;Path&gt;" class="s1" d="m1173.4 419.2l2.6 2.7 2.9 2.9 10.6 10.6-1.1 1-2.7 2.8-12.3 12.3-3.9-3.8 9.1-9.1 2.4-2.3 0.9-0.9-3-2.9-2.9-3-6.5-6.5z"/>
			<path id="&lt;Path&gt;" class="s1" d="m1177 435.4v0.1l-16.1 16.1-3.8-3.8 12.4-12.4-12.4-12.4 3.8-3.8z"/>
			<path id="&lt;Path&gt;" class="s1" d="m1187.7 422.2c1.3 0 2.4 1.1 2.4 2.4 0 1.3-1.1 2.4-2.4 2.4-1.3 0-2.4-1.1-2.4-2.4 0-1.3 1.1-2.4 2.4-2.4z"/>
			<path id="&lt;Path&gt;" class="s1" d="m1192.4 422.9h17.3v3.2h-17.3z"/>
			<path id="&lt;Path&gt;" class="s1" d="m1192.4 430.3h17.3v3.2h-17.3z"/>
		</g>
		<path id="&lt;Compound Path&gt;" fill-rule="evenodd" class="s1" d="m1088.9 643.1v25c0 3.2-2.6 5.8-5.8 5.8h-33.6c-3.2 0-5.8-2.6-5.8-5.8v-25c0-2.3 1.4-4.3 3.4-5.3v-8.2c0-8.6 7-15.8 15.8-15.8h6.8c8.6 0 15.8 7 15.8 15.8v8.2c1.9 1 3.3 3 3.4 5.3zm-17.1 9.3c0-3.1-2.5-5.6-5.6-5.6-3.1 0-5.6 2.5-5.6 5.6 0 2.3 1.4 4.4 3.5 5.2v4.9h4.2v-4.9c2.1-0.8 3.5-2.8 3.5-5.2zm7.5-21.6c0-5.7-4.7-10.3-10.3-10.3h-5.7c-5.7 0-10.3 4.7-10.3 10.3v6.4h26.4z"/>
		<path id="Problemlösen
" class="s1" aria-label="Problemlösen"  d="m746 704.6h-6.4v15.4h2.9v-4.4h3.5c4 0 6.5-2.1 6.5-5.5 0-3.4-2.5-5.5-6.5-5.5zm-0.2 8.5h-3.3v-6.1h3.3c2.5 0 3.8 1.1 3.8 3.1 0 1.9-1.3 3-3.8 3zm11.8-3.1v-1.7h-2.6v11.7h2.7v-5.7c0-2.4 1.4-3.6 3.5-3.6 0.2 0 0.4 0 0.6 0v-2.6c-2 0-3.4 0.6-4.2 1.9zm11.7 10.2c3.6 0 6.3-2.6 6.3-6.1 0-3.5-2.7-6-6.3-6-3.6 0-6.3 2.5-6.3 6 0 3.5 2.7 6.1 6.3 6.1zm0-2.4c-2 0-3.5-1.4-3.5-3.7 0-2.2 1.5-3.6 3.5-3.6 2 0 3.5 1.4 3.5 3.6 0 2.3-1.5 3.7-3.5 3.7zm15.4-9.7c-1.5 0-2.8 0.5-3.7 1.6v-6h-2.8v16.3h2.6v-1.5c0.9 1.1 2.3 1.7 3.9 1.7 3.4 0 6-2.4 6-6.1 0-3.6-2.6-6-6-6zm-0.3 9.7c-2 0-3.5-1.4-3.5-3.7 0-2.2 1.5-3.6 3.5-3.6 2 0 3.5 1.4 3.5 3.6 0 2.3-1.5 3.7-3.5 3.7zm8.9 2.2h2.7v-16.3h-2.7zm17.4-5.8c0-3.7-2.5-6.1-5.9-6.1-3.5 0-6.1 2.5-6.1 6 0 3.5 2.5 6 6.5 6 2 0 3.7-0.6 4.7-1.9l-1.5-1.7c-0.8 0.9-1.8 1.3-3.2 1.3-2 0-3.4-1.1-3.8-2.8h9.3c0-0.3 0-0.6 0-0.8zm-5.9-3.9c1.8 0 3.1 1.2 3.3 2.9h-6.7c0.3-1.8 1.6-2.9 3.4-2.9zm23.4-2.2c-1.9 0-3.5 0.7-4.4 2-0.8-1.4-2.3-2-4-2-1.6 0-3 0.6-3.8 1.6v-1.5h-2.7v11.8h2.8v-6c0-2.3 1.2-3.5 3-3.5 1.7 0 2.7 1 2.7 3.1v6.4h2.7v-6c0-2.3 1.3-3.5 3.1-3.5 1.7 0 2.6 1 2.6 3.1v6.4h2.8v-6.8c0-3.5-2-5.1-4.8-5.1zm8.3 11.9h2.8v-16.3h-2.8zm9.5-13.6c0.7 0 1.3-0.6 1.3-1.4 0-0.8-0.6-1.3-1.3-1.3-0.8 0-1.3 0.5-1.3 1.3 0 0.8 0.5 1.4 1.3 1.4zm4.3 0c0.7 0 1.3-0.6 1.3-1.4 0-0.8-0.6-1.3-1.3-1.3-0.8 0-1.4 0.5-1.4 1.3 0 0.8 0.6 1.4 1.4 1.4zm-2.2 13.7c3.7 0 6.3-2.5 6.3-6 0-3.5-2.6-6-6.3-6-3.6 0-6.2 2.5-6.2 6 0 3.5 2.6 6 6.2 6zm0-2.3c-1.9 0-3.4-1.5-3.4-3.7 0-2.3 1.5-3.7 3.4-3.7 2 0 3.5 1.4 3.5 3.7 0 2.2-1.5 3.7-3.5 3.7zm12.6 2.3c3.3 0 5.3-1.4 5.3-3.6 0-4.6-7.3-2.5-7.3-4.9 0-0.8 0.8-1.3 2.5-1.3 1.1 0 2.3 0.2 3.4 0.9l1-2.1c-1-0.7-2.8-1-4.4-1-3.1 0-5.1 1.4-5.1 3.6 0 4.7 7.2 2.6 7.2 4.9 0 0.8-0.7 1.3-2.4 1.3-1.5 0-3.1-0.5-4.1-1.2l-1.1 2.1c1.1 0.7 3 1.3 5 1.3zm18.7-6c0-3.6-2.5-6-5.9-6-3.5 0-6.1 2.5-6.1 6 0 3.5 2.6 6 6.5 6 2 0 3.7-0.7 4.7-1.9l-1.4-1.7c-0.9 0.9-1.9 1.3-3.2 1.3-2.1 0-3.5-1.1-3.8-2.8h9.2c0-0.3 0-0.6 0-0.9zm-5.9-3.8c1.8 0 3.1 1.1 3.3 2.8h-6.7c0.3-1.7 1.6-2.8 3.4-2.8zm15.2-2.2c-1.7 0-3.1 0.5-4 1.6v-1.5h-2.6v11.8h2.7v-6c0-2.3 1.3-3.5 3.3-3.5 1.8 0 2.8 1 2.8 3.1v6.4h2.7v-6.8c0-3.5-2.1-5.1-4.9-5.1z"/>
		<path id="&amp; Modellieren" class="s1" aria-label="&amp; Modellieren"  d="m753.5 746.5l-2-1.9c0.7-1 1.1-2.2 1.4-3.5l-2.2-0.7c-0.2 1-0.5 1.8-0.8 2.6l-3.4-3.2c2.3-1.3 3.2-2.4 3.2-4 0-2.1-1.6-3.4-4.1-3.4-2.7 0-4.5 1.5-4.5 3.7 0 1.1 0.5 2.1 1.7 3.3-2.5 1.5-3.5 2.8-3.5 4.7 0 2.4 2.3 4.1 5.6 4.1 2 0 3.7-0.6 5.1-1.8l2 1.8zm-8-12c1.2 0 1.8 0.6 1.8 1.4 0 0.9-0.5 1.5-2.3 2.5-1.1-1.1-1.4-1.6-1.4-2.3 0-1 0.7-1.6 1.9-1.6zm-0.5 11.6c-1.9 0-3.1-0.9-3.1-2.2 0-1.1 0.6-1.9 2.4-2.9l4.1 3.9c-1 0.8-2.1 1.2-3.4 1.2zm33.9 2l-0.1-15.4h-2.3l-6 10.2-6.1-10.2h-2.4v15.4h2.7v-10.1l5.1 8.3h1.3l5-8.4v10.2zm9.2 0.1c3.7 0 6.3-2.5 6.3-6 0-3.5-2.6-6-6.3-6-3.6 0-6.2 2.5-6.2 6 0 3.5 2.6 6 6.2 6zm0-2.3c-2 0-3.5-1.4-3.5-3.7 0-2.2 1.5-3.7 3.5-3.7 2 0 3.5 1.5 3.5 3.7 0 2.3-1.5 3.7-3.5 3.7zm17.7-14.1v6c-0.9-1.1-2.3-1.6-3.8-1.6-3.4 0-5.9 2.4-5.9 6 0 3.7 2.5 6 5.9 6 1.6 0 3-0.5 3.9-1.6v1.5h2.6v-16.3zm-3.4 14.1c-2 0-3.5-1.4-3.5-3.7 0-2.2 1.5-3.7 3.5-3.7 2 0 3.5 1.5 3.5 3.7 0 2.3-1.5 3.7-3.5 3.7zm20.8-3.6c0-3.7-2.5-6.1-5.9-6.1-3.5 0-6.1 2.5-6.1 6 0 3.5 2.6 6 6.5 6 2 0 3.7-0.6 4.7-1.9l-1.4-1.7c-0.9 0.9-1.9 1.3-3.2 1.3-2.1 0-3.5-1.1-3.8-2.8h9.2c0-0.3 0-0.6 0-0.8zm-5.9-3.9c1.8 0 3.1 1.2 3.3 2.9h-6.6c0.2-1.8 1.5-2.9 3.3-2.9zm8.6 9.7h2.7v-16.3h-2.7zm6.3 0h2.8v-16.4h-2.8zm7.8-13.6c1 0 1.7-0.8 1.7-1.8 0-0.9-0.7-1.6-1.7-1.6-1 0-1.8 0.8-1.8 1.7 0 0.9 0.8 1.7 1.8 1.7zm-1.4 13.6h2.7v-11.7h-2.7zm17.4-5.8c0-3.7-2.5-6.1-5.9-6.1-3.5 0-6.1 2.5-6.1 6 0 3.5 2.5 6 6.5 6 2 0 3.7-0.6 4.7-1.9l-1.5-1.7c-0.8 0.9-1.8 1.3-3.2 1.3-2 0-3.4-1.1-3.8-2.8h9.3c0-0.3 0-0.6 0-0.8zm-5.9-3.9c1.8 0 3.1 1.2 3.3 2.9h-6.7c0.3-1.7 1.6-2.9 3.4-2.9zm11.2-0.3v-1.8h-2.7v11.8h2.8v-5.7c0-2.4 1.3-3.6 3.4-3.6 0.2 0 0.4 0 0.6 0v-2.6c-1.9 0-3.4 0.6-4.1 1.9zm17.4 4.2c0-3.7-2.5-6.1-5.9-6.1-3.5 0-6.1 2.5-6.1 6 0 3.5 2.5 6 6.5 6 2 0 3.7-0.6 4.7-1.9l-1.5-1.7c-0.8 0.9-1.8 1.3-3.2 1.3-2 0-3.4-1.1-3.8-2.8h9.3c0-0.3 0-0.6 0-0.8zm-5.9-3.9c1.8 0 3.1 1.2 3.3 2.9h-6.7c0.3-1.7 1.6-2.9 3.4-2.9zm15.2-2.2c-1.7 0-3.1 0.6-4 1.7v-1.6h-2.7v11.8h2.8v-6c0-2.3 1.3-3.5 3.3-3.5 1.7 0 2.8 1 2.8 3.1v6.4h2.7v-6.7c0-3.6-2.1-5.2-4.9-5.2z"/>
		<path id="Bedienen" class="s1" aria-label="Bedienen"  d="m1024.1 714c1.1-0.6 1.9-1.8 1.9-3.4 0-2.4-1.9-4-5.6-4h-7.3v15.4h7.7c4 0 6-1.5 6-4.2 0-2-1.1-3.3-2.7-3.8zm-4-5.2c1.9 0 3.1 0.7 3.1 2.2 0 1.4-1.2 2.1-3.1 2.1h-4.1v-4.3zm0.6 11h-4.6v-4.5h4.6c2.1 0 3.3 0.7 3.3 2.2 0 1.6-1.2 2.3-3.3 2.3zm20-3.6c0-3.7-2.5-6.1-5.9-6.1-3.5 0-6.1 2.5-6.1 6 0 3.5 2.6 6.1 6.5 6.1 2 0 3.7-0.7 4.7-2l-1.4-1.7c-0.9 0.9-1.9 1.3-3.2 1.3-2.1 0-3.5-1.1-3.8-2.8h9.2c0-0.3 0-0.6 0-0.8zm-5.9-3.9c1.8 0 3.1 1.2 3.3 2.9h-6.7c0.3-1.7 1.6-2.9 3.4-2.9zm17.3-6.6v6c-0.9-1.1-2.3-1.6-3.8-1.6-3.4 0-5.9 2.4-5.9 6 0 3.7 2.5 6.1 5.9 6.1 1.6 0 3-0.6 3.9-1.7v1.5h2.7v-16.3zm-3.5 14.1c-2 0-3.5-1.4-3.5-3.7 0-2.2 1.5-3.6 3.5-3.6 2 0 3.5 1.4 3.5 3.6 0 2.3-1.5 3.7-3.5 3.7zm11.2-11.5c1 0 1.8-0.7 1.8-1.7 0-0.9-0.8-1.6-1.8-1.6-1 0-1.8 0.7-1.8 1.7 0 0.9 0.8 1.6 1.8 1.6zm-1.4 13.7h2.8v-11.7h-2.8zm17.4-5.9c0-3.6-2.5-6-5.9-6-3.5 0-6.1 2.5-6.1 6 0 3.5 2.6 6 6.5 6 2 0 3.7-0.7 4.7-1.9l-1.4-1.7c-0.9 0.9-1.9 1.3-3.2 1.3-2.1 0-3.5-1.1-3.8-2.8h9.2c0-0.3 0-0.6 0-0.9zm-5.9-3.8c1.8 0 3.1 1.1 3.3 2.8h-6.7c0.3-1.7 1.6-2.8 3.4-2.8zm15.2-2.2c-1.7 0-3.1 0.5-4 1.6v-1.5h-2.6v11.8h2.7v-6c0-2.3 1.3-3.5 3.3-3.5 1.8 0 2.8 1 2.8 3.1v6.4h2.7v-6.8c0-3.5-2.1-5.1-4.9-5.1zm19.6 6c0-3.6-2.5-6-6-6-3.5 0-6 2.5-6 6 0 3.5 2.5 6 6.5 6 2 0 3.6-0.7 4.7-1.9l-1.5-1.7c-0.8 0.9-1.8 1.3-3.2 1.3-2 0-3.4-1.1-3.8-2.8h9.2c0.1-0.3 0.1-0.6 0.1-0.9zm-6-3.8c1.9 0 3.1 1.1 3.4 2.8h-6.7c0.3-1.7 1.6-2.8 3.3-2.8zm15.3-2.2c-1.7 0-3.2 0.5-4.1 1.6v-1.5h-2.6v11.8h2.8v-6c0-2.3 1.3-3.5 3.3-3.5 1.7 0 2.7 1 2.7 3.1v6.4h2.8v-6.8c0-3.5-2.1-5.1-4.9-5.1z"/>
		<path id="&amp; Anwenden" class="s1" aria-label="&amp; Anwenden"  d="m1009.1 745.5l-1.9-1.9c0.6-1 1.1-2.2 1.4-3.5l-2.3-0.7c-0.2 1-0.5 1.8-0.8 2.6l-3.3-3.2c2.2-1.3 3.1-2.4 3.1-4 0-2.1-1.6-3.4-4.1-3.4-2.7 0-4.5 1.5-4.5 3.7 0 1.1 0.5 2.1 1.7 3.3-2.5 1.5-3.5 2.8-3.5 4.7 0 2.4 2.3 4.1 5.6 4.1 2 0 3.8-0.6 5.2-1.8l1.9 1.8zm-7.9-12c1.1 0 1.7 0.6 1.7 1.4 0 0.9-0.5 1.5-2.3 2.5-1.1-1.1-1.4-1.6-1.4-2.3 0-1 0.7-1.6 2-1.6zm-0.5 11.6c-1.9 0-3.2-0.9-3.2-2.2 0-1.1 0.7-1.9 2.4-2.9l4.1 3.9c-0.9 0.8-2.1 1.2-3.3 1.2zm28.5 2h2.9l-6.9-15.4h-2.8l-7 15.4h3l1.5-3.6h7.7zm-8.3-5.8l2.9-6.7 2.9 6.7zm19.6-6.1c-1.7 0-3.1 0.6-4 1.7v-1.5h-2.6v11.7h2.7v-5.9c0-2.4 1.4-3.6 3.3-3.6 1.8 0 2.8 1 2.8 3.1v6.4h2.8v-6.7c0-3.6-2.1-5.2-5-5.2zm24.1 0.2l-3.2 8.7-3.1-8.7h-2.4l-3.2 8.6-3.1-8.6h-2.6l4.3 11.7h2.7l3-8.1 3.1 8.1h2.6l4.4-11.7zm15 5.9c0-3.7-2.5-6.1-5.9-6.1-3.5 0-6.1 2.5-6.1 6 0 3.5 2.5 6.1 6.5 6.1 2 0 3.7-0.7 4.7-1.9l-1.5-1.7c-0.8 0.8-1.8 1.2-3.1 1.2-2.1 0-3.5-1.1-3.9-2.8h9.3c0-0.2 0-0.6 0-0.8zm-5.9-3.9c1.8 0 3.1 1.2 3.3 2.9h-6.7c0.3-1.7 1.6-2.9 3.4-2.9zm15.2-2.2c-1.7 0-3.1 0.6-4 1.7v-1.5h-2.7v11.7h2.8v-5.9c0-2.4 1.3-3.6 3.3-3.6 1.7 0 2.8 1 2.8 3.1v6.4h2.7v-6.7c0-3.6-2.1-5.2-4.9-5.2zm17.3-4.4v6c-0.9-1.1-2.3-1.6-3.8-1.6-3.4 0-5.9 2.4-5.9 6 0 3.7 2.5 6.1 5.9 6.1 1.6 0 3-0.6 3.9-1.7v1.5h2.6v-16.3zm-3.4 14.1c-2 0-3.5-1.4-3.5-3.7 0-2.2 1.5-3.6 3.5-3.6 2 0 3.5 1.4 3.5 3.6 0 2.3-1.5 3.7-3.5 3.7zm20.8-3.6c0-3.7-2.5-6.1-5.9-6.1-3.5 0-6.1 2.5-6.1 6 0 3.5 2.6 6.1 6.5 6.1 2 0 3.7-0.7 4.7-1.9l-1.4-1.7c-0.9 0.8-1.9 1.2-3.2 1.2-2.1 0-3.5-1.1-3.8-2.8h9.2c0-0.2 0-0.6 0-0.8zm-5.9-3.9c1.8 0 3.1 1.2 3.3 2.9h-6.6c0.2-1.7 1.5-2.9 3.3-2.9zm15.2-2.2c-1.7 0-3.1 0.6-4 1.7v-1.5h-2.6v11.7h2.7v-5.9c0-2.4 1.3-3.6 3.3-3.6 1.8 0 2.8 1 2.8 3.1v6.4h2.7v-6.7c0-3.6-2-5.2-4.9-5.2z"/>
		<path id="Informieren" class="s1" aria-label="Informieren"  d="m750.7 293h2.8v-15.4h-2.8zm13.4-11.9c-1.7 0-3.1 0.6-4 1.7v-1.5h-2.7v11.7h2.8v-5.9c0-2.4 1.3-3.6 3.3-3.6 1.7 0 2.8 1 2.8 3.1v6.4h2.7v-6.7c0-3.6-2.1-5.2-4.9-5.2zm13.2-2.4c0.6 0 1.1 0.2 1.5 0.5l0.8-2c-0.6-0.5-1.6-0.7-2.5-0.7-2.7 0-4.2 1.6-4.2 4.1v0.7h-2v2.2h2v9.5h2.7v-9.5h3.2v-2.2h-3.3v-0.7c0-1.2 0.6-1.9 1.8-1.9zm8.4 14.5c3.7 0 6.3-2.6 6.3-6.1 0-3.5-2.6-6-6.3-6-3.6 0-6.2 2.5-6.2 6 0 3.5 2.6 6.1 6.2 6.1zm0-2.4c-1.9 0-3.4-1.4-3.4-3.7 0-2.2 1.5-3.6 3.4-3.6 2 0 3.5 1.4 3.5 3.6 0 2.3-1.5 3.7-3.5 3.7zm11.6-7.8v-1.7h-2.7v11.7h2.8v-5.7c0-2.4 1.3-3.6 3.4-3.6 0.2 0 0.4 0 0.6 0v-2.6c-1.9 0-3.3 0.6-4.1 1.9zm21.3-1.9c-1.9 0-3.5 0.8-4.4 2-0.8-1.3-2.2-2-4-2-1.6 0-2.9 0.6-3.8 1.6v-1.4h-2.6v11.7h2.7v-6c0-2.3 1.3-3.5 3.1-3.5 1.7 0 2.6 1 2.6 3.1v6.4h2.8v-6c0-2.3 1.2-3.5 3-3.5 1.7 0 2.7 1 2.7 3.1v6.4h2.7v-6.7c0-3.6-2-5.2-4.8-5.2zm9.7-1.8c1.1 0 1.8-0.7 1.8-1.7 0-0.9-0.8-1.6-1.8-1.6-1 0-1.7 0.7-1.7 1.7 0 0.9 0.7 1.6 1.7 1.6zm-1.4 13.7h2.8v-11.7h-2.8zm17.4-5.9c0-3.6-2.5-6-5.9-6-3.5 0-6.1 2.5-6.1 6 0 3.5 2.6 6 6.5 6 2 0 3.7-0.7 4.7-1.9l-1.4-1.7c-0.9 0.9-1.9 1.3-3.2 1.3-2.1 0-3.5-1.1-3.8-2.8h9.2c0-0.3 0-0.6 0-0.9zm-5.9-3.8c1.8 0 3.1 1.1 3.3 2.8h-6.6c0.2-1.7 1.5-2.8 3.3-2.8zm11.2-0.4v-1.7h-2.6v11.8h2.7v-5.7c0-2.4 1.3-3.7 3.4-3.7 0.2 0 0.4 0 0.7 0.1v-2.6c-2 0-3.4 0.6-4.2 1.8zm17.4 4.2c0-3.6-2.5-6-5.9-6-3.5 0-6.1 2.5-6.1 6 0 3.5 2.6 6 6.5 6 2 0 3.7-0.7 4.8-1.9l-1.5-1.7c-0.9 0.9-1.9 1.3-3.2 1.3-2.1 0-3.5-1.1-3.8-2.8h9.2c0-0.3 0-0.6 0-0.9zm-5.9-3.8c1.8 0 3.1 1.1 3.3 2.8h-6.6c0.2-1.7 1.5-2.8 3.3-2.8zm15.2-2.2c-1.7 0-3.1 0.5-4 1.6v-1.5h-2.6v11.8h2.7v-6c0-2.3 1.4-3.5 3.3-3.5 1.8 0 2.8 1 2.8 3.1v6.4h2.8v-6.8c0-3.5-2.1-5.1-5-5.1z"/>
		<path id="&amp; Recherchieren" class="s1" aria-label="&amp; RRecherchieren"  d="m738 316.5l-2-1.9c0.7-1 1.1-2.2 1.4-3.5l-2.2-0.7c-0.2 1-0.5 1.8-0.9 2.6l-3.3-3.2c2.2-1.3 3.2-2.4 3.2-4 0-2.1-1.7-3.4-4.2-3.4-2.7 0-4.4 1.5-4.4 3.7 0 1.1 0.4 2.1 1.7 3.3-2.5 1.5-3.6 2.8-3.6 4.7 0 2.4 2.4 4.1 5.6 4.1 2.1 0 3.8-0.6 5.2-1.8l1.9 1.8zm-7.9-12c1.2 0 1.8 0.6 1.8 1.4 0 0.9-0.6 1.5-2.3 2.5-1.1-1.1-1.4-1.6-1.4-2.3 0-1 0.7-1.6 1.9-1.6zm-0.5 11.6c-1.9 0-3.1-0.9-3.1-2.2 0-1.1 0.6-1.9 2.4-2.9l4.1 3.9c-1 0.8-2.1 1.2-3.4 1.2zm30.1 2l-3.5-5.1c2.1-0.8 3.3-2.5 3.3-4.8 0-3.4-2.5-5.5-6.6-5.5h-6.3v15.4h2.8v-4.5h3.5c0.2 0 0.4 0 0.6 0l3.2 4.5zm-3.2-9.9c0 1.9-1.3 3-3.8 3h-3.3v-6.1h3.3c2.5 0 3.8 1.1 3.8 3.1zm16.9 4.1c0-3.7-2.5-6.1-6-6.1-3.5 0-6 2.5-6 6 0 3.5 2.5 6 6.4 6 2.1 0 3.7-0.6 4.8-1.9l-1.5-1.7c-0.8 0.9-1.9 1.3-3.2 1.3-2 0-3.5-1.1-3.8-2.8h9.2c0-0.3 0.1-0.6 0.1-0.8zm-6-3.9c1.8 0 3.1 1.2 3.3 2.9h-6.6c0.2-1.8 1.5-2.9 3.3-2.9zm14 9.8c2.3 0 4.1-1 5-2.7l-2.1-1.2c-0.7 1.1-1.8 1.6-2.9 1.6-2.1 0-3.6-1.4-3.6-3.7 0-2.3 1.5-3.7 3.6-3.7 1.1 0 2.2 0.5 2.9 1.7l2.1-1.3c-0.9-1.8-2.7-2.7-5-2.7-3.7 0-6.4 2.5-6.4 6 0 3.5 2.7 6 6.4 6zm13.9-12c-1.6 0-3 0.5-3.9 1.5v-5.9h-2.7v16.3h2.7v-6c0-2.3 1.3-3.5 3.3-3.5 1.8 0 2.8 1 2.8 3.1v6.4h2.7v-6.7c0-3.6-2-5.2-4.9-5.2zm19.6 6.1c0-3.7-2.5-6.1-5.9-6.1-3.5 0-6.1 2.5-6.1 6 0 3.5 2.5 6 6.5 6 2 0 3.7-0.6 4.7-1.9l-1.5-1.7c-0.8 0.9-1.8 1.3-3.2 1.3-2 0-3.4-1.1-3.8-2.8h9.3c0-0.3 0-0.6 0-0.8zm-5.9-3.9c1.8 0 3.1 1.2 3.3 2.9h-6.7c0.3-1.8 1.6-2.9 3.4-2.9zm11.2-0.3v-1.8h-2.7v11.8h2.8v-5.7c0-2.4 1.3-3.6 3.4-3.6 0.2 0 0.4 0 0.6 0v-2.6c-1.9 0-3.4 0.6-4.1 1.9zm11.7 10.1c2.3 0 4.2-1 5.1-2.7l-2.1-1.2c-0.8 1.1-1.8 1.6-3 1.6-2 0-3.5-1.4-3.5-3.7 0-2.3 1.5-3.7 3.5-3.7 1.2 0 2.2 0.5 3 1.7l2.1-1.3c-0.9-1.8-2.8-2.7-5.1-2.7-3.7 0-6.3 2.5-6.3 6 0 3.5 2.6 6 6.3 6zm14-12c-1.6 0-3 0.5-3.9 1.5v-5.9h-2.8v16.3h2.8v-6c0-2.3 1.3-3.5 3.3-3.5 1.7 0 2.8 1 2.8 3.1v6.4h2.7v-6.7c0-3.6-2.1-5.2-4.9-5.2zm9.8-1.8c1 0 1.7-0.7 1.7-1.7 0-0.9-0.7-1.6-1.7-1.6-1 0-1.8 0.7-1.8 1.6 0 1 0.8 1.7 1.8 1.7zm-1.4 13.7h2.8v-11.8h-2.8zm17.4-5.8c0-3.6-2.5-6-5.9-6-3.5 0-6.1 2.5-6.1 6 0 3.5 2.5 6 6.5 6 2 0 3.7-0.7 4.7-1.9l-1.5-1.7c-0.8 0.8-1.8 1.3-3.2 1.3-2 0-3.4-1.1-3.8-2.9h9.3c0-0.2 0-0.6 0-0.8zm-5.9-3.8c1.8 0 3.1 1.1 3.3 2.8h-6.7c0.3-1.7 1.6-2.8 3.4-2.8zm11.2-0.4v-1.7h-2.7v11.7h2.8v-5.7c0-2.4 1.3-3.6 3.4-3.6 0.2 0 0.4 0 0.6 0.1v-2.6c-1.9 0-3.3 0.6-4.1 1.8zm17.4 4.2c0-3.6-2.5-6-5.9-6-3.5 0-6.1 2.5-6.1 6 0 3.5 2.5 6 6.5 6 2 0 3.7-0.7 4.7-1.9l-1.5-1.7c-0.8 0.8-1.8 1.3-3.1 1.3-2.1 0-3.5-1.1-3.9-2.9h9.3c0-0.2 0-0.6 0-0.8zm-5.9-3.8c1.8 0 3.1 1.1 3.3 2.8h-6.7c0.3-1.7 1.6-2.8 3.4-2.8zm15.2-2.2c-1.7 0-3.1 0.5-4 1.6v-1.5h-2.7v11.7h2.8v-5.9c0-2.4 1.3-3.5 3.3-3.5 1.7 0 2.8 1 2.8 3.1v6.3h2.7v-6.7c0-3.5-2.1-5.1-4.9-5.1z"/>
		<path id="Unterrichts-
" class="s1" aria-label="Unterrichts-"  d="m892 433.1c2.7 0 4.3-1.5 4.3-4.4v-5.5h-1.8v5.5c0 2-0.9 2.8-2.5 2.8-1.6 0-2.5-0.8-2.5-2.8v-5.5h-1.8v5.5c0 2.9 1.6 4.4 4.3 4.4zm13.8-9.9v6.6l-5.4-6.6h-1.5v9.8h1.8v-6.6l5.4 6.6h1.5v-9.8zm6.5 9.8h1.8v-8.3h3.3v-1.5h-8.3v1.5h3.2zm8.3-1.5v-2.7h4.8v-1.5h-4.8v-2.5h5.4v-1.6h-7.2v9.8h7.4v-1.5zm16 1.5l-2.3-3.2c1.3-0.5 2.1-1.6 2.1-3.1 0-2.1-1.6-3.5-4.2-3.5h-4v9.8h1.8v-2.8h2.2c0.2 0 0.3 0 0.4 0l2 2.8zm-2-6.3c0 1.3-0.8 2-2.4 2h-2.1v-3.9h2.1c1.6 0 2.4 0.7 2.4 1.9zm12.3 6.3l-2.2-3.2c1.3-0.5 2-1.6 2-3.1 0-2.1-1.5-3.5-4.1-3.5h-4.1v9.8h1.9v-2.8h2.2c0.1 0 0.2 0 0.4 0l2 2.8zm-2-6.3c0 1.3-0.9 2-2.5 2h-2.1v-3.9h2.1c1.6 0 2.5 0.7 2.5 1.9zm3.9 6.3h1.8v-9.8h-1.8zm9.1 0.2c1.6 0 2.9-0.6 3.9-1.7l-1.2-1.1c-0.7 0.8-1.6 1.2-2.6 1.2-2.1 0-3.5-1.4-3.5-3.5 0-2 1.4-3.4 3.5-3.4 1 0 1.9 0.4 2.6 1.1l1.2-1.1c-1-1-2.3-1.6-3.9-1.6-3 0-5.3 2.1-5.3 5 0 3 2.3 5.1 5.3 5.1zm12.6-10v4.1h-5.1v-4.1h-1.8v9.8h1.8v-4.2h5.1v4.2h1.8v-9.8zm6.5 9.8h1.8v-8.2h3.3v-1.6h-8.4v1.6h3.3zm9.4 0.1c2.7 0 4-1.3 4-2.9 0-3.6-5.8-2.2-5.8-4.3 0-0.8 0.6-1.3 2.1-1.3 0.9 0 1.8 0.2 2.7 0.7l0.6-1.4c-0.9-0.6-2.1-0.9-3.3-0.9-2.7 0-3.9 1.4-3.9 3 0 3.6 5.8 2.2 5.8 4.3 0 0.8-0.6 1.3-2.2 1.3-1.2 0-2.4-0.4-3.2-1.1l-0.6 1.4c0.8 0.7 2.3 1.2 3.8 1.2zm5.5-3.3h3.9v-1.4h-3.9z"/>
		<path id="bausteine
" class="s1" aria-label="bausteine"  d="m904.6 444.9c0.8-0.4 1.3-1.1 1.3-2.2 0-1.5-1.3-2.5-3.6-2.5h-4.6v9.8h4.8c2.6 0 3.9-1 3.9-2.7 0-1.2-0.7-2.1-1.8-2.4zm-2.5-3.3c1.2 0 1.9 0.5 1.9 1.4 0 0.9-0.7 1.3-1.9 1.3h-2.6v-2.7zm0.4 7h-3v-2.9h3c1.3 0 2.1 0.5 2.1 1.5 0 0.9-0.8 1.4-2.1 1.4zm13.3 1.4h1.9l-4.5-9.8h-1.8l-4.4 9.8h1.9l1-2.3h4.9zm-5.3-3.7l1.8-4.2 1.9 4.2zm12.5 3.9c2.7 0 4.3-1.6 4.3-4.4v-5.6h-1.8v5.5c0 2-0.9 2.9-2.5 2.9-1.6 0-2.5-0.9-2.5-2.9v-5.5h-1.8v5.6c0 2.8 1.6 4.4 4.3 4.4zm9.9 0c2.7 0 4-1.4 4-2.9 0-3.6-5.8-2.3-5.8-4.4 0-0.7 0.6-1.3 2.1-1.3 0.9 0 1.8 0.3 2.7 0.8l0.6-1.4c-0.9-0.6-2.1-0.9-3.3-0.9-2.7 0-3.9 1.3-3.9 2.9 0 3.7 5.8 2.3 5.8 4.4 0 0.7-0.7 1.3-2.2 1.3-1.2 0-2.4-0.5-3.2-1.1l-0.6 1.4c0.8 0.7 2.3 1.2 3.8 1.2zm7.7-0.2h1.8v-8.2h3.3v-1.6h-8.3v1.6h3.2zm8.3-1.6v-2.7h4.8v-1.5h-4.8v-2.5h5.4v-1.5h-7.2v9.8h7.4v-1.6zm7.6 1.6h1.8v-9.8h-1.8zm11.4-9.8v6.6l-5.4-6.6h-1.5v9.8h1.8v-6.7l5.4 6.7h1.5v-9.8zm6.4 8.2v-2.7h4.7v-1.5h-4.7v-2.5h5.3v-1.5h-7.2v9.8h7.4v-1.6z"/>
		<path id="TOOLS &amp;
TUTORIALS
" class="s1" aria-label="TOOLS &amp;
TUTORIALS"  d="m861 522h1.8v-8.3h3.3v-1.5h-8.3v1.5h3.2zm11 0.2c3 0 5.3-2.1 5.3-5.1 0-2.9-2.3-5-5.3-5-3.1 0-5.3 2.1-5.3 5 0 2.9 2.2 5.1 5.3 5.1zm0-1.6c-2 0-3.5-1.5-3.5-3.5 0-2 1.5-3.4 3.5-3.4 1.9 0 3.4 1.4 3.4 3.4 0 2-1.5 3.5-3.4 3.5zm11.8 1.6c3.1 0 5.3-2.1 5.3-5.1 0-2.9-2.2-5-5.3-5-3 0-5.2 2.1-5.2 5 0 2.9 2.2 5.1 5.2 5.1zm0-1.6c-1.9 0-3.4-1.5-3.4-3.5 0-2 1.5-3.4 3.4-3.4 2 0 3.5 1.4 3.5 3.4 0 2-1.5 3.5-3.5 3.5zm7.3 1.4h7v-1.5h-5.2v-8.3h-1.8zm11.4 0.2c2.7 0 4-1.4 4-2.9 0-3.6-5.8-2.3-5.8-4.4 0-0.7 0.6-1.3 2.1-1.3 0.9 0 1.8 0.3 2.7 0.8l0.6-1.4c-0.9-0.6-2.1-0.9-3.3-0.9-2.7 0-3.9 1.3-3.9 2.9 0 3.7 5.8 2.3 5.8 4.4 0 0.7-0.6 1.3-2.2 1.3-1.2 0-2.4-0.5-3.2-1.1l-0.6 1.4c0.8 0.7 2.3 1.2 3.8 1.2zm18.1-1.1l-1.2-1.2c0.4-0.6 0.7-1.4 0.9-2.3l-1.4-0.4c-0.2 0.6-0.3 1.2-0.6 1.6l-2.1-2c1.4-0.8 2-1.5 2-2.5 0-1.3-1-2.2-2.6-2.2-1.7 0-2.9 1-2.9 2.3 0 0.8 0.3 1.4 1.1 2.2-1.6 0.9-2.2 1.7-2.2 3 0 1.5 1.5 2.6 3.5 2.6 1.3 0 2.4-0.4 3.3-1.2l1.3 1.2zm-5.1-7.7c0.7 0 1.2 0.4 1.2 0.9 0 0.6-0.4 1-1.5 1.6-0.7-0.7-0.9-1-0.9-1.5 0-0.6 0.4-1 1.2-1zm-0.3 7.4c-1.2 0-2-0.6-2-1.4 0-0.7 0.4-1.2 1.5-1.8l2.6 2.4c-0.6 0.5-1.3 0.8-2.1 0.8zm-63.7 17.3h1.8v-8.3h3.3v-1.5h-8.3v1.5h3.2zm10.6 0.2c2.6 0 4.2-1.6 4.2-4.5v-5.5h-1.8v5.5c0 2-0.9 2.9-2.4 2.9-1.6 0-2.5-0.9-2.5-2.9v-5.5h-1.8v5.5c0 2.9 1.6 4.5 4.3 4.5zm8.7-0.2h1.8v-8.2h3.2v-1.6h-8.3v1.6h3.3zm10.9 0.1c3 0 5.3-2.1 5.3-5 0-3-2.3-5.1-5.3-5.1-3 0-5.3 2.2-5.3 5.1 0 2.9 2.3 5 5.3 5zm0-1.6c-2 0-3.4-1.4-3.4-3.4 0-2 1.4-3.5 3.4-3.5 2 0 3.5 1.5 3.5 3.5 0 2-1.5 3.4-3.5 3.4zm15.7 1.5l-2.3-3.3c1.3-0.5 2.1-1.6 2.1-3.1 0-2.1-1.6-3.4-4.2-3.4h-4v9.8h1.8v-2.9h2.2c0.1 0 0.3 0 0.4 0l2 2.9zm-2-6.4c0 1.3-0.8 2-2.4 2h-2.2v-3.9h2.2c1.6 0 2.4 0.7 2.4 1.9zm3.9 6.4h1.9v-9.8h-1.9zm11.9 0h1.9l-4.4-9.8h-1.8l-4.4 9.8h1.9l0.9-2.3h4.9zm-5.2-3.7l1.8-4.3 1.8 4.3zm8.5 3.7h7v-1.6h-5.2v-8.2h-1.8zm11.5 0.1c2.6 0 3.9-1.3 3.9-2.9 0-3.6-5.8-2.2-5.8-4.3 0-0.8 0.6-1.3 2.1-1.3 0.9 0 1.9 0.2 2.7 0.7l0.6-1.4c-0.8-0.5-2.1-0.9-3.3-0.9-2.6 0-3.9 1.4-3.9 3 0 3.6 5.8 2.2 5.8 4.3 0 0.8-0.6 1.3-2.1 1.3-1.3 0-2.5-0.4-3.3-1.1l-0.6 1.5c0.8 0.7 2.3 1.1 3.9 1.1z"/>
		<path id="TRENDS
" class="s1" aria-label="TRENDS"  d="m965.9 529h1.8v-8.3h3.3v-1.5h-8.3v1.5h3.2zm14.9 0l-2.3-3.2c1.4-0.5 2.1-1.6 2.1-3.1 0-2.1-1.6-3.5-4.1-3.5h-4.1v9.8h1.8v-2.8h2.3c0.1 0 0.2 0 0.3 0l2 2.8zm-2-6.3c0 1.3-0.8 2-2.4 2h-2.1v-3.9h2.1c1.6 0 2.4 0.7 2.4 1.9zm5.8 4.8v-2.7h4.7v-1.5h-4.7v-2.5h5.3v-1.6h-7.1v9.8h7.3v-1.5zm14.5-8.3v6.7l-5.4-6.7h-1.5v9.8h1.8v-6.6l5.5 6.6h1.5v-9.8zm4.5 9.8h4.2c3.2 0 5.4-1.9 5.4-4.9 0-2.9-2.2-4.9-5.4-4.9h-4.2zm1.8-1.5v-6.7h2.4c2.1 0 3.6 1.3 3.6 3.3 0 2.1-1.5 3.4-3.6 3.4zm12.8 1.7c2.7 0 4-1.4 4-2.9 0-3.6-5.8-2.3-5.8-4.4 0-0.7 0.6-1.3 2.1-1.3 0.8 0 1.8 0.3 2.7 0.8l0.6-1.4c-0.9-0.6-2.1-0.9-3.3-0.9-2.7 0-3.9 1.3-3.9 2.9 0 3.7 5.8 2.3 5.8 4.4 0 0.7-0.7 1.3-2.2 1.3-1.2 0-2.4-0.5-3.2-1.1l-0.7 1.4c0.9 0.7 2.4 1.2 3.9 1.2z"/>
		<path id="Kommunizieren
" class="s1" aria-label="Kommunizieren"  d="m987.6 293h3.3l-6.9-8.5 6.5-6.9h-3.2l-7.6 7.9v-7.9h-2.9v15.4h2.9v-3.9l2.4-2.5zm9.8 0.1c3.7 0 6.3-2.5 6.3-6 0-3.5-2.6-6-6.3-6-3.6 0-6.2 2.5-6.2 6 0 3.5 2.6 6 6.2 6zm0-2.3c-1.9 0-3.4-1.5-3.4-3.7 0-2.3 1.5-3.7 3.4-3.7 2 0 3.5 1.4 3.5 3.7 0 2.2-1.5 3.7-3.5 3.7zm23.8-9.7c-1.9 0-3.5 0.7-4.4 1.9-0.8-1.3-2.3-1.9-4-1.9-1.6 0-3 0.5-3.8 1.6v-1.5h-2.7v11.8h2.8v-6c0-2.3 1.2-3.5 3-3.5 1.7 0 2.7 1 2.7 3.1v6.4h2.7v-6c0-2.3 1.3-3.5 3.1-3.5 1.7 0 2.6 1 2.6 3.1v6.4h2.8v-6.8c0-3.5-2-5.1-4.8-5.1zm23.1 0c-1.8 0-3.4 0.7-4.4 1.9-0.8-1.3-2.2-1.9-3.9-1.9-1.6 0-3 0.5-3.9 1.6v-1.5h-2.6v11.8h2.8v-6c0-2.3 1.2-3.5 3-3.5 1.7 0 2.7 1 2.7 3.1v6.4h2.7v-6c0-2.3 1.3-3.5 3.1-3.5 1.6 0 2.6 1 2.6 3.1v6.4h2.8v-6.8c0-3.5-2-5.1-4.9-5.1zm17 0.1v5.9c0 2.4-1.3 3.6-3.2 3.6-1.8 0-2.8-1-2.8-3.2v-6.3h-2.7v6.7c0 3.6 2 5.2 5 5.2 1.6 0 2.9-0.6 3.8-1.6v1.5h2.6v-11.8zm13.1-0.1c-1.7 0-3.2 0.5-4.1 1.6v-1.5h-2.6v11.8h2.8v-6c0-2.3 1.3-3.5 3.2-3.5 1.8 0 2.8 1 2.8 3.1v6.4h2.8v-6.8c0-3.5-2.1-5.1-4.9-5.1zm9.8-1.8c1 0 1.7-0.8 1.7-1.7 0-0.9-0.7-1.6-1.7-1.6-1.1 0-1.8 0.7-1.8 1.6 0 0.9 0.7 1.7 1.8 1.7zm-1.4 13.7h2.7v-11.8h-2.7zm8.9-2.2l6.4-7.8v-1.7h-9.8v2.2h6.3l-6.4 7.8v1.7h10.1v-2.2zm10.6-11.5c1 0 1.7-0.7 1.7-1.7 0-0.9-0.7-1.6-1.7-1.6-1 0-1.8 0.7-1.8 1.7 0 0.9 0.8 1.6 1.8 1.6zm-1.4 13.7h2.7v-11.7h-2.7zm17.4-5.9c0-3.6-2.5-6-6-6-3.5 0-6 2.5-6 6 0 3.5 2.5 6 6.5 6 2 0 3.6-0.6 4.7-1.9l-1.5-1.7c-0.8 0.9-1.9 1.3-3.2 1.3-2 0-3.4-1.1-3.8-2.8h9.2c0.1-0.3 0.1-0.6 0.1-0.9zm-6-3.8c1.8 0 3.1 1.1 3.4 2.8h-6.7c0.3-1.7 1.6-2.8 3.3-2.8zm11.2-0.4v-1.7h-2.6v11.8h2.8v-5.7c0-2.4 1.3-3.7 3.4-3.7 0.2 0 0.4 0.1 0.6 0.1v-2.6c-1.9 0-3.4 0.6-4.2 1.8zm17.5 4.2c0-3.6-2.5-6-6-6-3.5 0-6 2.5-6 6 0 3.5 2.5 6 6.5 6 2 0 3.6-0.6 4.7-1.9l-1.5-1.7c-0.8 0.9-1.8 1.3-3.2 1.3-2 0-3.4-1.1-3.8-2.8h9.2c0.1-0.3 0.1-0.6 0.1-0.9zm-6-3.8c1.9 0 3.1 1.1 3.4 2.8h-6.7c0.3-1.7 1.6-2.8 3.3-2.8zm15.3-2.2c-1.7 0-3.2 0.5-4.1 1.6v-1.5h-2.6v11.8h2.8v-6c0-2.3 1.3-3.5 3.3-3.5 1.7 0 2.7 1 2.7 3.1v6.4h2.8v-6.8c0-3.5-2.1-5.1-4.9-5.1z"/>
		<path id="&amp; Kooperieren
" class="s1" aria-label="&amp; Kooperieren"  d="m1000.3 318.5l-2-1.9c0.7-1 1.1-2.2 1.4-3.5l-2.2-0.7c-0.2 1-0.5 1.8-0.9 2.6l-3.3-3.2c2.2-1.3 3.2-2.4 3.2-4 0-2.1-1.7-3.4-4.2-3.4-2.7 0-4.4 1.5-4.4 3.7 0 1.1 0.4 2.1 1.7 3.3-2.5 1.5-3.6 2.8-3.6 4.7 0 2.4 2.4 4.1 5.6 4.1 2.1 0 3.8-0.6 5.2-1.8l1.9 1.8zm-7.9-12c1.2 0 1.8 0.6 1.8 1.4 0 0.9-0.6 1.5-2.4 2.5-1.1-1.1-1.3-1.6-1.3-2.3 0-1 0.7-1.6 1.9-1.6zm-0.5 11.6c-1.9 0-3.1-0.9-3.1-2.2 0-1.1 0.6-1.9 2.4-2.9l4.1 3.9c-1 0.8-2.1 1.2-3.4 1.2zm27.7 2h3.4l-6.9-8.5 6.5-6.9h-3.3l-7.6 7.9v-7.9h-2.8v15.4h2.8v-4l2.5-2.5zm9.8 0.2c3.6 0 6.3-2.5 6.3-6 0-3.6-2.7-6-6.3-6-3.6 0-6.3 2.4-6.3 6 0 3.5 2.7 6 6.3 6zm0-2.4c-2 0-3.5-1.4-3.5-3.6 0-2.3 1.5-3.7 3.5-3.7 2 0 3.5 1.4 3.5 3.7 0 2.2-1.5 3.6-3.5 3.6zm14.2 2.4c3.6 0 6.2-2.5 6.2-6 0-3.6-2.6-6-6.2-6-3.6 0-6.3 2.4-6.3 6 0 3.5 2.7 6 6.3 6zm0-2.4c-2 0-3.5-1.4-3.5-3.6 0-2.3 1.5-3.7 3.5-3.7 2 0 3.5 1.4 3.5 3.7 0 2.2-1.5 3.6-3.5 3.6zm15.4-9.6c-1.6 0-3 0.5-3.9 1.6v-1.5h-2.6v16h2.7v-5.7c1 1.1 2.3 1.6 3.8 1.6 3.4 0 6-2.4 6-6 0-3.7-2.6-6-6-6zm-0.3 9.6c-2 0-3.5-1.4-3.5-3.6 0-2.3 1.5-3.7 3.5-3.7 2 0 3.5 1.4 3.5 3.7 0 2.2-1.5 3.6-3.5 3.6zm19.9-3.6c0-3.6-2.5-6-5.9-6-3.5 0-6.1 2.5-6.1 6 0 3.5 2.6 6 6.5 6 2 0 3.7-0.7 4.7-1.9l-1.4-1.7c-0.9 0.8-1.9 1.3-3.2 1.3-2.1 0-3.5-1.1-3.8-2.9h9.2c0-0.2 0-0.6 0-0.8zm-5.9-3.8c1.8 0 3.1 1.1 3.3 2.8h-6.7c0.3-1.7 1.6-2.8 3.4-2.8zm11.2-0.4v-1.7h-2.6v11.7h2.7v-5.7c0-2.4 1.3-3.6 3.4-3.6 0.2 0 0.4 0 0.7 0.1v-2.6c-2 0-3.4 0.6-4.2 1.8zm7.9-3.6c1 0 1.7-0.8 1.7-1.8 0-0.9-0.7-1.5-1.7-1.5-1 0-1.8 0.7-1.8 1.6 0 0.9 0.8 1.7 1.8 1.7zm-1.4 13.6h2.7v-11.7h-2.7zm17.4-5.8c0-3.7-2.5-6.1-5.9-6.1-3.5 0-6.1 2.5-6.1 6 0 3.5 2.5 6 6.5 6 2 0 3.6-0.6 4.7-1.9l-1.5-1.7c-0.8 0.9-1.8 1.3-3.2 1.3-2 0-3.4-1.1-3.8-2.8h9.3c0-0.3 0-0.6 0-0.8zm-5.9-3.9c1.8 0 3.1 1.2 3.3 2.9h-6.7c0.3-1.7 1.6-2.9 3.4-2.9zm11.2-0.3v-1.8h-2.7v11.8h2.8v-5.7c0-2.4 1.3-3.6 3.4-3.6 0.2 0 0.4 0 0.6 0v-2.6c-1.9 0-3.4 0.6-4.1 1.9zm17.4 4.2c0-3.7-2.5-6.1-5.9-6.1-3.5 0-6.1 2.5-6.1 6 0 3.5 2.5 6 6.5 6 2 0 3.7-0.6 4.7-1.9l-1.5-1.7c-0.8 0.9-1.8 1.3-3.2 1.3-2 0-3.4-1.1-3.8-2.8h9.3c0-0.3 0-0.6 0-0.8zm-5.9-3.9c1.8 0 3.1 1.2 3.3 2.9h-6.7c0.3-1.7 1.6-2.9 3.4-2.9zm15.2-2.2c-1.7 0-3.1 0.6-4 1.7v-1.6h-2.7v11.8h2.8v-6c0-2.3 1.3-3.5 3.3-3.5 1.7 0 2.8 1 2.8 3.1v6.4h2.7v-6.7c0-3.6-2.1-5.2-4.9-5.2z"/>
		<path id="Analysieren
" class="s1" aria-label="Analysieren"  d="m638.9 503h3l-7-15.4h-2.8l-6.9 15.4h2.9l1.5-3.6h7.7zm-8.2-5.8l2.8-6.7 2.9 6.7zm19.7-6c-1.8 0-3.2 0.5-4.1 1.6v-1.5h-2.6v11.7h2.7v-5.9c0-2.4 1.4-3.5 3.3-3.5 1.8 0 2.8 1 2.8 3.1v6.3h2.8v-6.7c0-3.5-2.1-5.1-4.9-5.1zm12.9 0c-1.9 0-3.8 0.4-5 1.4l1.1 2c0.8-0.7 2.2-1.2 3.5-1.2 2 0 3 1 3 2.6v0.2h-3.1c-3.5 0-4.9 1.5-4.9 3.5 0 2 1.7 3.5 4.4 3.5 1.8 0 3-0.6 3.7-1.6v1.4h2.6v-6.9c0-3.3-2-4.9-5.3-4.9zm-0.4 10c-1.4 0-2.3-0.7-2.3-1.6 0-0.9 0.5-1.6 2.4-1.6h2.9v1.4c-0.5 1.2-1.7 1.8-3 1.8zm9.2 1.8h2.8v-16.3h-2.8zm14.7-11.7l-3.7 8.7-3.7-8.7h-2.8l5.1 11.8-0.2 0.4c-0.5 1.2-1.1 1.6-2.1 1.6-0.7 0-1.5-0.3-2-0.8l-1.1 2.1c0.8 0.6 2 1 3.1 1 2 0 3.5-0.8 4.6-3.4l5.5-12.7zm7.8 11.9c3.3 0 5.3-1.5 5.3-3.7 0-4.6-7.2-2.5-7.2-4.8 0-0.8 0.8-1.3 2.4-1.3 1.2 0 2.3 0.2 3.4 0.8l1.1-2.1c-1.1-0.6-2.9-1-4.4-1-3.2 0-5.2 1.5-5.2 3.7 0 4.7 7.3 2.6 7.3 4.8 0 0.8-0.8 1.3-2.5 1.3-1.5 0-3.1-0.5-4.1-1.1l-1.1 2c1.1 0.8 3.1 1.4 5 1.4zm9.1-13.9c1 0 1.8-0.7 1.8-1.7 0-0.9-0.8-1.6-1.8-1.6-1 0-1.8 0.8-1.8 1.7 0 0.9 0.8 1.6 1.8 1.6zm-1.4 13.7h2.8v-11.7h-2.8zm17.4-5.8c0-3.7-2.5-6.1-5.9-6.1-3.5 0-6.1 2.5-6.1 6 0 3.5 2.6 6 6.5 6 2 0 3.7-0.6 4.7-1.9l-1.5-1.7c-0.8 0.9-1.8 1.3-3.1 1.3-2.1 0-3.5-1.1-3.8-2.8h9.2c0-0.3 0-0.6 0-0.8zm-5.9-3.9c1.8 0 3.1 1.1 3.3 2.8h-6.7c0.3-1.7 1.6-2.8 3.4-2.8zm11.2-0.4v-1.7h-2.6v11.8h2.7v-5.7c0-2.4 1.3-3.7 3.4-3.7 0.2 0 0.4 0.1 0.7 0.1v-2.6c-2 0-3.4 0.6-4.2 1.8zm17.4 4.3c0-3.7-2.5-6.1-5.9-6.1-3.5 0-6.1 2.5-6.1 6 0 3.5 2.6 6 6.5 6 2 0 3.7-0.6 4.7-1.9l-1.4-1.7c-0.9 0.9-1.9 1.3-3.2 1.3-2.1 0-3.5-1.1-3.8-2.8h9.2c0-0.3 0-0.6 0-0.8zm-5.9-3.9c1.8 0 3.1 1.1 3.3 2.8h-6.7c0.3-1.7 1.6-2.8 3.4-2.8zm15.2-2.2c-1.7 0-3.1 0.6-4 1.6v-1.5h-2.6v11.8h2.7v-6c0-2.3 1.3-3.5 3.3-3.5 1.7 0 2.8 1 2.8 3.1v6.4h2.7v-6.8c0-3.5-2.1-5.1-4.9-5.1z"/>
		<path id="&amp; Reflektieren
" class="s1" aria-label="&amp; Reflektieren"  d="m626.5 528.5l-1.9-1.9c0.6-1 1.1-2.2 1.4-3.5l-2.3-0.7c-0.2 1-0.5 1.8-0.8 2.6l-3.3-3.2c2.2-1.3 3.1-2.4 3.1-4 0-2.1-1.6-3.4-4.1-3.4-2.7 0-4.5 1.5-4.5 3.7 0 1.1 0.5 2.1 1.7 3.3-2.5 1.5-3.5 2.8-3.5 4.7 0 2.4 2.3 4.1 5.6 4.1 2 0 3.8-0.6 5.1-1.8l2 1.8zm-7.9-12c1.1 0 1.7 0.6 1.7 1.4 0 0.9-0.5 1.5-2.3 2.5-1.1-1.1-1.4-1.6-1.4-2.3 0-1 0.7-1.6 2-1.6zm-0.5 11.6c-1.9 0-3.2-0.9-3.2-2.2 0-1.1 0.7-1.9 2.4-2.9l4.1 3.9c-0.9 0.8-2.1 1.2-3.3 1.2zm30.1 2l-3.6-5.1c2.1-0.8 3.3-2.5 3.3-4.8 0-3.5-2.5-5.5-6.5-5.5h-6.4v15.4h2.9v-4.5h3.5c0.2 0 0.4 0 0.6 0l3.1 4.5zm-3.1-9.9c0 1.9-1.3 3-3.9 3h-3.3v-6.1h3.3c2.6 0 3.9 1.1 3.9 3.1zm16.8 4.1c0-3.7-2.5-6.1-5.9-6.1-3.5 0-6.1 2.5-6.1 6 0 3.5 2.5 6 6.5 6 2 0 3.7-0.6 4.7-1.9l-1.5-1.7c-0.8 0.9-1.8 1.3-3.2 1.3-2 0-3.4-1.1-3.8-2.8h9.3c0-0.3 0-0.6 0-0.8zm-5.9-3.9c1.8 0 3.1 1.2 3.3 2.9h-6.7c0.3-1.8 1.6-2.9 3.4-2.9zm8.9-2.7v0.7h-1.9v2.2h1.9v9.5h2.8v-9.5h3.1v-2.2h-3.2v-0.7c0-1.2 0.6-1.9 1.7-1.9 0.6 0 1.1 0.2 1.5 0.5l0.8-2.1c-0.6-0.4-1.5-0.6-2.5-0.6-2.7 0-4.2 1.6-4.2 4.1zm7.8-3.9v16.3h2.7v-16.3zm17.4 10.5c0-3.7-2.5-6.1-5.9-6.1-3.5 0-6.1 2.5-6.1 6 0 3.5 2.6 6 6.5 6 2 0 3.7-0.6 4.7-1.9l-1.5-1.7c-0.8 0.9-1.8 1.3-3.1 1.3-2.1 0-3.5-1.1-3.8-2.8h9.2c0-0.3 0-0.6 0-0.8zm-5.9-3.9c1.8 0 3.1 1.2 3.3 2.9h-6.7c0.3-1.8 1.6-2.9 3.4-2.9zm17.4 9.7h3.4l-5.4-6.8 4.9-5h-3.3l-5.7 5.3v-9.8h-2.7v16.3h2.7v-3.1l2-2zm11.5-2.6c-0.5 0.4-1 0.5-1.6 0.5-1 0-1.6-0.6-1.6-1.7v-5.6h3.1v-2.2h-3.1v-2.7h-2.8v2.7h-1.9v2.2h1.9v5.6c0 2.6 1.5 4 4.1 4 1 0 2-0.3 2.6-0.8zm4.5-11.1c1 0 1.7-0.7 1.7-1.7 0-0.9-0.7-1.6-1.7-1.6-1.1 0-1.8 0.7-1.8 1.7 0 0.9 0.7 1.6 1.8 1.6zm-1.4 13.7h2.7v-11.7h-2.7zm17.4-5.9c0-3.6-2.5-6-6-6-3.5 0-6 2.5-6 6 0 3.5 2.5 6 6.5 6 2 0 3.6-0.7 4.7-1.9l-1.5-1.7c-0.8 0.9-1.9 1.3-3.2 1.3-2 0-3.5-1.1-3.8-2.8h9.2c0.1-0.3 0.1-0.6 0.1-0.9zm-6-3.8c1.8 0 3.1 1.1 3.4 2.8h-6.7c0.3-1.7 1.6-2.8 3.3-2.8zm11.2-0.4v-1.7h-2.6v11.8h2.8v-5.7c0-2.4 1.3-3.7 3.4-3.7 0.2 0 0.4 0 0.6 0.1v-2.6c-1.9 0-3.4 0.6-4.2 1.8zm17.5 4.2c0-3.6-2.5-6-6-6-3.5 0-6 2.5-6 6 0 3.5 2.5 6 6.5 6 2 0 3.6-0.7 4.7-1.9l-1.5-1.7c-0.8 0.9-1.9 1.3-3.2 1.3-2 0-3.5-1.1-3.8-2.8h9.2c0.1-0.3 0.1-0.6 0.1-0.9zm-6-3.8c1.8 0 3.1 1.1 3.4 2.8h-6.7c0.3-1.7 1.6-2.8 3.3-2.8zm15.3-2.2c-1.7 0-3.2 0.5-4.1 1.6v-1.5h-2.6v11.8h2.8v-6c0-2.3 1.3-3.5 3.2-3.5 1.8 0 2.8 1 2.8 3.1v6.4h2.8v-6.8c0-3.5-2.1-5.1-4.9-5.1z"/>
		<path id="Produzieren
" class="s1" aria-label="Produzieren"  d="m1129.2 487.6h-6.3v15.4h2.8v-4.4h3.5c4 0 6.5-2.1 6.5-5.5 0-3.4-2.5-5.5-6.5-5.5zm-0.1 8.5h-3.4v-6.1h3.4c2.5 0 3.8 1.1 3.8 3.1 0 1.9-1.3 3-3.8 3zm11.8-3.1v-1.7h-2.7v11.7h2.8v-5.7c0-2.4 1.3-3.6 3.4-3.6 0.2 0 0.4 0 0.6 0v-2.6c-1.9 0-3.4 0.6-4.1 1.9zm11.6 10.2c3.7 0 6.3-2.6 6.3-6.1 0-3.5-2.6-6-6.3-6-3.6 0-6.2 2.5-6.2 6 0 3.5 2.6 6.1 6.2 6.1zm0-2.4c-1.9 0-3.4-1.4-3.4-3.7 0-2.2 1.5-3.6 3.4-3.6 2 0 3.5 1.4 3.5 3.6 0 2.3-1.5 3.7-3.5 3.7zm17.7-14.1v6c-0.9-1.1-2.3-1.6-3.8-1.6-3.4 0-5.9 2.4-5.9 6 0 3.7 2.5 6.1 5.9 6.1 1.6 0 3-0.6 3.9-1.7v1.5h2.7v-16.3zm-3.5 14.1c-2 0-3.5-1.4-3.5-3.7 0-2.2 1.5-3.6 3.5-3.6 2 0 3.5 1.4 3.5 3.6 0 2.3-1.5 3.7-3.5 3.7zm18.4-9.5v5.9c0 2.3-1.3 3.5-3.2 3.5-1.7 0-2.7-1-2.7-3.1v-6.3h-2.8v6.7c0 3.5 2.1 5.2 5.1 5.2 1.5 0 2.9-0.6 3.8-1.7v1.5h2.6v-11.7zm8.9 9.5l6.4-7.8v-1.7h-9.8v2.2h6.3l-6.4 7.8v1.7h10.1v-2.2zm10.6-11.5c1 0 1.7-0.7 1.7-1.7 0-0.9-0.7-1.6-1.7-1.6-1 0-1.8 0.7-1.8 1.7 0 0.9 0.8 1.6 1.8 1.6zm-1.4 13.7h2.7v-11.7h-2.7zm17.4-5.9c0-3.6-2.5-6-5.9-6-3.5 0-6.1 2.5-6.1 6 0 3.5 2.5 6 6.5 6 2 0 3.6-0.7 4.7-1.9l-1.5-1.7c-0.8 0.9-1.8 1.3-3.2 1.3-2 0-3.4-1.1-3.8-2.8h9.2c0.1-0.3 0.1-0.6 0.1-0.9zm-5.9-3.8c1.8 0 3.1 1.1 3.3 2.8h-6.7c0.3-1.7 1.6-2.8 3.4-2.8zm11.1-0.4v-1.7h-2.6v11.8h2.8v-5.7c0-2.4 1.3-3.7 3.4-3.7 0.2 0 0.4 0 0.6 0.1v-2.6c-1.9 0-3.4 0.6-4.2 1.8zm17.5 4.2c0-3.6-2.5-6-5.9-6-3.5 0-6.1 2.5-6.1 6 0 3.5 2.5 6 6.5 6 2 0 3.6-0.7 4.7-1.9l-1.5-1.7c-0.8 0.9-1.8 1.3-3.2 1.3-2 0-3.4-1.1-3.8-2.8h9.3c0-0.3 0-0.6 0-0.9zm-5.9-3.8c1.8 0 3.1 1.1 3.3 2.8h-6.7c0.3-1.7 1.6-2.8 3.4-2.8zm15.2-2.2c-1.7 0-3.1 0.5-4 1.6v-1.5h-2.7v11.8h2.8v-6c0-2.3 1.3-3.5 3.3-3.5 1.7 0 2.8 1 2.8 3.1v6.4h2.7v-6.8c0-3.5-2.1-5.1-4.9-5.1z"/>
		<path id="&amp; Präsentieren" class="s1" aria-label="&amp; Präsentieren"  d="m1121.7 528.5l-1.9-1.9c0.6-1 1.1-2.2 1.4-3.5l-2.3-0.7c-0.2 1-0.4 1.8-0.8 2.6l-3.3-3.2c2.2-1.3 3.1-2.4 3.1-4 0-2.1-1.6-3.4-4.1-3.4-2.7 0-4.5 1.5-4.5 3.7 0 1.1 0.5 2.1 1.7 3.3-2.5 1.5-3.5 2.8-3.5 4.7 0 2.4 2.3 4.1 5.6 4.1 2 0 3.8-0.6 5.2-1.8l1.9 1.8zm-7.9-12c1.1 0 1.8 0.6 1.8 1.4 0 0.9-0.6 1.5-2.4 2.5-1.1-1.1-1.4-1.6-1.4-2.3 0-1 0.7-1.6 2-1.6zm-0.5 11.6c-1.9 0-3.2-0.9-3.2-2.2 0-1.1 0.7-1.9 2.4-2.9l4.1 3.9c-0.9 0.8-2.1 1.2-3.3 1.2zm23.3-13.4h-6.4v15.4h2.9v-4.5h3.5c4 0 6.5-2.1 6.5-5.4 0-3.5-2.5-5.5-6.5-5.5zm-0.2 8.5h-3.3v-6.1h3.3c2.5 0 3.8 1.1 3.8 3.1 0 1.9-1.3 3-3.8 3zm11.8-3.2v-1.7h-2.6v11.8h2.8v-5.7c0-2.4 1.3-3.6 3.4-3.6 0.2 0 0.4 0 0.6 0v-2.6c-2 0-3.4 0.6-4.2 1.8zm9.1-3.5c0.7 0 1.3-0.6 1.3-1.3 0-0.8-0.6-1.4-1.3-1.4-0.8 0-1.4 0.6-1.4 1.4 0 0.7 0.6 1.3 1.4 1.3zm4.2 0c0.8 0 1.4-0.6 1.4-1.3 0-0.8-0.6-1.4-1.4-1.4-0.7 0-1.3 0.6-1.3 1.4 0 0.7 0.6 1.3 1.3 1.3zm-2.3 1.7c-1.9 0-3.8 0.5-5 1.5l1.1 2c0.8-0.8 2.2-1.2 3.5-1.2 2 0 3 0.9 3 2.5v0.2h-3.1c-3.5 0-4.9 1.6-4.9 3.5 0 2.1 1.7 3.5 4.4 3.5 1.8 0 3.1-0.5 3.7-1.5v1.4h2.6v-6.9c0-3.4-2-5-5.3-5zm-0.4 10c-1.4 0-2.3-0.6-2.3-1.6 0-0.9 0.5-1.6 2.4-1.6h2.9v1.4c-0.5 1.2-1.7 1.8-3 1.8zm12.9 2c3.3 0 5.3-1.4 5.3-3.6 0-4.6-7.3-2.5-7.3-4.9 0-0.7 0.8-1.3 2.5-1.3 1.1 0 2.2 0.2 3.4 0.9l1-2.1c-1-0.6-2.8-1-4.4-1-3.2 0-5.2 1.5-5.2 3.7 0 4.7 7.3 2.5 7.3 4.8 0 0.8-0.7 1.3-2.5 1.3-1.4 0-3-0.5-4.1-1.2l-1 2.1c1 0.8 3 1.3 5 1.3zm18.7-5.9c0-3.7-2.5-6.1-5.9-6.1-3.5 0-6.1 2.5-6.1 6 0 3.5 2.5 6 6.5 6 2 0 3.7-0.6 4.7-1.9l-1.5-1.7c-0.8 0.9-1.8 1.3-3.2 1.3-2 0-3.4-1.1-3.8-2.8h9.3c0-0.3 0-0.6 0-0.8zm-5.9-3.9c1.8 0 3.1 1.2 3.3 2.9h-6.7c0.3-1.8 1.6-2.9 3.4-2.9zm15.2-2.2c-1.7 0-3.1 0.6-4 1.7v-1.6h-2.7v11.8h2.8v-6c0-2.3 1.3-3.5 3.3-3.5 1.7 0 2.8 1 2.8 3.1v6.4h2.7v-6.8c0-3.5-2.1-5.1-4.9-5.1zm14.7 9.3c-0.4 0.3-1 0.5-1.5 0.5-1.1 0-1.7-0.6-1.7-1.8v-5.6h3.2v-2.2h-3.2v-2.7h-2.7v2.7h-2v2.2h2v5.7c0 2.6 1.5 3.9 4 3.9 1 0 2-0.2 2.7-0.8zm4.4-11c1 0 1.8-0.8 1.8-1.8 0-0.9-0.8-1.5-1.8-1.5-1 0-1.8 0.7-1.8 1.6 0 0.9 0.8 1.7 1.8 1.7zm-1.4 13.6h2.8v-11.7h-2.8zm17.4-5.8c0-3.7-2.5-6.1-5.9-6.1-3.5 0-6.1 2.5-6.1 6 0 3.5 2.6 6 6.5 6 2 0 3.7-0.6 4.7-1.9l-1.5-1.7c-0.8 0.9-1.8 1.3-3.1 1.3-2.1 0-3.5-1.1-3.9-2.8h9.3c0-0.3 0-0.6 0-0.8zm-5.9-3.9c1.8 0 3.1 1.2 3.3 2.9h-6.7c0.3-1.7 1.6-2.9 3.4-2.9zm11.2-0.3v-1.8h-2.6v11.8h2.7v-5.7c0-2.4 1.3-3.6 3.4-3.6 0.2 0 0.4 0 0.6 0v-2.6c-1.9 0-3.3 0.6-4.1 1.9zm17.4 4.2c0-3.7-2.5-6.1-5.9-6.1-3.5 0-6.1 2.5-6.1 6 0 3.5 2.6 6 6.5 6 2 0 3.7-0.6 4.7-1.9l-1.5-1.7c-0.8 0.9-1.8 1.3-3.1 1.3-2.1 0-3.5-1.1-3.8-2.8h9.2c0-0.3 0-0.6 0-0.8zm-5.9-3.9c1.8 0 3.1 1.2 3.3 2.9h-6.7c0.3-1.7 1.6-2.9 3.4-2.9zm15.2-2.2c-1.7 0-3.1 0.6-4 1.7v-1.6h-2.6v11.8h2.7v-5.9c0-2.4 1.3-3.6 3.3-3.6 1.7 0 2.8 1 2.8 3.1v6.4h2.7v-6.7c0-3.6-2.1-5.2-4.9-5.2z"/>
		<g id="&lt;Group&gt;">
			<path id="&lt;Compound Path&gt;" fill-rule="evenodd" class="s1" d="m826.9 655.1c2.5 2.1 0.3 3.6-0.5 5.2-0.8 1.6-1.5 3.1-4 2.1-3.1-1.2-5.5 0.8-5.2 4.3 0.6 2.3-1 3-2.9 3.5-2 0.5-4 1.8-5.5-1-1.5-2.7-4.9-2.7-6.4 0-1.3 2.4-2.9 1.8-4.6 1-1.9-0.8-4-0.9-3.5-4 0.6-3.5-1.6-5.5-5.1-4.3-3.3 1.2-3.4-1.7-4.5-3.2-1.1-1.6-1.4-3 0.5-4.5 2.5-2 2.1-5.3-1-6.4-3.2-1.1-1.8-3.4-1.6-5.5 0.1-2.2 1-3.4 3.5-3.1 2.7 0.3 4.3-2.7 3.3-5.2-0.4-1-1.7-2.1-0.7-3.2 1.4-1.6 3-3 5-3.9 0.8-0.3 1.4 0.5 2 1 2.9 2.3 5.5 1.4 6.4-2.1 0.9-3.4 3.6-1.7 5.5-2.1 1.7-0.2 2.7 0.5 3.1 2.5 0.5 3.1 3.5 4.3 6 2.4 2-1.7 3.3-0.8 4.6 0.7 1.3 1.6 3.8 2.3 1.9 5.2-1.7 2.4 0 5.6 3.1 5.6 2.9 0 2.8 2.1 3.1 3.9 0.3 1.9 0.9 3.8-1.8 4.8-2.9 1.1-3.5 4.4-0.7 6.3zm-12.1-7.2c-0.1-4.9-4.2-9-8.9-9-4.8 0-8.8 4-8.8 8.9 0 5 3.7 8.8 8.8 8.8 4.8 0 9-4 8.9-8.7z"/>
			<g id="&lt;Group&gt;">
				<g id="&lt;Group&gt;">
					<path id="&lt;Path&gt;" class="s1" d="m843.4 656.3c-2.2-3.3-4.5-6.8-6.5-10.2-5.1-8.4-7-13.3-6.9-15.7-1.3 0.2-3.8 0-4.3-3.1-0.8-5.7-2.2-10.4-2.2-10.4 0 0 5.3 3.7 8.1 6.8 2.1 2.3 1.5 4.2 0.6 5.2 2 1 5.4 5 10.5 13.5 2.2 3.8 4.5 8 6.5 11.9 0.2 2.2 0 3.6-0.8 4.1-0.9 0.5-2.6-0.2-5-2.1z"/>
				</g>
				<g id="&lt;Group&gt;">
					<path id="&lt;Path&gt;" class="s1" d="m854.7 669.3c-1 0.7-5.1-4.1-9.6-10.6 1.5 1 2.9 1.2 3.9 0.6 0.8-0.4 1.2-1.4 1.3-2.7 3.3 6.7 5.4 12.2 4.4 12.7z"/>
				</g>
			</g>
		</g>
	</g>
</svg>